<?xml version="1.0" encoding="utf-8"?>
<!-- Generator: Adobe Illustrator 21.0.0, SVG Export Plug-In . SVG Version: 6.00 Build 0)  -->
<svg version="1.1" xmlns="http://www.w3.org/2000/svg" xmlns:xlink="http://www.w3.org/1999/xlink" x="0px" y="0px"
	 viewBox="0 0 31.4 34" style="enable-background:new 0 0 31.4 34;" xml:space="preserve">
<style type="text/css">
	.st0{display:none;}
	.st1{display:inline;}
</style>
<g id="Слой_3" class="st0">
	<path class="st1" d="M30.4,20.5c-0.5-9-7.9-16.2-16.9-16.2c-5.4,0-10.7,2.7-13.9,7c-0.1,0-0.2-0.1-0.2-0.1
		c-0.2-0.1-0.4-0.2-0.6-0.3c-0.1,0-0.2-0.1-0.3-0.1c-0.2-0.1-0.4-0.1-0.6-0.2c-0.1,0-0.2-0.1-0.3-0.1c-0.2-0.1-0.5-0.1-0.7-0.1
		c-0.1,0-0.2,0-0.3,0c-0.3,0-0.7-0.1-1-0.1c-5,0-9,4-9,9c0,0.1,0,0.3,0,0.4v0c-0.4,0.2-0.8,0.5-1.2,0.8c0.1,0,0.3,0,0.4,0.1
		c0.1,0,0.2,0.1,0.3,0.1c0.2,0.1,0.4,0.1,0.6,0.2c0.1,0,0.2,0.1,0.3,0.1c0.2,0.1,0.4,0.2,0.6,0.3c0.1,0,0.1,0.1,0.2,0.1
		c0,0,0.1,0,0.1-0.1c0.2-0.3,0.4-0.5,0.6-0.8v-0.1c0-0.1,0-0.3,0-0.4l0-0.2l0-0.2c0-0.1,0-0.2,0-0.2c0-3.9,3.1-7,7-7
		c0.3,0,0.6,0,0.9,0.1c0.1,0,0.2,0,0.2,0c0.3,0,0.5,0.1,0.8,0.2c0,0,0.1,0,0.1,0c0.3,0.1,0.6,0.2,0.8,0.3c0.1,0,0.1,0.1,0.2,0.1
		c0.2,0.1,0.5,0.2,0.7,0.4c0.4,0.3,0.8,0.6,1.1,0.9c0.4,0,0.9-0.1,1.3-0.1c0.4,0,0.8,0,1.3,0.1c-0.5-0.7-1-1.4-1.7-1.9
		c2.9-3.8,7.6-6.1,12.3-6.1c7.7,0,14.2,6.1,14.8,13.9c-1-0.1-2.6-0.1-4.1,0.1c-0.5,0.1-0.9,0.6-0.8,1.1c0.1,0.5,0.5,0.8,1,0.8
		c0,0,0.1,0,0.2,0c2.2-0.3,4.5,0,4.7,0c4.7,0.9,8.2,5.2,8.2,10c0,5.5-4.4,9.9-9.8,10c0,0.7-0.1,1.4-0.2,2c6.6,0,12-5.4,12-12
		C39.4,26.8,35.6,21.8,30.4,20.5z"/>
</g>
<g id="Слой_6" class="st0">
	<g class="st1">
		<path d="M-13.7,55.5c-0.8-0.3-1.6,0.1-1.9,0.8l-1.6,3.9c-0.4,1,0.3,2,1.4,2c0.6,0,1.1-0.4,1.4-0.9l1.6-3.9
			C-12.6,56.6-12.9,55.8-13.7,55.5z"/>
		<path d="M-1.1,55.5c-0.8-0.3-1.6,0.1-1.9,0.8l-1.6,3.9c-0.4,1,0.3,2,1.4,2c0.6,0,1.1-0.4,1.4-0.9l1.6-3.9
			C0,56.6-0.4,55.8-1.1,55.5z"/>
		<path d="M-9,65.7c-0.8-0.3-1.6,0.1-1.9,0.8l-1.6,4c-0.4,1,0.3,2,1.4,2c0.6,0,1.1-0.4,1.4-0.9l1.6-4C-7.9,66.9-8.2,66-9,65.7
			L-9,65.7z"/>
		<path d="M5.2,65.7c-0.8-0.3-1.6,0.1-1.9,0.8l-1.6,4c-0.4,1,0.3,2,1.4,2c0.6,0,1.1-0.4,1.4-0.9l1.6-4C6.3,66.9,5.9,66,5.2,65.7
			L5.2,65.7z"/>
		<path d="M11.5,55.5c-0.8-0.3-1.6,0.1-1.9,0.8L8,60.2c-0.4,1,0.3,2,1.4,2c0.6,0,1.1-0.4,1.4-0.9l1.6-3.9
			C12.6,56.6,12.2,55.8,11.5,55.5L11.5,55.5z"/>
	</g>
</g>
<g id="Слой_11" class="st0">
	<g>
		<path class="st1" d="M-9.6,52.6c-0.3-0.1-0.5-0.5-0.4-0.8l3.1-8.2l-10,13.2l4.8-1.4c0.1,0,0.3,0,0.4,0c0.3,0.1,0.5,0.5,0.3,0.8
			l-4,9l10.7-13.9l-4.5,1.4C-9.4,52.7-9.5,52.7-9.6,52.6z"/>
		<path class="st1" d="M-2.7,49.7c-0.2-0.1-0.4-0.2-0.6-0.1l-5.2,1.5l4.1-11c0.1-0.3,0-0.6-0.3-0.8c-0.3-0.1-0.6-0.1-0.8,0.2
			l-13.7,18c-0.2,0.3-0.2,0.7,0.1,0.9c0.2,0.1,0.4,0.2,0.5,0.1l5.3-1.6l-5.5,12.5c-0.1,0.3,0,0.7,0.3,0.8c0.3,0.1,0.6,0,0.7-0.2
			l15-19.5C-2.4,50.3-2.4,49.9-2.7,49.7z M-15.4,65.2l4-9c0.1-0.3,0-0.7-0.3-0.8c-0.1-0.1-0.3-0.1-0.4,0l-4.8,1.4l10-13.2l-3.1,8.2
			c-0.1,0.3,0,0.7,0.4,0.8c0.1,0,0.3,0.1,0.4,0l4.5-1.4L-15.4,65.2z"/>
	</g>
</g>
<g id="Слой_14" class="st0">
	<g class="st1">
		<g>
			<path d="M30.6,25.2c-6.4,1.9-13.1-1-16.1-6.9s-1.3-13.1,4-17.1c0.2-0.2,0.3-0.5,0.2-0.7S18.4,0,18.1,0c-3-0.2-6,0.4-8.7,1.8
				c-4.1,2-7.1,5.6-8.5,9.9c-1.4,4.3-1.1,8.9,1,13s5.6,7.1,9.9,8.5c4.3,1.4,8.9,1.1,13-1c2.7-1.4,5-3.4,6.6-6c0.2-0.2,0.1-0.5,0-0.8
				S30.8,25.1,30.6,25.2z M24.1,31c-7.7,3.9-17.2,0.8-21-6.9S2.3,6.9,10,3c2-1,4.1-1.6,6.3-1.7c-2.1,2-3.5,4.5-4.2,7.3
				c-0.8,3.5-0.4,7.1,1.2,10.3s4.3,5.7,7.6,7.1c2.7,1.1,5.6,1.4,8.4,1C27.8,28.6,26,30,24.1,31z"/>
		</g>
	</g>
	<g class="st1">
		<g>
			<path d="M5.7,23.6c-0.1-0.2-0.3-0.5-0.4-0.7c-0.2-0.3-0.6-0.5-0.9-0.3S4,23.2,4.1,23.5c0.1,0.3,0.3,0.5,0.4,0.8
				c0.2,0.3,0.6,0.4,0.9,0.3c0,0,0,0,0,0C5.8,24.4,5.9,24,5.7,23.6z"/>
		</g>
	</g>
	<g class="st1">
		<g>
			<path d="M15.4,30c-2.6-0.3-5-1.4-6.9-3.1c-0.3-0.2-0.7-0.2-1,0.1c-0.2,0.3-0.2,0.7,0.1,1c2.2,1.9,4.8,3.1,7.6,3.4
				c0.1,0,0.3,0,0.4-0.1c0.2-0.1,0.3-0.3,0.4-0.5C16,30.4,15.7,30,15.4,30z"/>
		</g>
	</g>
	<g>
		<g class="st1">
			<path d="M41.7,17.2h-1.9v-1.9c0-0.7-0.5-1.2-1.2-1.2s-1.2,0.5-1.2,1.2v1.9h-1.9c-0.7,0-1.2,0.5-1.2,1.2c0,0.7,0.5,1.2,1.2,1.2
				h1.9v1.9c0,0.7,0.5,1.2,1.2,1.2s1.2-0.5,1.2-1.2v-1.9h1.9c0.7,0,1.2-0.5,1.2-1.2C42.9,17.8,42.3,17.2,41.7,17.2z"/>
		</g>
	</g>
	<g>
		<g class="st1">
			<path d="M30.5,28h-1.2v-1.2c0-0.7-0.5-1.2-1.2-1.2c-0.7,0-1.2,0.5-1.2,1.2V28h-1.2c-0.7,0-1.2,0.5-1.2,1.2c0,0.7,0.5,1.2,1.2,1.2
				h1.2v1.2c0,0.7,0.5,1.2,1.2,1.2c0.7,0,1.2-0.5,1.2-1.2v-1.2h1.2c0.7,0,1.2-0.5,1.2-1.2C31.7,28.6,31.1,28,30.5,28z"/>
		</g>
	</g>
	<g>
		<g class="st1">
			<path d="M43.3,33.5h-0.6v-0.6c0-0.7-0.5-1.2-1.2-1.2c-0.7,0-1.2,0.5-1.2,1.2v0.6h-0.6c-0.7,0-1.2,0.5-1.2,1.2s0.5,1.2,1.2,1.2
				h0.6v0.6c0,0.7,0.5,1.2,1.2,1.2c0.7,0,1.2-0.5,1.2-1.2v-0.6h0.6c0.7,0,1.2-0.5,1.2-1.2C44.5,34,44,33.5,43.3,33.5z"/>
		</g>
	</g>
</g>
<g id="Слой_15">
	<g>
		<g>
			<path d="M30.6,25.2c-6.4,1.9-13.1-1-16.1-6.9s-1.3-13.1,4-17.1c0.2-0.2,0.3-0.5,0.2-0.7S18.4,0,18.1,0c-3-0.2-6,0.4-8.7,1.8
				c-4.1,2-7.1,5.6-8.5,9.9c-1.4,4.3-1.1,8.9,1,13s5.6,7.1,9.9,8.5c4.3,1.4,8.9,1.1,13-1c2.7-1.4,5-3.4,6.6-6c0.2-0.2,0.1-0.5,0-0.8
				S30.8,25.1,30.6,25.2z M24.1,31c-7.7,3.9-17.2,0.8-21-6.9S2.3,6.9,10,3c2-1,4.1-1.6,6.3-1.7c-2.1,2-3.5,4.5-4.2,7.3
				c-0.8,3.5-0.4,7.1,1.2,10.3s4.3,5.7,7.6,7.1c2.7,1.1,5.6,1.4,8.4,1C27.8,28.6,26,30,24.1,31z"/>
		</g>
	</g>
	<g>
		<g>
			<path d="M5.7,23.6c-0.1-0.2-0.3-0.5-0.4-0.7c-0.2-0.3-0.6-0.5-0.9-0.3S4,23.2,4.1,23.5c0.1,0.3,0.3,0.5,0.4,0.8
				c0.2,0.3,0.6,0.4,0.9,0.3c0,0,0,0,0,0C5.8,24.4,5.9,24,5.7,23.6z"/>
		</g>
	</g>
	<g>
		<g>
			<path d="M15.4,30c-2.6-0.3-5-1.4-6.9-3.1c-0.3-0.2-0.7-0.2-1,0.1c-0.2,0.3-0.2,0.7,0.1,1c2.2,1.9,4.8,3.1,7.6,3.4
				c0.1,0,0.3,0,0.4-0.1c0.2-0.1,0.3-0.3,0.4-0.5C16,30.4,15.7,30,15.4,30z"/>
		</g>
	</g>
</g>
<g id="Слой_13" class="st0">
	<g class="st1">
		<path d="M6.9,67c-0.3-0.1-0.5-0.5-0.4-0.8l2.9-8.4l-9.8,13.5l4.8-1.5c0.1,0,0.3,0,0.4,0c0.3,0.1,0.5,0.5,0.3,0.8l-3.8,9.2
			l10.5-14.3L7.3,67C7.2,67.1,7.1,67.1,6.9,67z"/>
		<path d="M-7.9,65.3c-0.3-0.1-0.4-0.5-0.3-0.8l6.8-14.2l-7,2.3c-0.1,0-0.2,0-0.4,0c-0.3-0.1-0.5-0.4-0.4-0.8l2.5-9.6l-12.6,16.6
			l8-2.6c0.2-0.1,0.3,0,0.5,0c0.3,0.2,0.4,0.5,0.3,0.8l-7.1,14l6.9-2.2c0.1,0,0.3,0,0.4,0c0.3,0.1,0.5,0.5,0.4,0.8l-4.7,14.8
			l12.1-20.7l-5,1.6C-7.6,65.4-7.8,65.4-7.9,65.3z"/>
		<path d="M-0.6,62.2C-0.7,62-1,61.9-1.2,62l-5.2,1.7l6.8-14.2c0.1-0.3,0-0.7-0.3-0.8c-0.1-0.1-0.3-0.1-0.5,0L-7.7,51l3.1-11.6
			c0.1-0.3-0.1-0.7-0.4-0.8c-0.2-0.1-0.5,0-0.7,0.2l-15.6,20.7c-0.2,0.3-0.2,0.7,0.1,0.9c0.2,0.1,0.4,0.2,0.6,0.1l8.5-2.7l-7.1,14
			c-0.2,0.3,0,0.7,0.3,0.8c0.1,0.1,0.3,0.1,0.5,0l7.2-2.3l-6,18.9c-0.1,0.3,0.1,0.7,0.4,0.8c0.3,0.1,0.6,0,0.7-0.3l15.8-26.8
			C-0.4,62.7-0.4,62.4-0.6,62.2z M-14.6,84.4l4.7-14.8c0.1-0.3-0.1-0.7-0.4-0.8c-0.1,0-0.3,0-0.4,0l-6.9,2.2l7.1-14
			c0.2-0.3,0-0.7-0.3-0.8c-0.1-0.1-0.3-0.1-0.5,0l-8,2.6l12.6-16.6l-2.5,9.6c-0.1,0.3,0.1,0.7,0.4,0.8c0.1,0,0.2,0,0.4,0l7-2.3
			l-6.8,14.2c-0.1,0.3,0,0.7,0.3,0.8c0.1,0.1,0.3,0.1,0.5,0l5-1.6L-14.6,84.4z"/>
		<path d="M13.9,63.9c-0.2-0.1-0.4-0.2-0.6-0.1l-5.2,1.7L12,54.3c0.1-0.3,0-0.6-0.3-0.8c-0.3-0.1-0.6-0.1-0.8,0.2L-2.5,72.2
			c-0.2,0.3-0.1,0.7,0.1,0.9c0.2,0.1,0.4,0.1,0.6,0.1l5.3-1.7l-5.2,12.7c-0.1,0.3,0,0.7,0.3,0.8c0.3,0.1,0.6,0,0.7-0.2l14.6-20
			C14.2,64.5,14.1,64.1,13.9,63.9z M1.4,79.9l3.8-9.2c0.1-0.3,0-0.7-0.3-0.8c-0.1-0.1-0.3-0.1-0.4,0l-4.8,1.5l9.8-13.5l-2.9,8.4
			c-0.1,0.3,0.1,0.7,0.4,0.8c0.1,0,0.3,0,0.4,0l4.5-1.5L1.4,79.9z"/>
	</g>
</g>
<g id="Слой_12" class="st0">
	<g class="st1">
		<path class="st0" d="M17.4,32.3c-0.1,0-2.5-0.3-4.7,0c-0.1,0-0.1,0-0.2,0c-0.5,0-0.9-0.4-1-0.8c-0.1-0.5,0.3-1.1,0.8-1.1
			c1.5-0.2,3.1-0.2,4.1-0.1c-0.7-7.8-7.1-13.9-14.8-13.9c-4.7,0-9.4,2.4-12.3,6.1c2,1.7,3.2,4.1,3.2,6.9c0,0.6-0.4,1-1,1s-1-0.4-1-1
			c0-2.5-1.3-4.6-3.2-5.9c-0.2-0.1-0.5-0.3-0.7-0.4c-0.1,0-0.1-0.1-0.2-0.1c-0.3-0.1-0.5-0.2-0.8-0.3c0,0-0.1,0-0.1,0
			c-0.3-0.1-0.5-0.1-0.8-0.2c-0.1,0-0.2,0-0.2,0c-0.3,0-0.6-0.1-0.9-0.1c-3.9,0-7,3.1-7,7c0,0.1,0,0.2,0,0.2l0,0.2l0,0.2
			c0,0.1,0,0.3,0,0.4v0.6l-0.6,0.3c-3.7,1.8-6.4,6.1-6.4,10.3c0,6,4.9,10.8,10.8,10.8H4.9c0.1,0,0.1,0,0.2,0l0.2,0l0.3,0
			c0.1,0,0.1,0,0.2,0h9.8c5.5,0,10-4.5,10-10C25.6,37.4,22,33.1,17.4,32.3z"/>
		<path d="M18.5,30.5c-0.5-9-7.9-16.2-16.9-16.2c-5.4,0-10.7,2.7-13.9,7c-0.1,0-0.2-0.1-0.2-0.1c-0.2-0.1-0.4-0.2-0.6-0.3
			c-0.1,0-0.2-0.1-0.3-0.1c-0.2-0.1-0.4-0.1-0.6-0.2c-0.1,0-0.2-0.1-0.3-0.1c-0.2-0.1-0.5-0.1-0.7-0.1c-0.1,0-0.2,0-0.3,0
			c-0.3,0-0.7-0.1-1-0.1c-5,0-9,4-9,9c0,0.1,0,0.3,0,0.4v0c-4.2,2.3-7,7-7,11.8c0,7.1,5.8,12.8,12.8,12.8H4.9c0.1,0,0.2,0,0.3,0
			l0.1,0l0.1,0c0.1,0,0.2,0,0.3,0h9.8c6.6,0,12-5.4,12-12C27.6,36.8,23.7,31.8,18.5,30.5z M15.5,52.3H5.7c-0.1,0-0.1,0-0.2,0l-0.3,0
			l-0.2,0c-0.1,0-0.1,0-0.2,0h-24.5c-6,0-10.8-4.9-10.8-10.8c0-4.2,2.7-8.5,6.4-10.3l0.6-0.3v-0.6c0-0.1,0-0.3,0-0.4l0-0.2l0-0.2
			c0-0.1,0-0.2,0-0.2c0-3.9,3.1-7,7-7c0.3,0,0.6,0,0.9,0.1c0.1,0,0.2,0,0.2,0c0.3,0,0.5,0.1,0.8,0.2c0,0,0.1,0,0.1,0
			c0.3,0.1,0.6,0.2,0.8,0.3c0.1,0,0.1,0.1,0.2,0.1c0.2,0.1,0.5,0.2,0.7,0.4c1.9,1.2,3.2,3.4,3.2,5.9c0,0.6,0.4,1,1,1s1-0.4,1-1
			c0-2.8-1.2-5.2-3.2-6.9c2.9-3.8,7.6-6.1,12.3-6.1c7.7,0,14.2,6.1,14.8,13.9c-1-0.1-2.6-0.1-4.1,0.1c-0.5,0.1-0.9,0.6-0.8,1.1
			c0.1,0.5,0.5,0.8,1,0.8c0,0,0.1,0,0.2,0c2.2-0.3,4.5,0,4.7,0c4.7,0.9,8.2,5.2,8.2,10C25.6,47.8,21.1,52.3,15.5,52.3z"/>
	</g>
</g>
<g id="Слой_7" class="st0">
	<g class="st1">
		<path class="st0" d="M-7.4,55.5c-0.8-0.3-1.6,0.1-1.9,0.8l-1.6,3.9c-0.4,1,0.3,2,1.4,2c0.6,0,1.1-0.4,1.4-0.9l1.6-3.9
			C-6.3,56.6-6.6,55.8-7.4,55.5z"/>
		<path class="st0" d="M5.2,55.5c-0.8-0.3-1.6,0.1-1.9,0.8l-1.6,3.9c-0.4,1,0.3,2,1.4,2c0.6,0,1.1-0.4,1.4-0.9L6,57.4
			C6.3,56.6,5.9,55.8,5.2,55.5z"/>
		<path class="st0" d="M-2.7,65.7c-0.8-0.3-1.6,0.1-1.9,0.8l-1.6,4c-0.4,1,0.3,2,1.4,2c0.6,0,1.1-0.4,1.4-0.9l1.6-4
			C-1.6,66.9-1.9,66-2.7,65.7L-2.7,65.7z"/>
		<path d="M11.5,65.7c-0.8-0.3-1.6,0.1-1.9,0.8l-1.6,4c-0.4,1,0.3,2,1.4,2c0.6,0,1.1-0.4,1.4-0.9l1.6-4C12.6,66.9,12.2,66,11.5,65.7
			L11.5,65.7z"/>
		<path d="M17.8,55.5c-0.8-0.3-1.6,0.1-1.9,0.8l-1.6,3.9c-0.4,1,0.3,2,1.4,2c0.6,0,1.1-0.4,1.4-0.9l1.6-3.9
			C18.9,56.6,18.5,55.8,17.8,55.5L17.8,55.5z"/>
	</g>
</g>
<g id="Слой_8" class="st0">
	<g class="st1">
		<g>
			<path d="M35.7,6.1c-0.2-0.4-0.8-0.6-1.2-0.3l-4.4,2.5c-0.4,0.2-0.6,0.8-0.3,1.2C30,10,30.5,10.1,31,9.8l4.4-2.5
				C35.8,7.1,35.9,6.5,35.7,6.1z"/>
		</g>
	</g>
	<g class="st1">
		<g>
			<path d="M35.3,29.6L31,27c-0.4-0.2-1-0.1-1.2,0.3c-0.2,0.4-0.1,1,0.3,1.2l4.4,2.5c0.4,0.2,1,0.1,1.2-0.3
				C35.9,30.4,35.8,29.8,35.3,29.6z"/>
		</g>
	</g>
	<g>
		<g class="st1">
			<path d="M14.3,36.2c-0.5,0-0.9,0.3-1,0.8c0,0,0,0.1,0,0.1v5.1c0,0.5,0.3,0.9,0.8,1c0.5,0,0.9-0.3,1-0.8c0,0,0-0.1,0-0.1v-5.1
				C15.2,36.7,14.8,36.2,14.3,36.2z"/>
		</g>
	</g>
	<g class="st1">
		<g>
			<path d="M-1.5,8.3l-4.4-2.5c-0.4-0.2-1-0.1-1.2,0.3s-0.1,1,0.3,1.2l4.4,2.5c0.4,0.2,1,0.1,1.2-0.3C-0.9,9.1-1.1,8.5-1.5,8.3z"/>
		</g>
	</g>
	<g class="st1">
		<g>
			<path d="M14.3-6.3c-0.5,0-0.9,0.3-1,0.8c0,0,0,0.1,0,0.1v5.1c0,0.5,0.4,0.9,0.9,0.9c0.5,0,0.9-0.4,0.9-0.9v-5.1
				C15.2-5.9,14.8-6.3,14.3-6.3z"/>
		</g>
	</g>
	<g class="st1">
		<g>
			<path d="M5.7,1.8L3.1-2.6C2.9-3.1,2.3-3.2,1.9-3C1.5-2.7,1.3-2.2,1.6-1.7l2.5,4.4C4.4,3.1,4.9,3.2,5.4,3C5.8,2.7,5.9,2.2,5.7,1.8
				z"/>
		</g>
	</g>
	<g class="st1">
		<g>
			<path d="M14.4,10.4c0,0-0.1,0-0.1,0c-4.4,0-8,3.6-8,8c0,0.5,0.4,0.9,0.9,0.9c0.5,0,0.9-0.4,0.9-0.9c0-3.4,2.8-6.2,6.2-6.2
				c0,0,0,0,0,0c0.5,0,0.9-0.3,1-0.8C15.3,10.9,14.9,10.5,14.4,10.4z"/>
		</g>
	</g>
	<g class="st1">
		<g>
			<path d="M38.9,18.4c0-0.4-0.4-0.8-0.8-0.8H33c-0.5,0-0.9,0.3-1,0.8c0,0.5,0.3,0.9,0.8,1c0,0,0.1,0,0.1,0h5.1
				C38.6,19.3,39,18.9,38.9,18.4z"/>
		</g>
	</g>
	<g>
		<g class="st1">
			<path d="M-4.3,17.5c0,0-0.1,0-0.1,0h-5.1c-0.5,0-0.9,0.5-0.8,1c0,0.4,0.4,0.8,0.8,0.8h5.1c0.5,0,0.9-0.3,1-0.8
				C-3.5,18-3.8,17.6-4.3,17.5z"/>
		</g>
	</g>
	<g class="st1">
		<path d="M22.4,10.3c-4.5-4.5-11.7-4.5-16.2,0v0c-2.2,2.1-3.4,5.1-3.4,8.1c0,3,1.2,6,3.4,8.1c4.5,4.5,11.7,4.5,16.2,0
			C26.9,22.1,26.9,14.8,22.4,10.3z"/>
		<path d="M14.3,5.2C6.9,5.2,1,11.1,1,18.4c0,3.5,1.4,6.9,3.9,9.4c2.5,2.5,5.9,3.9,9.4,3.9c7.3,0,13.3-5.9,13.3-13.3
			C27.5,11.1,21.6,5.2,14.3,5.2z M22.4,26.6c-4.5,4.5-11.7,4.5-16.2,0c-2.2-2.2-3.4-5.1-3.4-8.1c0-3,1.2-6,3.4-8.1v0
			c4.5-4.5,11.7-4.5,16.2,0C26.9,14.8,26.9,22.1,22.4,26.6z"/>
	</g>
	<g class="st1">
		<g>
			<path d="M27,38.6C27,38.6,27,38.6,27,38.6l-2.5-4.4c-0.2-0.4-0.8-0.6-1.2-0.3c-0.4,0.2-0.6,0.8-0.3,1.2l2.5,4.4
				c0.2,0.4,0.8,0.6,1.2,0.3C27.1,39.6,27.2,39,27,38.6z"/>
		</g>
	</g>
	<g class="st1">
		<g>
			<path d="M26.7-3c-0.4-0.2-1-0.1-1.2,0.3l-2.5,4.4c-0.3,0.4-0.1,1,0.3,1.2c0,0,0,0,0,0l0,0c0.4,0.3,1,0.1,1.2-0.3c0,0,0,0,0,0
				L27-1.7C27.2-2.2,27.1-2.7,26.7-3z"/>
		</g>
	</g>
	<g>
		<g class="st1">
			<path d="M5.4,33.9c-0.4-0.2-1-0.1-1.2,0.3l-2.5,4.4c-0.2,0.4-0.1,1,0.3,1.2c0.4,0.2,1,0.1,1.2-0.3l2.5-4.4
				C5.9,34.7,5.8,34.1,5.4,33.9z"/>
		</g>
	</g>
	<g>
		<g class="st1">
			<path d="M-1.2,27.4C-1.4,26.9-2,26.8-2.4,27l-4.4,2.5c-0.4,0.2-0.6,0.8-0.3,1.2c0.2,0.4,0.8,0.6,1.2,0.3l4.4-2.5
				C-1.1,28.3-0.9,27.8-1.2,27.4z"/>
		</g>
	</g>
</g>
<g id="Capa_1" class="st0">
	<path class="st1" d="M18.5,30.5c-0.5-9-7.9-16.2-16.9-16.2c-5.4,0-10.7,2.7-13.9,7c-0.1,0-0.2-0.1-0.2-0.1
		c-0.2-0.1-0.4-0.2-0.6-0.3c-0.1,0-0.2-0.1-0.3-0.1c-0.2-0.1-0.4-0.1-0.6-0.2c-0.1,0-0.2-0.1-0.3-0.1c-0.2-0.1-0.5-0.1-0.7-0.1
		c-0.1,0-0.2,0-0.3,0c-0.3,0-0.7-0.1-1-0.1c-5,0-9,4-9,9c0,0.1,0,0.3,0,0.4v0c-4.2,2.3-7,7-7,11.8c0,7.1,5.8,12.8,12.8,12.8H4.9
		c0.1,0,0.2,0,0.3,0l0.1,0l0.1,0c0.1,0,0.2,0,0.3,0h9.8c6.6,0,12-5.4,12-12C27.6,36.8,23.7,31.8,18.5,30.5z M15.5,52.3H5.7
		c-0.1,0-0.1,0-0.2,0l-0.3,0l-0.2,0c-0.1,0-0.1,0-0.2,0h-24.5c-6,0-10.8-4.9-10.8-10.8c0-4.2,2.7-8.5,6.4-10.3l0.6-0.3v-0.6
		c0-0.1,0-0.3,0-0.4l0-0.2l0-0.2c0-0.1,0-0.2,0-0.2c0-3.9,3.1-7,7-7c0.3,0,0.6,0,0.9,0.1c0.1,0,0.2,0,0.2,0c0.3,0,0.5,0.1,0.8,0.2
		c0,0,0.1,0,0.1,0c0.3,0.1,0.6,0.2,0.8,0.3c0.1,0,0.1,0.1,0.2,0.1c0.2,0.1,0.5,0.2,0.7,0.4c1.9,1.2,3.2,3.4,3.2,5.9c0,0.6,0.4,1,1,1
		s1-0.4,1-1c0-2.8-1.2-5.2-3.2-6.9c2.9-3.8,7.6-6.1,12.3-6.1c7.7,0,14.2,6.1,14.8,13.9c-1-0.1-2.6-0.1-4.1,0.1
		c-0.5,0.1-0.9,0.6-0.8,1.1c0.1,0.5,0.5,0.9,1,0.9c0,0,0.1,0,0.2,0c2.2-0.3,4.5,0,4.7,0c4.7,0.9,8.2,5.2,8.2,10
		C25.6,47.8,21.1,52.3,15.5,52.3z"/>
</g>
<g id="Слой_5" class="st0">
	<g class="st1">
		<path d="M17.4,32.3c-0.1,0-2.5-0.3-4.7,0c-0.1,0-0.1,0-0.2,0c-0.5,0-0.9-0.4-1-0.8c-0.1-0.5,0.3-1.1,0.8-1.1
			c1.5-0.2,3.1-0.2,4.1-0.1c-0.7-7.8-7.1-13.9-14.8-13.9c-4.7,0-9.4,2.4-12.3,6.1c2,1.7,3.2,4.1,3.2,6.9c0,0.6-0.4,1-1,1s-1-0.4-1-1
			c0-2.5-1.3-4.6-3.2-5.9c-0.2-0.1-0.5-0.3-0.7-0.4c-0.1,0-0.1-0.1-0.2-0.1c-0.3-0.1-0.5-0.2-0.8-0.3c0,0-0.1,0-0.1,0
			c-0.3-0.1-0.5-0.1-0.8-0.2c-0.1,0-0.2,0-0.2,0c-0.3,0-0.6-0.1-0.9-0.1c-3.9,0-7,3.1-7,7c0,0.1,0,0.2,0,0.2l0,0.2l0,0.2
			c0,0.1,0,0.3,0,0.4v0.6l-0.6,0.3c-3.7,1.8-6.4,6.1-6.4,10.3c0,6,4.9,10.8,10.8,10.8H4.9c0.1,0,0.1,0,0.2,0l0.2,0l0.3,0
			c0.1,0,0.1,0,0.2,0h9.8c5.5,0,10-4.5,10-10C25.6,37.4,22,33.1,17.4,32.3z"/>
		<path d="M18.5,30.5c-0.5-9-7.9-16.2-16.9-16.2c-5.4,0-10.7,2.7-13.9,7c-0.1,0-0.2-0.1-0.2-0.1c-0.2-0.1-0.4-0.2-0.6-0.3
			c-0.1,0-0.2-0.1-0.3-0.1c-0.2-0.1-0.4-0.1-0.6-0.2c-0.1,0-0.2-0.1-0.3-0.1c-0.2-0.1-0.5-0.1-0.7-0.1c-0.1,0-0.2,0-0.3,0
			c-0.3,0-0.7-0.1-1-0.1c-5,0-9,4-9,9c0,0.1,0,0.3,0,0.4v0c-4.2,2.3-7,7-7,11.8c0,7.1,5.8,12.8,12.8,12.8H4.9c0.1,0,0.2,0,0.3,0
			l0.1,0l0.1,0c0.1,0,0.2,0,0.3,0h9.8c6.6,0,12-5.4,12-12C27.6,36.8,23.7,31.8,18.5,30.5z M15.5,52.3H5.7c-0.1,0-0.1,0-0.2,0l-0.3,0
			l-0.2,0c-0.1,0-0.1,0-0.2,0h-24.5c-6,0-10.8-4.9-10.8-10.8c0-4.2,2.7-8.5,6.4-10.3l0.6-0.3v-0.6c0-0.1,0-0.3,0-0.4l0-0.2l0-0.2
			c0-0.1,0-0.2,0-0.2c0-3.9,3.1-7,7-7c0.3,0,0.6,0,0.9,0.1c0.1,0,0.2,0,0.2,0c0.3,0,0.5,0.1,0.8,0.2c0,0,0.1,0,0.1,0
			c0.3,0.1,0.6,0.2,0.8,0.3c0.1,0,0.1,0.1,0.2,0.1c0.2,0.1,0.5,0.2,0.7,0.4c1.9,1.2,3.2,3.4,3.2,5.9c0,0.6,0.4,1,1,1s1-0.4,1-1
			c0-2.8-1.2-5.2-3.2-6.9c2.9-3.8,7.6-6.1,12.3-6.1c7.7,0,14.2,6.1,14.8,13.9c-1-0.1-2.6-0.1-4.1,0.1c-0.5,0.1-0.9,0.6-0.8,1.1
			c0.1,0.5,0.5,0.8,1,0.8c0,0,0.1,0,0.2,0c2.2-0.3,4.5,0,4.7,0c4.7,0.9,8.2,5.2,8.2,10C25.6,47.8,21.1,52.3,15.5,52.3z"/>
	</g>
</g>
<g id="Слой_10" class="st0">
	<g class="st1">
		<g>
			<g>
				<path d="M35.7,6.1c-0.2-0.4-0.8-0.6-1.2-0.3l-4.4,2.5c-0.4,0.2-0.6,0.8-0.3,1.2C30,10,30.5,10.1,31,9.8l4.4-2.5
					C35.8,7.1,35.9,6.5,35.7,6.1z"/>
			</g>
		</g>
		<g>
			<g>
				<path d="M35.3,29.6L31,27c-0.4-0.2-1-0.1-1.2,0.3c-0.2,0.4-0.1,1,0.3,1.2l4.4,2.5c0.4,0.2,1,0.1,1.2-0.3
					C35.9,30.4,35.8,29.8,35.3,29.6z"/>
			</g>
		</g>
		<g>
			<g>
				<path d="M-1.5,8.3l-4.4-2.5c-0.4-0.2-1-0.1-1.2,0.3s-0.1,1,0.3,1.2l4.4,2.5c0.4,0.2,1,0.1,1.2-0.3C-0.9,9.1-1.1,8.5-1.5,8.3z"/>
			</g>
		</g>
		<g>
			<g>
				<path d="M14.3-6.3c-0.5,0-0.9,0.3-1,0.8c0,0,0,0.1,0,0.1v5.1c0,0.5,0.4,0.9,0.9,0.9c0.5,0,0.9-0.4,0.9-0.9v-5.1
					C15.2-5.9,14.8-6.3,14.3-6.3z"/>
			</g>
		</g>
		<g>
			<g>
				<path d="M5.7,1.8L3.1-2.6C2.9-3.1,2.3-3.2,1.9-3C1.5-2.7,1.3-2.2,1.6-1.7l2.5,4.4C4.4,3.1,4.9,3.2,5.4,3
					C5.8,2.7,5.9,2.2,5.7,1.8z"/>
			</g>
		</g>
		<g class="st0">
			<g class="st1">
				<path d="M14.4,10.4c0,0-0.1,0-0.1,0c-4.4,0-8,3.6-8,8c0,0.5,0.4,0.9,0.9,0.9c0.5,0,0.9-0.4,0.9-0.9c0-3.4,2.8-6.2,6.2-6.2
					c0,0,0,0,0,0c0.5,0,0.9-0.3,1-0.8C15.3,10.9,14.9,10.5,14.4,10.4z"/>
			</g>
		</g>
		<g>
			<g>
				<path d="M38.9,18.4c0-0.4-0.4-0.8-0.8-0.8H33c-0.5,0-0.9,0.3-1,0.8c0,0.5,0.3,0.9,0.8,1c0,0,0.1,0,0.1,0h5.1
					C38.6,19.3,39,18.9,38.9,18.4z"/>
			</g>
		</g>
		<g>
			<g>
				<path d="M27,38.6C27,38.6,27,38.6,27,38.6l-2.5-4.4c-0.2-0.4-0.8-0.6-1.2-0.3c-0.4,0.2-0.6,0.8-0.3,1.2l2.5,4.4
					c0.2,0.4,0.8,0.6,1.2,0.3C27.1,39.6,27.2,39,27,38.6z"/>
			</g>
		</g>
		<g>
			<g>
				<path d="M26.7-3c-0.4-0.2-1-0.1-1.2,0.3l-2.5,4.4c-0.3,0.4-0.1,1,0.3,1.2c0,0,0,0,0,0l0,0c0.4,0.3,1,0.1,1.2-0.3c0,0,0,0,0,0
					L27-1.7C27.2-2.2,27.1-2.7,26.7-3z"/>
			</g>
		</g>
	</g>
	<path class="st1" d="M3.5,14.4c0.6-1.5,1.4-2.9,2.6-4.1v0c4.5-4.5,11.7-4.5,16.2,0c4.5,4.5,4.5,11.7,0,16.2c-1.2,1.2-2.5,2-4,2.6
		c0.1,0.4,0.1,0.9,0.1,1.3c0.3,0.1,0.5,0.2,0.8,0.2c4.8-2,8.2-6.7,8.2-12.3c0-7.3-5.9-13.3-13.3-13.3C8.4,5.2,3.4,9,1.7,14.3
		C2.3,14.3,2.9,14.3,3.5,14.4z"/>
</g>
<g id="Слой_9" class="st0">
	<g class="st1">
		<g>
			<path d="M35.7,6.1c-0.2-0.4-0.8-0.6-1.2-0.3l-4.4,2.5c-0.4,0.2-0.6,0.8-0.3,1.2C30,10,30.5,10.1,31,9.8l4.4-2.5
				C35.8,7.1,35.9,6.5,35.7,6.1z"/>
		</g>
	</g>
	<g class="st1">
		<g>
			<path d="M35.3,29.6L31,27c-0.4-0.2-1-0.1-1.2,0.3c-0.2,0.4-0.1,1,0.3,1.2l4.4,2.5c0.4,0.2,1,0.1,1.2-0.3
				C35.9,30.4,35.8,29.8,35.3,29.6z"/>
		</g>
	</g>
	<g class="st1">
		<g>
			<path d="M-1.5,8.3l-4.4-2.5c-0.4-0.2-1-0.1-1.2,0.3s-0.1,1,0.3,1.2l4.4,2.5c0.4,0.2,1,0.1,1.2-0.3C-0.9,9.1-1.1,8.5-1.5,8.3z"/>
		</g>
	</g>
	<g class="st1">
		<g>
			<path d="M14.3-6.3c-0.5,0-0.9,0.3-1,0.8c0,0,0,0.1,0,0.1v5.1c0,0.5,0.4,0.9,0.9,0.9c0.5,0,0.9-0.4,0.9-0.9v-5.1
				C15.2-5.9,14.8-6.3,14.3-6.3z"/>
		</g>
	</g>
	<g class="st1">
		<g>
			<path d="M5.7,1.8L3.1-2.6C2.9-3.1,2.3-3.2,1.9-3C1.5-2.7,1.3-2.2,1.6-1.7l2.5,4.4C4.4,3.1,4.9,3.2,5.4,3C5.8,2.7,5.9,2.2,5.7,1.8
				z"/>
		</g>
	</g>
	<g class="st1">
		<g>
			<path d="M14.4,10.4c0,0-0.1,0-0.1,0c-4.4,0-8,3.6-8,8c0,0.5,0.4,0.9,0.9,0.9c0.5,0,0.9-0.4,0.9-0.9c0-3.4,2.8-6.2,6.2-6.2
				c0,0,0,0,0,0c0.5,0,0.9-0.3,1-0.8C15.3,10.9,14.9,10.5,14.4,10.4z"/>
		</g>
	</g>
	<g class="st1">
		<g>
			<path d="M38.9,18.4c0-0.4-0.4-0.8-0.8-0.8H33c-0.5,0-0.9,0.3-1,0.8c0,0.5,0.3,0.9,0.8,1c0,0,0.1,0,0.1,0h5.1
				C38.6,19.3,39,18.9,38.9,18.4z"/>
		</g>
	</g>
	<g class="st1">
		<path d="M22.4,10.3c-4.5-4.5-11.7-4.5-16.2,0v0c-2.2,2.1-3.4,5.1-3.4,8.1c0,3,1.2,6,3.4,8.1c4.5,4.5,11.7,4.5,16.2,0
			C26.9,22.1,26.9,14.8,22.4,10.3z"/>
		<path d="M14.3,5.2C6.9,5.2,1,11.1,1,18.4c0,3.5,1.4,6.9,3.9,9.4c2.5,2.5,5.9,3.9,9.4,3.9c7.3,0,13.3-5.9,13.3-13.3
			C27.5,11.1,21.6,5.2,14.3,5.2z M22.4,26.6c-4.5,4.5-11.7,4.5-16.2,0c-2.2-2.2-3.4-5.1-3.4-8.1c0-3,1.2-6,3.4-8.1v0
			c4.5-4.5,11.7-4.5,16.2,0C26.9,14.8,26.9,22.1,22.4,26.6z"/>
	</g>
	<g class="st1">
		<g>
			<path d="M27,38.6C27,38.6,27,38.6,27,38.6l-2.5-4.4c-0.2-0.4-0.8-0.6-1.2-0.3c-0.4,0.2-0.6,0.8-0.3,1.2l2.5,4.4
				c0.2,0.4,0.8,0.6,1.2,0.3C27.1,39.6,27.2,39,27,38.6z"/>
		</g>
	</g>
	<g class="st1">
		<g>
			<path d="M26.7-3c-0.4-0.2-1-0.1-1.2,0.3l-2.5,4.4c-0.3,0.4-0.1,1,0.3,1.2c0,0,0,0,0,0l0,0c0.4,0.3,1,0.1,1.2-0.3c0,0,0,0,0,0
				L27-1.7C27.2-2.2,27.1-2.7,26.7-3z"/>
		</g>
	</g>
</g>
<g id="Слой_4" class="st0">
	<path class="st1" d="M18.5,95.7c-0.5-9-7.9-16.2-16.9-16.2c-5.4,0-10.7,2.7-13.9,7c-0.1,0-0.2-0.1-0.2-0.1
		c-0.2-0.1-0.4-0.2-0.6-0.3c-0.1,0-0.2-0.1-0.3-0.1c-0.2-0.1-0.4-0.1-0.6-0.2c-0.1,0-0.2-0.1-0.3-0.1c-0.2-0.1-0.5-0.1-0.7-0.1
		c-0.1,0-0.2,0-0.3,0c-0.3,0-0.7-0.1-1-0.1c-5,0-9,4-9,9c0,0.1,0,0.3,0,0.4v0c-4.2,2.3-7,7-7,11.8c0,7.1,5.8,12.8,12.8,12.8H4.9
		c0.1,0,0.2,0,0.3,0l0.1,0l0.1,0c0.1,0,0.2,0,0.3,0h9.8c6.6,0,12-5.4,12-12C27.6,102,23.7,97.1,18.5,95.7z M15.5,117.5H5.7
		c-0.1,0-0.1,0-0.2,0l-0.3,0l-0.2,0c-0.1,0-0.1,0-0.2,0h-24.5c-6,0-10.8-4.9-10.8-10.8c0-4.2,2.7-8.5,6.4-10.3l0.6-0.3v-0.6
		c0-0.1,0-0.3,0-0.4l0-0.2l0-0.2c0-0.1,0-0.2,0-0.2c0-3.9,3.1-7,7-7c0.3,0,0.6,0,0.9,0.1c0.1,0,0.2,0,0.2,0c0.3,0,0.5,0.1,0.8,0.2
		c0,0,0.1,0,0.1,0c0.3,0.1,0.6,0.2,0.8,0.3c0.1,0,0.1,0.1,0.2,0.1c0.2,0.1,0.5,0.2,0.7,0.4c1.9,1.2,3.2,3.4,3.2,5.9c0,0.6,0.4,1,1,1
		s1-0.4,1-1c0-2.8-1.2-5.2-3.2-6.9c2.9-3.8,7.6-6.1,12.3-6.1c7.7,0,14.2,6.1,14.8,13.9c-1-0.1-2.6-0.1-4.1,0.1
		c-0.5,0.1-0.9,0.6-0.8,1.1c0.1,0.5,0.5,0.8,1,0.8c0,0,0.1,0,0.2,0c2.2-0.3,4.5,0,4.7,0c4.7,0.9,8.2,5.2,8.2,10
		C25.6,113,21.1,117.5,15.5,117.5z"/>
</g>
<g id="Слой_2" class="st0">
	<path class="st1" d="M305.5,168.5c-0.5-9-7.9-16.2-16.9-16.2c-5.4,0-10.7,2.7-13.9,7c-0.1,0-0.2-0.1-0.2-0.1
		c-0.2-0.1-0.4-0.2-0.6-0.3c-0.1,0-0.2-0.1-0.3-0.1c-0.2-0.1-0.4-0.1-0.6-0.2c-0.1,0-0.2-0.1-0.3-0.1c-0.2-0.1-0.5-0.1-0.7-0.1
		c-0.1,0-0.2,0-0.3,0c-0.3,0-0.7-0.1-1-0.1c-5,0-9,4-9,9c0,0.1,0,0.3,0,0.4v0c-4.2,2.3-7,7-7,11.8c0,7.1,5.8,12.8,12.8,12.8h24.5
		c0.1,0,0.2,0,0.3,0l0.1,0l0.1,0c0.1,0,0.2,0,0.3,0h9.8c6.6,0,12-5.4,12-12C314.6,174.8,310.7,169.8,305.5,168.5z M302.5,190.3h-9.8
		c-0.1,0-0.1,0-0.2,0l-0.3,0l-0.2,0c-0.1,0-0.1,0-0.2,0h-24.5c-6,0-10.8-4.9-10.8-10.8c0-4.2,2.7-8.5,6.4-10.3l0.6-0.3v-0.6
		c0-0.1,0-0.3,0-0.4l0-0.2l0-0.2c0-0.1,0-0.2,0-0.2c0-3.9,3.1-7,7-7c0.3,0,0.6,0,0.9,0.1c0.1,0,0.2,0,0.2,0c0.3,0,0.5,0.1,0.8,0.2
		c0,0,0.1,0,0.1,0c0.3,0.1,0.6,0.2,0.8,0.3c0.1,0,0.1,0.1,0.2,0.1c0.2,0.1,0.5,0.2,0.7,0.4c1.9,1.2,3.2,3.4,3.2,5.9c0,0.6,0.4,1,1,1
		c0.6,0,1-0.4,1-1c0-2.8-1.2-5.2-3.2-6.9c2.9-3.8,7.6-6.1,12.3-6.1c7.7,0,14.2,6.1,14.8,13.9c-1-0.1-2.6-0.1-4.1,0.1
		c-0.5,0.1-0.9,0.6-0.8,1.1c0.1,0.5,0.5,0.8,1,0.8c0,0,0.1,0,0.2,0c2.2-0.3,4.5,0,4.7,0c4.7,0.9,8.2,5.2,8.2,10
		C312.6,185.8,308.1,190.3,302.5,190.3z"/>
</g>
</svg>
