<?xml version="1.0" encoding="utf-8"?>
<!-- Generator: Adobe Illustrator 21.0.0, SVG Export Plug-In . SVG Version: 6.00 Build 0)  -->
<svg version="1.1" xmlns="http://www.w3.org/2000/svg" xmlns:xlink="http://www.w3.org/1999/xlink" x="0px" y="0px"
	 viewBox="0 0 71.8 86.7" style="enable-background:new 0 0 71.8 86.7;" xml:space="preserve">
<style type="text/css">
	.st0{display:none;}
	.st1{display:inline;}
</style>
<g id="Слой_3">
	<path d="M62.8,16.2C62.3,7.2,54.9,0,45.9,0C40.5,0,35.2,2.7,32,7c-0.1,0-0.2-0.1-0.2-0.1c-0.2-0.1-0.4-0.2-0.6-0.3
		c-0.1,0-0.2-0.1-0.3-0.1c-0.2-0.1-0.4-0.1-0.6-0.2c-0.1,0-0.2-0.1-0.3-0.1c-0.2-0.1-0.5-0.1-0.7-0.1c-0.1,0-0.2,0-0.3,0
		c-0.3,0-0.7-0.1-1-0.1c-5,0-9,4-9,9c0,0.1,0,0.3,0,0.4v0c-0.4,0.2-0.8,0.5-1.2,0.8c0.1,0,0.3,0,0.4,0.1c0.1,0,0.2,0.1,0.3,0.1
		c0.2,0.1,0.4,0.1,0.6,0.2c0.1,0,0.2,0.1,0.3,0.1c0.2,0.1,0.4,0.2,0.6,0.3c0.1,0,0.1,0.1,0.2,0.1c0,0,0.1,0,0.1-0.1
		c0.2-0.3,0.4-0.5,0.6-0.8V16c0-0.1,0-0.3,0-0.4l0-0.2l0-0.2c0-0.1,0-0.2,0-0.2c0-3.9,3.1-7,7-7c0.3,0,0.6,0,0.9,0.1
		c0.1,0,0.2,0,0.2,0c0.3,0,0.5,0.1,0.8,0.2c0,0,0.1,0,0.1,0c0.3,0.1,0.6,0.2,0.8,0.3c0.1,0,0.1,0.1,0.2,0.1c0.2,0.1,0.5,0.2,0.7,0.4
		c0.4,0.3,0.8,0.6,1.1,0.9c0.4,0,0.9-0.1,1.3-0.1c0.4,0,0.8,0,1.3,0.1c-0.5-0.7-1-1.4-1.7-1.9C36.5,4.4,41.2,2,45.9,2
		c7.7,0,14.2,6.1,14.8,13.9c-1-0.1-2.6-0.1-4.1,0.1c-0.5,0.1-0.9,0.6-0.8,1.1c0.1,0.5,0.5,0.8,1,0.8c0,0,0.1,0,0.2,0
		c2.2-0.3,4.5,0,4.7,0c4.7,0.9,8.2,5.2,8.2,10c0,5.5-4.4,9.9-9.8,10c0,0.7-0.1,1.4-0.2,2c6.6,0,12-5.4,12-12
		C71.8,22.5,68,17.6,62.8,16.2z"/>
</g>
<g id="Слой_6" class="st0">
	<g class="st1">
		<path d="M18.7,51.2c-0.8-0.3-1.6,0.1-1.9,0.8L15.3,56c-0.4,1,0.3,2,1.4,2c0.6,0,1.1-0.4,1.4-0.9l1.6-3.9
			C19.9,52.4,19.5,51.5,18.7,51.2z"/>
		<path d="M31.3,51.2c-0.8-0.3-1.6,0.1-1.9,0.8L27.8,56c-0.4,1,0.3,2,1.4,2c0.6,0,1.1-0.4,1.4-0.9l1.6-3.9
			C32.5,52.4,32.1,51.5,31.3,51.2z"/>
		<path d="M23.5,61.4c-0.8-0.3-1.6,0.1-1.9,0.8l-1.6,4c-0.4,1,0.3,2,1.4,2c0.6,0,1.1-0.4,1.4-0.9l1.6-4
			C24.6,62.6,24.2,61.7,23.5,61.4L23.5,61.4z"/>
		<path d="M37.6,61.4c-0.8-0.3-1.6,0.1-1.9,0.8l-1.6,4c-0.4,1,0.3,2,1.4,2c0.6,0,1.1-0.4,1.4-0.9l1.6-4
			C38.7,62.6,38.4,61.7,37.6,61.4L37.6,61.4z"/>
		<path d="M43.9,51.2c-0.8-0.3-1.6,0.1-1.9,0.8L40.4,56c-0.4,1,0.3,2,1.4,2c0.6,0,1.1-0.4,1.4-0.9l1.6-3.9
			C45,52.4,44.7,51.5,43.9,51.2L43.9,51.2z"/>
	</g>
</g>
<g id="Слой_11" class="st0">
	<g>
		<path class="st1" d="M22.8,48.4c-0.3-0.1-0.5-0.5-0.4-0.8l3.1-8.2l-10,13.2l4.8-1.4c0.1,0,0.3,0,0.4,0c0.3,0.1,0.5,0.5,0.3,0.8
			l-4,9L27.7,47l-4.5,1.4C23.1,48.4,22.9,48.4,22.8,48.4z"/>
		<path class="st1" d="M29.8,45.4c-0.2-0.1-0.4-0.2-0.6-0.1L24,46.8l4.1-11c0.1-0.3,0-0.6-0.3-0.8c-0.3-0.1-0.6-0.1-0.8,0.2
			l-13.7,18c-0.2,0.3-0.2,0.7,0.1,0.9c0.2,0.1,0.4,0.2,0.5,0.1l5.3-1.6l-5.5,12.5c-0.1,0.3,0,0.7,0.3,0.8c0.3,0.1,0.6,0,0.7-0.2
			l15-19.5C30.1,46,30,45.6,29.8,45.4z M17,61l4-9c0.1-0.3,0-0.7-0.3-0.8c-0.1-0.1-0.3-0.1-0.4,0l-4.8,1.4l10-13.2l-3.1,8.2
			c-0.1,0.3,0,0.7,0.4,0.8c0.1,0,0.3,0.1,0.4,0l4.5-1.4L17,61z"/>
	</g>
</g>
<g id="Слой_13">
	<g>
		<path d="M39.4,62.8c-0.3-0.1-0.5-0.5-0.4-0.8l2.9-8.4l-9.8,13.5l4.8-1.5c0.1,0,0.3,0,0.4,0c0.3,0.1,0.5,0.5,0.3,0.8l-3.8,9.2
			l10.5-14.3l-4.5,1.5C39.6,62.8,39.5,62.8,39.4,62.8z"/>
		<path d="M24.6,61c-0.3-0.1-0.4-0.5-0.3-0.8L31.1,46l-7,2.3c-0.1,0-0.2,0-0.4,0c-0.3-0.1-0.5-0.4-0.4-0.8l2.5-9.6L13.3,54.5l8-2.6
			c0.2-0.1,0.3,0,0.5,0c0.3,0.2,0.4,0.5,0.3,0.8l-7.1,14l6.9-2.2c0.1,0,0.3,0,0.4,0c0.3,0.1,0.5,0.5,0.4,0.8l-4.7,14.8L30,59.4
			l-5,1.6C24.9,61.1,24.7,61.1,24.6,61z"/>
		<path d="M31.9,58c-0.2-0.2-0.4-0.3-0.7-0.2L26,59.4l6.8-14.2c0.1-0.3,0-0.7-0.3-0.8c-0.1-0.1-0.3-0.1-0.5,0l-7.3,2.4l3.1-11.6
			c0.1-0.3-0.1-0.7-0.4-0.8c-0.2-0.1-0.5,0-0.7,0.2L11.1,55.3c-0.2,0.3-0.2,0.7,0.1,0.9c0.2,0.1,0.4,0.2,0.6,0.1l8.5-2.7l-7.1,14
			c-0.2,0.3,0,0.7,0.3,0.8c0.1,0.1,0.3,0.1,0.5,0L21,66L15,85c-0.1,0.3,0.1,0.7,0.4,0.8c0.3,0.1,0.6,0,0.7-0.3l15.8-26.8
			C32.1,58.4,32,58.2,31.9,58z M17.9,80.1l4.7-14.8c0.1-0.3-0.1-0.7-0.4-0.8c-0.1,0-0.3,0-0.4,0l-6.9,2.2l7.1-14
			c0.2-0.3,0-0.7-0.3-0.8c-0.1-0.1-0.3-0.1-0.5,0l-8,2.6l12.6-16.6l-2.5,9.6c-0.1,0.3,0.1,0.7,0.4,0.8c0.1,0,0.2,0,0.4,0l7-2.3
			l-6.8,14.2c-0.1,0.3,0,0.7,0.3,0.8c0.1,0.1,0.3,0.1,0.5,0l5-1.6L17.9,80.1z"/>
		<path d="M46.3,59.6c-0.2-0.1-0.4-0.2-0.6-0.1l-5.2,1.7L44.5,50c0.1-0.3,0-0.6-0.3-0.8c-0.3-0.1-0.6-0.1-0.8,0.2L30,67.9
			c-0.2,0.3-0.1,0.7,0.1,0.9c0.2,0.1,0.4,0.1,0.6,0.1l5.3-1.7l-5.2,12.7c-0.1,0.3,0,0.7,0.3,0.8c0.3,0.1,0.6,0,0.7-0.2l14.6-20
			C46.7,60.2,46.6,59.8,46.3,59.6z M33.8,75.6l3.8-9.2c0.1-0.3,0-0.7-0.3-0.8c-0.1-0.1-0.3-0.1-0.4,0l-4.8,1.5l9.8-13.5L39,62
			c-0.1,0.3,0.1,0.7,0.4,0.8c0.1,0,0.3,0,0.4,0l4.5-1.5L33.8,75.6z"/>
	</g>
</g>
<g id="Слой_12">
	<g>
		<path class="st0" d="M49.8,28c-0.1,0-2.5-0.3-4.7,0c-0.1,0-0.1,0-0.2,0c-0.5,0-0.9-0.4-1-0.8c-0.1-0.5,0.3-1.1,0.8-1.1
			c1.5-0.2,3.1-0.2,4.1-0.1C48.3,18.1,41.8,12,34.1,12c-4.7,0-9.4,2.4-12.3,6.1c2,1.7,3.2,4.1,3.2,6.9c0,0.6-0.4,1-1,1s-1-0.4-1-1
			c0-2.5-1.3-4.6-3.2-5.9c-0.2-0.1-0.5-0.3-0.7-0.4c-0.1,0-0.1-0.1-0.2-0.1c-0.3-0.1-0.5-0.2-0.8-0.3c0,0-0.1,0-0.1,0
			c-0.3-0.1-0.5-0.1-0.8-0.2c-0.1,0-0.2,0-0.2,0C16.6,18,16.3,18,16,18c-3.9,0-7,3.1-7,7c0,0.1,0,0.2,0,0.2l0,0.2l0,0.2
			c0,0.1,0,0.3,0,0.4v0.6l-0.6,0.3C4.7,28.7,2,33,2,37.2C2,43.1,6.9,48,12.8,48h24.5c0.1,0,0.1,0,0.2,0l0.2,0l0.3,0
			c0.1,0,0.1,0,0.2,0H48c5.5,0,10-4.5,10-10C58,33.2,54.5,28.9,49.8,28z"/>
		<path d="M51,26.2C50.4,17.2,43,10,34.1,10c-5.4,0-10.7,2.7-13.9,7c-0.1,0-0.2-0.1-0.2-0.1c-0.2-0.1-0.4-0.2-0.6-0.3
			c-0.1,0-0.2-0.1-0.3-0.1c-0.2-0.1-0.4-0.1-0.6-0.2c-0.1,0-0.2-0.1-0.3-0.1c-0.2-0.1-0.5-0.1-0.7-0.1c-0.1,0-0.2,0-0.3,0
			c-0.3,0-0.7-0.1-1-0.1c-5,0-9,4-9,9c0,0.1,0,0.3,0,0.4v0c-4.2,2.3-7,7-7,11.8C0,44.2,5.8,50,12.8,50h24.5c0.1,0,0.2,0,0.3,0l0.1,0
			l0.1,0c0.1,0,0.2,0,0.3,0H48c6.6,0,12-5.4,12-12C60,32.5,56.2,27.6,51,26.2z M48,48h-9.8c-0.1,0-0.1,0-0.2,0l-0.3,0l-0.2,0
			c-0.1,0-0.1,0-0.2,0H12.8C6.9,48,2,43.1,2,37.2c0-4.2,2.7-8.5,6.4-10.3L9,26.6V26c0-0.1,0-0.3,0-0.4l0-0.2l0-0.2
			c0-0.1,0-0.2,0-0.2c0-3.9,3.1-7,7-7c0.3,0,0.6,0,0.9,0.1c0.1,0,0.2,0,0.2,0c0.3,0,0.5,0.1,0.8,0.2c0,0,0.1,0,0.1,0
			c0.3,0.1,0.6,0.2,0.8,0.3c0.1,0,0.1,0.1,0.2,0.1c0.2,0.1,0.5,0.2,0.7,0.4c1.9,1.2,3.2,3.4,3.2,5.9c0,0.6,0.4,1,1,1s1-0.4,1-1
			c0-2.8-1.2-5.2-3.2-6.9c2.9-3.8,7.6-6.1,12.3-6.1c7.7,0,14.2,6.1,14.8,13.9c-1-0.1-2.6-0.1-4.1,0.1c-0.5,0.1-0.9,0.6-0.8,1.1
			c0.1,0.5,0.5,0.8,1,0.8c0,0,0.1,0,0.2,0c2.2-0.3,4.5,0,4.7,0c4.7,0.9,8.2,5.2,8.2,10C58,43.5,53.5,48,48,48z"/>
	</g>
</g>
<g id="Слой_7" class="st0">
	<g class="st1">
		<path class="st0" d="M25,51.2c-0.8-0.3-1.6,0.1-1.9,0.8L21.6,56c-0.4,1,0.3,2,1.4,2c0.6,0,1.1-0.4,1.4-0.9l1.6-3.9
			C26.2,52.4,25.8,51.5,25,51.2z"/>
		<path class="st0" d="M37.6,51.2c-0.8-0.3-1.6,0.1-1.9,0.8L34.1,56c-0.4,1,0.3,2,1.4,2c0.6,0,1.1-0.4,1.4-0.9l1.6-3.9
			C38.8,52.4,38.4,51.5,37.6,51.2z"/>
		<path class="st0" d="M29.7,61.4c-0.8-0.3-1.6,0.1-1.9,0.8l-1.6,4c-0.4,1,0.3,2,1.4,2c0.6,0,1.1-0.4,1.4-0.9l1.6-4
			C30.9,62.6,30.5,61.7,29.7,61.4L29.7,61.4z"/>
		<path d="M43.9,61.4c-0.8-0.3-1.6,0.1-1.9,0.8l-1.6,4c-0.4,1,0.3,2,1.4,2c0.6,0,1.1-0.4,1.4-0.9l1.6-4C45,62.6,44.7,61.7,43.9,61.4
			L43.9,61.4z"/>
		<path d="M50.2,51.2c-0.8-0.3-1.6,0.1-1.9,0.8L46.7,56c-0.4,1,0.3,2,1.4,2c0.6,0,1.1-0.4,1.4-0.9l1.6-3.9
			C51.3,52.4,51,51.5,50.2,51.2L50.2,51.2z"/>
	</g>
</g>
<g id="Слой_8" class="st0">
	<g class="st1">
		<g>
			<path d="M68.1,1.8c-0.2-0.4-0.8-0.6-1.2-0.3L62.5,4c-0.4,0.2-0.6,0.8-0.3,1.2c0.2,0.4,0.8,0.6,1.2,0.3L67.8,3
				C68.2,2.8,68.4,2.2,68.1,1.8z"/>
		</g>
	</g>
	<g class="st1">
		<g>
			<path d="M67.8,25.3l-4.4-2.5c-0.4-0.2-1-0.1-1.2,0.3s-0.1,1,0.3,1.2l4.4,2.5c0.4,0.2,1,0.1,1.2-0.3
				C68.4,26.1,68.2,25.6,67.8,25.3z"/>
		</g>
	</g>
	<g>
		<g class="st1">
			<path d="M46.8,31.9c-0.5,0-0.9,0.3-1,0.8c0,0,0,0.1,0,0.1V38c0,0.5,0.3,0.9,0.8,1s0.9-0.3,1-0.8c0,0,0-0.1,0-0.1v-5.1
				C47.7,32.4,47.3,32,46.8,31.9z"/>
		</g>
	</g>
	<g class="st1">
		<g>
			<path d="M30.9,4l-4.4-2.5c-0.4-0.2-1-0.1-1.2,0.3s-0.1,1,0.3,1.2L30,5.6c0.4,0.2,1,0.1,1.2-0.3C31.5,4.8,31.4,4.3,30.9,4z"/>
		</g>
	</g>
	<g class="st1">
		<g>
			<path d="M46.8-10.6c-0.5,0-0.9,0.3-1,0.8c0,0,0,0.1,0,0.1v5.1c0,0.5,0.4,0.9,0.9,0.9c0.5,0,0.9-0.4,0.9-0.9v-5.1
				C47.7-10.1,47.3-10.6,46.8-10.6z"/>
		</g>
	</g>
	<g class="st1">
		<g>
			<path d="M38.1-2.5l-2.5-4.4c-0.2-0.4-0.8-0.6-1.2-0.3C33.9-7,33.8-6.4,34-6l2.5,4.4c0.2,0.4,0.8,0.6,1.2,0.3
				C38.2-1.5,38.4-2.1,38.1-2.5z"/>
		</g>
	</g>
	<g class="st1">
		<g>
			<path d="M46.9,6.1c0,0-0.1,0-0.1,0c-4.4,0-8,3.6-8,8c0,0.5,0.4,0.9,0.9,0.9c0.5,0,0.9-0.4,0.9-0.9c0-3.4,2.8-6.2,6.2-6.2
				c0,0,0,0,0,0c0.5,0,0.9-0.3,1-0.8C47.7,6.6,47.4,6.2,46.9,6.1z"/>
		</g>
	</g>
	<g class="st1">
		<g>
			<path d="M71.4,14.1c0-0.4-0.4-0.8-0.8-0.8h-5.1c-0.5,0-0.9,0.3-1,0.8c0,0.5,0.3,0.9,0.8,1c0,0,0.1,0,0.1,0h5.1
				C71,15,71.4,14.6,71.4,14.1z"/>
		</g>
	</g>
	<g>
		<g class="st1">
			<path d="M28.1,13.3c0,0-0.1,0-0.1,0h-5.1c-0.5,0-0.9,0.5-0.8,1c0,0.4,0.4,0.8,0.8,0.8H28c0.5,0,0.9-0.3,1-0.8
				C29,13.7,28.6,13.3,28.1,13.3z"/>
		</g>
	</g>
	<g class="st1">
		<path d="M54.8,6.1c-4.5-4.5-11.7-4.5-16.2,0v0c-2.2,2.1-3.4,5.1-3.4,8.1c0,3,1.2,6,3.4,8.1c4.5,4.5,11.7,4.5,16.2,0
			C59.3,17.8,59.3,10.6,54.8,6.1z"/>
		<path d="M46.7,0.9c-7.3,0-13.3,5.9-13.3,13.3c0,3.5,1.4,6.9,3.9,9.4c2.5,2.5,5.9,3.9,9.4,3.9C54,27.4,60,21.5,60,14.2
			C60,6.8,54.1,0.9,46.7,0.9z M54.8,22.3c-4.5,4.5-11.7,4.5-16.2,0c-2.2-2.2-3.4-5.1-3.4-8.1c0-3,1.2-6,3.4-8.1v0
			c4.5-4.5,11.7-4.5,16.2,0C59.3,10.6,59.3,17.8,54.8,22.3z"/>
	</g>
	<g class="st1">
		<g>
			<path d="M59.4,34.3C59.4,34.3,59.4,34.3,59.4,34.3l-2.5-4.4c-0.2-0.4-0.8-0.6-1.2-0.3c-0.4,0.2-0.6,0.8-0.3,1.2l2.5,4.4
				c0.2,0.4,0.8,0.6,1.2,0.3C59.5,35.3,59.7,34.8,59.4,34.3z"/>
		</g>
	</g>
	<g class="st1">
		<g>
			<path d="M59.1-7.2c-0.4-0.2-1-0.1-1.2,0.3l-2.5,4.4c-0.3,0.4-0.1,1,0.3,1.2c0,0,0,0,0,0l0,0c0.4,0.3,1,0.1,1.2-0.3c0,0,0,0,0,0
				L59.4-6C59.7-6.4,59.5-7,59.1-7.2z"/>
		</g>
	</g>
	<g>
		<g class="st1">
			<path d="M37.8,29.6c-0.4-0.2-1-0.1-1.2,0.3L34,34.3c-0.2,0.4-0.1,1,0.3,1.2c0.4,0.2,1,0.1,1.2-0.3l2.5-4.4
				C38.4,30.4,38.2,29.9,37.8,29.6z"/>
		</g>
	</g>
	<g>
		<g class="st1">
			<path d="M31.3,23.1c-0.2-0.4-0.8-0.6-1.2-0.3l-4.4,2.5c-0.4,0.2-0.6,0.8-0.3,1.2c0.2,0.4,0.8,0.6,1.2,0.3l4.4-2.5
				C31.4,24.1,31.5,23.5,31.3,23.1z"/>
		</g>
	</g>
</g>
<g id="Capa_1" class="st0">
	<path class="st1" d="M51,26.2C50.4,17.2,43,10,34.1,10c-5.4,0-10.7,2.7-13.9,7c-0.1,0-0.2-0.1-0.2-0.1c-0.2-0.1-0.4-0.2-0.6-0.3
		c-0.1,0-0.2-0.1-0.3-0.1c-0.2-0.1-0.4-0.1-0.6-0.2c-0.1,0-0.2-0.1-0.3-0.1c-0.2-0.1-0.5-0.1-0.7-0.1c-0.1,0-0.2,0-0.3,0
		c-0.3,0-0.7-0.1-1-0.1c-5,0-9,4-9,9c0,0.1,0,0.3,0,0.4v0c-4.2,2.3-7,7-7,11.8C0,44.2,5.8,50,12.8,50h24.5c0.1,0,0.2,0,0.3,0l0.1,0
		l0.1,0c0.1,0,0.2,0,0.3,0H48c6.6,0,12-5.4,12-12C60,32.5,56.2,27.6,51,26.2z M48,48h-9.8c-0.1,0-0.1,0-0.2,0l-0.3,0l-0.2,0
		c-0.1,0-0.1,0-0.2,0H12.8C6.9,48,2,43.1,2,37.2c0-4.2,2.7-8.5,6.4-10.3L9,26.6V26c0-0.1,0-0.3,0-0.4l0-0.2l0-0.2c0-0.1,0-0.2,0-0.2
		c0-3.9,3.1-7,7-7c0.3,0,0.6,0,0.9,0.1c0.1,0,0.2,0,0.2,0c0.3,0,0.5,0.1,0.8,0.2c0,0,0.1,0,0.1,0c0.3,0.1,0.6,0.2,0.8,0.3
		c0.1,0,0.1,0.1,0.2,0.1c0.2,0.1,0.5,0.2,0.7,0.4c1.9,1.2,3.2,3.4,3.2,5.9c0,0.6,0.4,1,1,1s1-0.4,1-1c0-2.8-1.2-5.2-3.2-6.9
		c2.9-3.8,7.6-6.1,12.3-6.1c7.7,0,14.2,6.1,14.8,13.9c-1-0.1-2.6-0.1-4.1,0.1c-0.5,0.1-0.9,0.6-0.8,1.1c0.1,0.5,0.5,0.9,1,0.9
		c0,0,0.1,0,0.2,0c2.2-0.3,4.5,0,4.7,0c4.7,0.9,8.2,5.2,8.2,10C58,43.5,53.5,48,48,48z"/>
</g>
<g id="Слой_5" class="st0">
	<g class="st1">
		<path d="M49.8,28c-0.1,0-2.5-0.3-4.7,0c-0.1,0-0.1,0-0.2,0c-0.5,0-0.9-0.4-1-0.8c-0.1-0.5,0.3-1.1,0.8-1.1
			c1.5-0.2,3.1-0.2,4.1-0.1C48.3,18.1,41.8,12,34.1,12c-4.7,0-9.4,2.4-12.3,6.1c2,1.7,3.2,4.1,3.2,6.9c0,0.6-0.4,1-1,1s-1-0.4-1-1
			c0-2.5-1.3-4.6-3.2-5.9c-0.2-0.1-0.5-0.3-0.7-0.4c-0.1,0-0.1-0.1-0.2-0.1c-0.3-0.1-0.5-0.2-0.8-0.3c0,0-0.1,0-0.1,0
			c-0.3-0.1-0.5-0.1-0.8-0.2c-0.1,0-0.2,0-0.2,0C16.6,18,16.3,18,16,18c-3.9,0-7,3.1-7,7c0,0.1,0,0.2,0,0.2l0,0.2l0,0.2
			c0,0.1,0,0.3,0,0.4v0.6l-0.6,0.3C4.7,28.7,2,33,2,37.2C2,43.1,6.9,48,12.8,48h24.5c0.1,0,0.1,0,0.2,0l0.2,0l0.3,0
			c0.1,0,0.1,0,0.2,0H48c5.5,0,10-4.5,10-10C58,33.2,54.5,28.9,49.8,28z"/>
		<path d="M51,26.2C50.4,17.2,43,10,34.1,10c-5.4,0-10.7,2.7-13.9,7c-0.1,0-0.2-0.1-0.2-0.1c-0.2-0.1-0.4-0.2-0.6-0.3
			c-0.1,0-0.2-0.1-0.3-0.1c-0.2-0.1-0.4-0.1-0.6-0.2c-0.1,0-0.2-0.1-0.3-0.1c-0.2-0.1-0.5-0.1-0.7-0.1c-0.1,0-0.2,0-0.3,0
			c-0.3,0-0.7-0.1-1-0.1c-5,0-9,4-9,9c0,0.1,0,0.3,0,0.4v0c-4.2,2.3-7,7-7,11.8C0,44.2,5.8,50,12.8,50h24.5c0.1,0,0.2,0,0.3,0l0.1,0
			l0.1,0c0.1,0,0.2,0,0.3,0H48c6.6,0,12-5.4,12-12C60,32.5,56.2,27.6,51,26.2z M48,48h-9.8c-0.1,0-0.1,0-0.2,0l-0.3,0l-0.2,0
			c-0.1,0-0.1,0-0.2,0H12.8C6.9,48,2,43.1,2,37.2c0-4.2,2.7-8.5,6.4-10.3L9,26.6V26c0-0.1,0-0.3,0-0.4l0-0.2l0-0.2
			c0-0.1,0-0.2,0-0.2c0-3.9,3.1-7,7-7c0.3,0,0.6,0,0.9,0.1c0.1,0,0.2,0,0.2,0c0.3,0,0.5,0.1,0.8,0.2c0,0,0.1,0,0.1,0
			c0.3,0.1,0.6,0.2,0.8,0.3c0.1,0,0.1,0.1,0.2,0.1c0.2,0.1,0.5,0.2,0.7,0.4c1.9,1.2,3.2,3.4,3.2,5.9c0,0.6,0.4,1,1,1s1-0.4,1-1
			c0-2.8-1.2-5.2-3.2-6.9c2.9-3.8,7.6-6.1,12.3-6.1c7.7,0,14.2,6.1,14.8,13.9c-1-0.1-2.6-0.1-4.1,0.1c-0.5,0.1-0.9,0.6-0.8,1.1
			c0.1,0.5,0.5,0.8,1,0.8c0,0,0.1,0,0.2,0c2.2-0.3,4.5,0,4.7,0c4.7,0.9,8.2,5.2,8.2,10C58,43.5,53.5,48,48,48z"/>
	</g>
</g>
<g id="Слой_10" class="st0">
	<g class="st1">
		<g>
			<g>
				<path d="M68.1,1.8c-0.2-0.4-0.8-0.6-1.2-0.3L62.5,4c-0.4,0.2-0.6,0.8-0.3,1.2c0.2,0.4,0.8,0.6,1.2,0.3L67.8,3
					C68.2,2.8,68.4,2.2,68.1,1.8z"/>
			</g>
		</g>
		<g>
			<g>
				<path d="M67.8,25.3l-4.4-2.5c-0.4-0.2-1-0.1-1.2,0.3s-0.1,1,0.3,1.2l4.4,2.5c0.4,0.2,1,0.1,1.2-0.3
					C68.4,26.1,68.2,25.6,67.8,25.3z"/>
			</g>
		</g>
		<g>
			<g>
				<path d="M30.9,4l-4.4-2.5c-0.4-0.2-1-0.1-1.2,0.3s-0.1,1,0.3,1.2L30,5.6c0.4,0.2,1,0.1,1.2-0.3C31.5,4.8,31.4,4.3,30.9,4z"/>
			</g>
		</g>
		<g>
			<g>
				<path d="M46.8-10.6c-0.5,0-0.9,0.3-1,0.8c0,0,0,0.1,0,0.1v5.1c0,0.5,0.4,0.9,0.9,0.9c0.5,0,0.9-0.4,0.9-0.9v-5.1
					C47.7-10.1,47.3-10.6,46.8-10.6z"/>
			</g>
		</g>
		<g>
			<g>
				<path d="M38.1-2.5l-2.5-4.4c-0.2-0.4-0.8-0.6-1.2-0.3C33.9-7,33.8-6.4,34-6l2.5,4.4c0.2,0.4,0.8,0.6,1.2,0.3
					C38.2-1.5,38.4-2.1,38.1-2.5z"/>
			</g>
		</g>
		<g class="st0">
			<g class="st1">
				<path d="M46.9,6.1c0,0-0.1,0-0.1,0c-4.4,0-8,3.6-8,8c0,0.5,0.4,0.9,0.9,0.9c0.5,0,0.9-0.4,0.9-0.9c0-3.4,2.8-6.2,6.2-6.2
					c0,0,0,0,0,0c0.5,0,0.9-0.3,1-0.8C47.7,6.6,47.4,6.2,46.9,6.1z"/>
			</g>
		</g>
		<g>
			<g>
				<path d="M71.4,14.1c0-0.4-0.4-0.8-0.8-0.8h-5.1c-0.5,0-0.9,0.3-1,0.8c0,0.5,0.3,0.9,0.8,1c0,0,0.1,0,0.1,0h5.1
					C71,15,71.4,14.6,71.4,14.1z"/>
			</g>
		</g>
		<g>
			<g>
				<path d="M59.4,34.3C59.4,34.3,59.4,34.3,59.4,34.3l-2.5-4.4c-0.2-0.4-0.8-0.6-1.2-0.3c-0.4,0.2-0.6,0.8-0.3,1.2l2.5,4.4
					c0.2,0.4,0.8,0.6,1.2,0.3C59.5,35.3,59.7,34.8,59.4,34.3z"/>
			</g>
		</g>
		<g>
			<g>
				<path d="M59.1-7.2c-0.4-0.2-1-0.1-1.2,0.3l-2.5,4.4c-0.3,0.4-0.1,1,0.3,1.2c0,0,0,0,0,0l0,0c0.4,0.3,1,0.1,1.2-0.3c0,0,0,0,0,0
					L59.4-6C59.7-6.4,59.5-7,59.1-7.2z"/>
			</g>
		</g>
	</g>
	<path class="st1" d="M36,10.1c0.6-1.5,1.4-2.9,2.6-4.1v0c4.5-4.5,11.7-4.5,16.2,0c4.5,4.5,4.5,11.7,0,16.2c-1.2,1.2-2.5,2-4,2.6
		c0.1,0.4,0.1,0.9,0.1,1.3c0.3,0.1,0.5,0.2,0.8,0.2c4.8-2,8.2-6.7,8.2-12.3c0-7.3-5.9-13.3-13.3-13.3c-5.9,0-10.8,3.8-12.6,9.1
		C34.8,10,35.4,10,36,10.1z"/>
</g>
<g id="Слой_9" class="st0">
	<g class="st1">
		<g>
			<path d="M68.1,1.8c-0.2-0.4-0.8-0.6-1.2-0.3L62.5,4c-0.4,0.2-0.6,0.8-0.3,1.2c0.2,0.4,0.8,0.6,1.2,0.3L67.8,3
				C68.2,2.8,68.4,2.2,68.1,1.8z"/>
		</g>
	</g>
	<g class="st1">
		<g>
			<path d="M67.8,25.3l-4.4-2.5c-0.4-0.2-1-0.1-1.2,0.3s-0.1,1,0.3,1.2l4.4,2.5c0.4,0.2,1,0.1,1.2-0.3
				C68.4,26.1,68.2,25.6,67.8,25.3z"/>
		</g>
	</g>
	<g class="st1">
		<g>
			<path d="M30.9,4l-4.4-2.5c-0.4-0.2-1-0.1-1.2,0.3s-0.1,1,0.3,1.2L30,5.6c0.4,0.2,1,0.1,1.2-0.3C31.5,4.8,31.4,4.3,30.9,4z"/>
		</g>
	</g>
	<g class="st1">
		<g>
			<path d="M46.8-10.6c-0.5,0-0.9,0.3-1,0.8c0,0,0,0.1,0,0.1v5.1c0,0.5,0.4,0.9,0.9,0.9c0.5,0,0.9-0.4,0.9-0.9v-5.1
				C47.7-10.1,47.3-10.6,46.8-10.6z"/>
		</g>
	</g>
	<g class="st1">
		<g>
			<path d="M38.1-2.5l-2.5-4.4c-0.2-0.4-0.8-0.6-1.2-0.3C33.9-7,33.8-6.4,34-6l2.5,4.4c0.2,0.4,0.8,0.6,1.2,0.3
				C38.2-1.5,38.4-2.1,38.1-2.5z"/>
		</g>
	</g>
	<g class="st1">
		<g>
			<path d="M46.9,6.1c0,0-0.1,0-0.1,0c-4.4,0-8,3.6-8,8c0,0.5,0.4,0.9,0.9,0.9c0.5,0,0.9-0.4,0.9-0.9c0-3.4,2.8-6.2,6.2-6.2
				c0,0,0,0,0,0c0.5,0,0.9-0.3,1-0.8C47.7,6.6,47.4,6.2,46.9,6.1z"/>
		</g>
	</g>
	<g class="st1">
		<g>
			<path d="M71.4,14.1c0-0.4-0.4-0.8-0.8-0.8h-5.1c-0.5,0-0.9,0.3-1,0.8c0,0.5,0.3,0.9,0.8,1c0,0,0.1,0,0.1,0h5.1
				C71,15,71.4,14.6,71.4,14.1z"/>
		</g>
	</g>
	<g class="st1">
		<path d="M54.8,6.1c-4.5-4.5-11.7-4.5-16.2,0v0c-2.2,2.1-3.4,5.1-3.4,8.1c0,3,1.2,6,3.4,8.1c4.5,4.5,11.7,4.5,16.2,0
			C59.3,17.8,59.3,10.6,54.8,6.1z"/>
		<path d="M46.7,0.9c-7.3,0-13.3,5.9-13.3,13.3c0,3.5,1.4,6.9,3.9,9.4c2.5,2.5,5.9,3.9,9.4,3.9C54,27.4,60,21.5,60,14.2
			C60,6.8,54.1,0.9,46.7,0.9z M54.8,22.3c-4.5,4.5-11.7,4.5-16.2,0c-2.2-2.2-3.4-5.1-3.4-8.1c0-3,1.2-6,3.4-8.1v0
			c4.5-4.5,11.7-4.5,16.2,0C59.3,10.6,59.3,17.8,54.8,22.3z"/>
	</g>
	<g class="st1">
		<g>
			<path d="M59.4,34.3C59.4,34.3,59.4,34.3,59.4,34.3l-2.5-4.4c-0.2-0.4-0.8-0.6-1.2-0.3c-0.4,0.2-0.6,0.8-0.3,1.2l2.5,4.4
				c0.2,0.4,0.8,0.6,1.2,0.3C59.5,35.3,59.7,34.8,59.4,34.3z"/>
		</g>
	</g>
	<g class="st1">
		<g>
			<path d="M59.1-7.2c-0.4-0.2-1-0.1-1.2,0.3l-2.5,4.4c-0.3,0.4-0.1,1,0.3,1.2c0,0,0,0,0,0l0,0c0.4,0.3,1,0.1,1.2-0.3c0,0,0,0,0,0
				L59.4-6C59.7-6.4,59.5-7,59.1-7.2z"/>
		</g>
	</g>
</g>
<g id="Слой_4" class="st0">
	<path class="st1" d="M51,91.5c-0.5-9-7.9-16.2-16.9-16.2c-5.4,0-10.7,2.7-13.9,7c-0.1,0-0.2-0.1-0.2-0.1c-0.2-0.1-0.4-0.2-0.6-0.3
		c-0.1,0-0.2-0.1-0.3-0.1c-0.2-0.1-0.4-0.1-0.6-0.2c-0.1,0-0.2-0.1-0.3-0.1c-0.2-0.1-0.5-0.1-0.7-0.1c-0.1,0-0.2,0-0.3,0
		c-0.3,0-0.7-0.1-1-0.1c-5,0-9,4-9,9c0,0.1,0,0.3,0,0.4v0c-4.2,2.3-7,7-7,11.8c0,7.1,5.8,12.8,12.8,12.8h24.5c0.1,0,0.2,0,0.3,0
		l0.1,0l0.1,0c0.1,0,0.2,0,0.3,0H48c6.6,0,12-5.4,12-12C60,97.7,56.2,92.8,51,91.5z M48,113.3h-9.8c-0.1,0-0.1,0-0.2,0l-0.3,0
		l-0.2,0c-0.1,0-0.1,0-0.2,0H12.8c-6,0-10.8-4.9-10.8-10.8c0-4.2,2.7-8.5,6.4-10.3L9,91.9v-0.6c0-0.1,0-0.3,0-0.4l0-0.2l0-0.2
		c0-0.1,0-0.2,0-0.2c0-3.9,3.1-7,7-7c0.3,0,0.6,0,0.9,0.1c0.1,0,0.2,0,0.2,0c0.3,0,0.5,0.1,0.8,0.2c0,0,0.1,0,0.1,0
		c0.3,0.1,0.6,0.2,0.8,0.3c0.1,0,0.1,0.1,0.2,0.1c0.2,0.1,0.5,0.2,0.7,0.4c1.9,1.2,3.2,3.4,3.2,5.9c0,0.6,0.4,1,1,1s1-0.4,1-1
		c0-2.8-1.2-5.2-3.2-6.9c2.9-3.8,7.6-6.1,12.3-6.1c7.7,0,14.2,6.1,14.8,13.9c-1-0.1-2.6-0.1-4.1,0.1c-0.5,0.1-0.9,0.6-0.8,1.1
		c0.1,0.5,0.5,0.8,1,0.8c0,0,0.1,0,0.2,0c2.2-0.3,4.5,0,4.7,0c4.7,0.9,8.2,5.2,8.2,10C58,108.8,53.5,113.3,48,113.3z"/>
</g>
<g id="Слой_2" class="st0">
	<path class="st1" d="M338,164.2c-0.5-9-7.9-16.2-16.9-16.2c-5.4,0-10.7,2.7-13.9,7c-0.1,0-0.2-0.1-0.2-0.1
		c-0.2-0.1-0.4-0.2-0.6-0.3c-0.1,0-0.2-0.1-0.3-0.1c-0.2-0.1-0.4-0.1-0.6-0.2c-0.1,0-0.2-0.1-0.3-0.1c-0.2-0.1-0.5-0.1-0.7-0.1
		c-0.1,0-0.2,0-0.3,0c-0.3,0-0.7-0.1-1-0.1c-5,0-9,4-9,9c0,0.1,0,0.3,0,0.4v0c-4.2,2.3-7,7-7,11.8c0,7.1,5.8,12.8,12.8,12.8h24.5
		c0.1,0,0.2,0,0.3,0l0.1,0l0.1,0c0.1,0,0.2,0,0.3,0h9.8c6.6,0,12-5.4,12-12C347,170.5,343.2,165.6,338,164.2z M335,186h-9.8
		c-0.1,0-0.1,0-0.2,0l-0.3,0l-0.2,0c-0.1,0-0.1,0-0.2,0h-24.5c-6,0-10.8-4.9-10.8-10.8c0-4.2,2.7-8.5,6.4-10.3l0.6-0.3V164
		c0-0.1,0-0.3,0-0.4l0-0.2l0-0.2c0-0.1,0-0.2,0-0.2c0-3.9,3.1-7,7-7c0.3,0,0.6,0,0.9,0.1c0.1,0,0.2,0,0.2,0c0.3,0,0.5,0.1,0.8,0.2
		c0,0,0.1,0,0.1,0c0.3,0.1,0.6,0.2,0.8,0.3c0.1,0,0.1,0.1,0.2,0.1c0.2,0.1,0.5,0.2,0.7,0.4c1.9,1.2,3.2,3.4,3.2,5.9c0,0.6,0.4,1,1,1
		s1-0.4,1-1c0-2.8-1.2-5.2-3.2-6.9c2.9-3.8,7.6-6.1,12.3-6.1c7.7,0,14.2,6.1,14.8,13.9c-1-0.1-2.6-0.1-4.1,0.1
		c-0.5,0.1-0.9,0.6-0.8,1.1c0.1,0.5,0.5,0.9,1,0.9c0.1,0,0.1,0,0.2,0c2.2-0.3,4.5,0,4.7,0c4.7,0.9,8.2,5.2,8.2,10
		C345,181.5,340.5,186,335,186z"/>
</g>
</svg>
