<?xml version="1.0" encoding="utf-8"?>
<!-- Generator: Adobe Illustrator 21.0.0, SVG Export Plug-In . SVG Version: 6.00 Build 0)  -->
<svg version="1.1" xmlns="http://www.w3.org/2000/svg" xmlns:xlink="http://www.w3.org/1999/xlink" x="0px" y="0px"
	 viewBox="0 0 71.8 69.6" style="enable-background:new 0 0 71.8 69.6;" xml:space="preserve">
<style type="text/css">
	.st0{display:none;}
	.st1{display:inline;}
</style>
<g id="Слой_3">
	<path d="M62.8,16.2C62.3,7.2,54.9,0,45.9,0C40.5,0,35.2,2.7,32,7c-0.1,0-0.2-0.1-0.2-0.1c-0.2-0.1-0.4-0.2-0.6-0.3
		c-0.1,0-0.2-0.1-0.3-0.1c-0.2-0.1-0.4-0.1-0.6-0.2c-0.1,0-0.2-0.1-0.3-0.1c-0.2-0.1-0.5-0.1-0.7-0.1c-0.1,0-0.2,0-0.3,0
		c-0.3,0-0.7-0.1-1-0.1c-5,0-9,4-9,9c0,0.1,0,0.3,0,0.4v0c-0.4,0.2-0.8,0.5-1.2,0.8c0.1,0,0.3,0,0.4,0.1c0.1,0,0.2,0.1,0.3,0.1
		c0.2,0.1,0.4,0.1,0.6,0.2c0.1,0,0.2,0.1,0.3,0.1c0.2,0.1,0.4,0.2,0.6,0.3c0.1,0,0.1,0.1,0.2,0.1c0,0,0.1,0,0.1-0.1
		c0.2-0.3,0.4-0.5,0.6-0.8V16c0-0.1,0-0.3,0-0.4l0-0.2l0-0.2c0-0.1,0-0.2,0-0.2c0-3.9,3.1-7,7-7c0.3,0,0.6,0,0.9,0.1
		c0.1,0,0.2,0,0.2,0c0.3,0,0.5,0.1,0.8,0.2c0,0,0.1,0,0.1,0c0.3,0.1,0.6,0.2,0.8,0.3c0.1,0,0.1,0.1,0.2,0.1c0.2,0.1,0.5,0.2,0.7,0.4
		c0.4,0.3,0.8,0.6,1.1,0.9c0.4,0,0.9-0.1,1.3-0.1c0.4,0,0.8,0,1.3,0.1c-0.5-0.7-1-1.4-1.7-1.9C36.5,4.4,41.2,2,45.9,2
		c7.7,0,14.2,6.1,14.8,13.9c-1-0.1-2.6-0.1-4.1,0.1c-0.5,0.1-0.9,0.6-0.8,1.1c0.1,0.5,0.5,0.8,1,0.8c0,0,0.1,0,0.2,0
		c2.2-0.3,4.5,0,4.7,0c4.7,0.9,8.2,5.2,8.2,10c0,5.5-4.4,9.9-9.8,10c0,0.7-0.1,1.4-0.2,2c6.6,0,12-5.4,12-12
		C71.8,22.5,68,17.6,62.8,16.2z"/>
</g>
<g id="Слой_6">
	<g>
		<path d="M12.5,51.2c-0.8-0.3-1.6,0.1-1.9,0.8L9,56c-0.4,1,0.3,2,1.4,2c0.6,0,1.1-0.4,1.4-0.9l1.6-3.9
			C13.6,52.4,13.2,51.5,12.5,51.2z"/>
		<path d="M25,51.2c-0.8-0.3-1.6,0.1-1.9,0.8L21.6,56c-0.4,1,0.3,2,1.4,2c0.6,0,1.1-0.4,1.4-0.9l1.6-3.9
			C26.2,52.4,25.8,51.5,25,51.2z"/>
		<path d="M17.2,61.4c-0.8-0.3-1.6,0.1-1.9,0.8l-1.6,4c-0.4,1,0.3,2,1.4,2c0.6,0,1.1-0.4,1.4-0.9l1.6-4
			C18.3,62.6,17.9,61.7,17.2,61.4L17.2,61.4z"/>
		<path d="M31.3,61.4c-0.8-0.3-1.6,0.1-1.9,0.8l-1.6,4c-0.4,1,0.3,2,1.4,2c0.6,0,1.1-0.4,1.4-0.9l1.6-4
			C32.5,62.6,32.1,61.7,31.3,61.4L31.3,61.4z"/>
		<path d="M37.6,51.2c-0.8-0.3-1.6,0.1-1.9,0.8L34.1,56c-0.4,1,0.3,2,1.4,2c0.6,0,1.1-0.4,1.4-0.9l1.6-3.9
			C38.8,52.4,38.4,51.5,37.6,51.2L37.6,51.2z"/>
	</g>
</g>
<g id="Слой_7">
	<g>
		<path class="st0" d="M25,51.2c-0.8-0.3-1.6,0.1-1.9,0.8L21.6,56c-0.4,1,0.3,2,1.4,2c0.6,0,1.1-0.4,1.4-0.9l1.6-3.9
			C26.2,52.4,25.8,51.5,25,51.2z"/>
		<path class="st0" d="M37.6,51.2c-0.8-0.3-1.6,0.1-1.9,0.8L34.1,56c-0.4,1,0.3,2,1.4,2c0.6,0,1.1-0.4,1.4-0.9l1.6-3.9
			C38.8,52.4,38.4,51.5,37.6,51.2z"/>
		<path class="st0" d="M29.7,61.4c-0.8-0.3-1.6,0.1-1.9,0.8l-1.6,4c-0.4,1,0.3,2,1.4,2c0.6,0,1.1-0.4,1.4-0.9l1.6-4
			C30.9,62.6,30.5,61.7,29.7,61.4L29.7,61.4z"/>
		<path d="M43.9,61.4c-0.8-0.3-1.6,0.1-1.9,0.8l-1.6,4c-0.4,1,0.3,2,1.4,2c0.6,0,1.1-0.4,1.4-0.9l1.6-4C45,62.6,44.7,61.7,43.9,61.4
			L43.9,61.4z"/>
		<path d="M50.2,51.2c-0.8-0.3-1.6,0.1-1.9,0.8L46.7,56c-0.4,1,0.3,2,1.4,2c0.6,0,1.1-0.4,1.4-0.9l1.6-3.9
			C51.3,52.4,51,51.5,50.2,51.2L50.2,51.2z"/>
	</g>
</g>
<g id="Capa_1">
	<path d="M51,26.2C50.4,17.2,43,10,34.1,10c-5.4,0-10.7,2.7-13.9,7c-0.1,0-0.2-0.1-0.2-0.1c-0.2-0.1-0.4-0.2-0.6-0.3
		c-0.1,0-0.2-0.1-0.3-0.1c-0.2-0.1-0.4-0.1-0.6-0.2c-0.1,0-0.2-0.1-0.3-0.1c-0.2-0.1-0.5-0.1-0.7-0.1c-0.1,0-0.2,0-0.3,0
		c-0.3,0-0.7-0.1-1-0.1c-5,0-9,4-9,9c0,0.1,0,0.3,0,0.4v0c-4.2,2.3-7,7-7,11.8C0,44.2,5.8,50,12.8,50h24.5c0.1,0,0.2,0,0.3,0l0.1,0
		l0.1,0c0.1,0,0.2,0,0.3,0H48c6.6,0,12-5.4,12-12C60,32.5,56.2,27.6,51,26.2z M48,48h-9.8c-0.1,0-0.1,0-0.2,0l-0.3,0l-0.2,0
		c-0.1,0-0.1,0-0.2,0H12.8C6.9,48,2,43.1,2,37.2c0-4.2,2.7-8.5,6.4-10.3L9,26.6V26c0-0.1,0-0.3,0-0.4l0-0.2l0-0.2c0-0.1,0-0.2,0-0.2
		c0-3.9,3.1-7,7-7c0.3,0,0.6,0,0.9,0.1c0.1,0,0.2,0,0.2,0c0.3,0,0.5,0.1,0.8,0.2c0,0,0.1,0,0.1,0c0.3,0.1,0.6,0.2,0.8,0.3
		c0.1,0,0.1,0.1,0.2,0.1c0.2,0.1,0.5,0.2,0.7,0.4c1.9,1.2,3.2,3.4,3.2,5.9c0,0.6,0.4,1,1,1s1-0.4,1-1c0-2.8-1.2-5.2-3.2-6.9
		c2.9-3.8,7.6-6.1,12.3-6.1c7.7,0,14.2,6.1,14.8,13.9c-1-0.1-2.6-0.1-4.1,0.1c-0.5,0.1-0.9,0.6-0.8,1.1c0.1,0.5,0.5,0.9,1,0.9
		c0,0,0.1,0,0.2,0c2.2-0.3,4.5,0,4.7,0c4.7,0.9,8.2,5.2,8.2,10C58,43.5,53.5,48,48,48z"/>
</g>
<g id="Слой_5" class="st0">
	<g class="st1">
		<path d="M49.8,28c-0.1,0-2.5-0.3-4.7,0c-0.1,0-0.1,0-0.2,0c-0.5,0-0.9-0.4-1-0.8c-0.1-0.5,0.3-1.1,0.8-1.1
			c1.5-0.2,3.1-0.2,4.1-0.1C48.3,18.1,41.8,12,34.1,12c-4.7,0-9.4,2.4-12.3,6.1c2,1.7,3.2,4.1,3.2,6.9c0,0.6-0.4,1-1,1s-1-0.4-1-1
			c0-2.5-1.3-4.6-3.2-5.9c-0.2-0.1-0.5-0.3-0.7-0.4c-0.1,0-0.1-0.1-0.2-0.1c-0.3-0.1-0.5-0.2-0.8-0.3c0,0-0.1,0-0.1,0
			c-0.3-0.1-0.5-0.1-0.8-0.2c-0.1,0-0.2,0-0.2,0C16.6,18,16.3,18,16,18c-3.9,0-7,3.1-7,7c0,0.1,0,0.2,0,0.2l0,0.2l0,0.2
			c0,0.1,0,0.3,0,0.4v0.6l-0.6,0.3C4.7,28.7,2,33,2,37.2C2,43.1,6.9,48,12.8,48h24.5c0.1,0,0.1,0,0.2,0l0.2,0l0.3,0
			c0.1,0,0.1,0,0.2,0H48c5.5,0,10-4.5,10-10C58,33.2,54.5,28.9,49.8,28z"/>
		<path d="M51,26.2C50.4,17.2,43,10,34.1,10c-5.4,0-10.7,2.7-13.9,7c-0.1,0-0.2-0.1-0.2-0.1c-0.2-0.1-0.4-0.2-0.6-0.3
			c-0.1,0-0.2-0.1-0.3-0.1c-0.2-0.1-0.4-0.1-0.6-0.2c-0.1,0-0.2-0.1-0.3-0.1c-0.2-0.1-0.5-0.1-0.7-0.1c-0.1,0-0.2,0-0.3,0
			c-0.3,0-0.7-0.1-1-0.1c-5,0-9,4-9,9c0,0.1,0,0.3,0,0.4v0c-4.2,2.3-7,7-7,11.8C0,44.2,5.8,50,12.8,50h24.5c0.1,0,0.2,0,0.3,0l0.1,0
			l0.1,0c0.1,0,0.2,0,0.3,0H48c6.6,0,12-5.4,12-12C60,32.5,56.2,27.6,51,26.2z M48,48h-9.8c-0.1,0-0.1,0-0.2,0l-0.3,0l-0.2,0
			c-0.1,0-0.1,0-0.2,0H12.8C6.9,48,2,43.1,2,37.2c0-4.2,2.7-8.5,6.4-10.3L9,26.6V26c0-0.1,0-0.3,0-0.4l0-0.2l0-0.2
			c0-0.1,0-0.2,0-0.2c0-3.9,3.1-7,7-7c0.3,0,0.6,0,0.9,0.1c0.1,0,0.2,0,0.2,0c0.3,0,0.5,0.1,0.8,0.2c0,0,0.1,0,0.1,0
			c0.3,0.1,0.6,0.2,0.8,0.3c0.1,0,0.1,0.1,0.2,0.1c0.2,0.1,0.5,0.2,0.7,0.4c1.9,1.2,3.2,3.4,3.2,5.9c0,0.6,0.4,1,1,1s1-0.4,1-1
			c0-2.8-1.2-5.2-3.2-6.9c2.9-3.8,7.6-6.1,12.3-6.1c7.7,0,14.2,6.1,14.8,13.9c-1-0.1-2.6-0.1-4.1,0.1c-0.5,0.1-0.9,0.6-0.8,1.1
			c0.1,0.5,0.5,0.8,1,0.8c0,0,0.1,0,0.2,0c2.2-0.3,4.5,0,4.7,0c4.7,0.9,8.2,5.2,8.2,10C58,43.5,53.5,48,48,48z"/>
	</g>
</g>
<g id="Слой_4" class="st0">
	<path class="st1" d="M51,91.5c-0.5-9-7.9-16.2-16.9-16.2c-5.4,0-10.7,2.7-13.9,7c-0.1,0-0.2-0.1-0.2-0.1c-0.2-0.1-0.4-0.2-0.6-0.3
		c-0.1,0-0.2-0.1-0.3-0.1c-0.2-0.1-0.4-0.1-0.6-0.2c-0.1,0-0.2-0.1-0.3-0.1c-0.2-0.1-0.5-0.1-0.7-0.1c-0.1,0-0.2,0-0.3,0
		c-0.3,0-0.7-0.1-1-0.1c-5,0-9,4-9,9c0,0.1,0,0.3,0,0.4v0c-4.2,2.3-7,7-7,11.8c0,7.1,5.8,12.8,12.8,12.8h24.5c0.1,0,0.2,0,0.3,0
		l0.1,0l0.1,0c0.1,0,0.2,0,0.3,0H48c6.6,0,12-5.4,12-12C60,97.7,56.2,92.8,51,91.5z M48,113.3h-9.8c-0.1,0-0.1,0-0.2,0l-0.3,0
		l-0.2,0c-0.1,0-0.1,0-0.2,0H12.8c-6,0-10.8-4.9-10.8-10.8c0-4.2,2.7-8.5,6.4-10.3L9,91.9v-0.6c0-0.1,0-0.3,0-0.4l0-0.2l0-0.2
		c0-0.1,0-0.2,0-0.2c0-3.9,3.1-7,7-7c0.3,0,0.6,0,0.9,0.1c0.1,0,0.2,0,0.2,0c0.3,0,0.5,0.1,0.8,0.2c0,0,0.1,0,0.1,0
		c0.3,0.1,0.6,0.2,0.8,0.3c0.1,0,0.1,0.1,0.2,0.1c0.2,0.1,0.5,0.2,0.7,0.4c1.9,1.2,3.2,3.4,3.2,5.9c0,0.6,0.4,1,1,1s1-0.4,1-1
		c0-2.8-1.2-5.2-3.2-6.9c2.9-3.8,7.6-6.1,12.3-6.1c7.7,0,14.2,6.1,14.8,13.9c-1-0.1-2.6-0.1-4.1,0.1c-0.5,0.1-0.9,0.6-0.8,1.1
		c0.1,0.5,0.5,0.8,1,0.8c0,0,0.1,0,0.2,0c2.2-0.3,4.5,0,4.7,0c4.7,0.9,8.2,5.2,8.2,10C58,108.8,53.5,113.3,48,113.3z"/>
</g>
<g id="Слой_2" class="st0">
	<path class="st1" d="M338,164.2c-0.5-9-7.9-16.2-16.9-16.2c-5.4,0-10.7,2.7-13.9,7c-0.1,0-0.2-0.1-0.2-0.1
		c-0.2-0.1-0.4-0.2-0.6-0.3c-0.1,0-0.2-0.1-0.3-0.1c-0.2-0.1-0.4-0.1-0.6-0.2c-0.1,0-0.2-0.1-0.3-0.1c-0.2-0.1-0.5-0.1-0.7-0.1
		c-0.1,0-0.2,0-0.3,0c-0.3,0-0.7-0.1-1-0.1c-5,0-9,4-9,9c0,0.1,0,0.3,0,0.4v0c-4.2,2.3-7,7-7,11.8c0,7.1,5.8,12.8,12.8,12.8h24.5
		c0.1,0,0.2,0,0.3,0l0.1,0l0.1,0c0.1,0,0.2,0,0.3,0h9.8c6.6,0,12-5.4,12-12C347,170.5,343.2,165.6,338,164.2z M335,186h-9.8
		c-0.1,0-0.1,0-0.2,0l-0.3,0l-0.2,0c-0.1,0-0.1,0-0.2,0h-24.5c-6,0-10.8-4.9-10.8-10.8c0-4.2,2.7-8.5,6.4-10.3l0.6-0.3V164
		c0-0.1,0-0.3,0-0.4l0-0.2l0-0.2c0-0.1,0-0.2,0-0.2c0-3.9,3.1-7,7-7c0.3,0,0.6,0,0.9,0.1c0.1,0,0.2,0,0.2,0c0.3,0,0.5,0.1,0.8,0.2
		c0,0,0.1,0,0.1,0c0.3,0.1,0.6,0.2,0.8,0.3c0.1,0,0.1,0.1,0.2,0.1c0.2,0.1,0.5,0.2,0.7,0.4c1.9,1.2,3.2,3.4,3.2,5.9c0,0.6,0.4,1,1,1
		s1-0.4,1-1c0-2.8-1.2-5.2-3.2-6.9c2.9-3.8,7.6-6.1,12.3-6.1c7.7,0,14.2,6.1,14.8,13.9c-1-0.1-2.6-0.1-4.1,0.1
		c-0.5,0.1-0.9,0.6-0.8,1.1c0.1,0.5,0.5,0.9,1,0.9c0.1,0,0.1,0,0.2,0c2.2-0.3,4.5,0,4.7,0c4.7,0.9,8.2,5.2,8.2,10
		C345,181.5,340.5,186,335,186z"/>
</g>
</svg>
