<?xml version="1.0" encoding="utf-8"?>
<!-- Generator: Adobe Illustrator 21.0.0, SVG Export Plug-In . SVG Version: 6.00 Build 0)  -->
<svg version="1.1" xmlns="http://www.w3.org/2000/svg" xmlns:xlink="http://www.w3.org/1999/xlink" x="0px" y="0px"
	 viewBox="0 0 71.8 61.7" style="enable-background:new 0 0 71.8 61.7;" xml:space="preserve">
<style type="text/css">
	.st0{display:none;}
	.st1{display:inline;}
</style>
<g id="Слой_3" class="st0">
	<path class="st1" d="M62.8,26.8c-0.5-9-7.9-16.2-16.9-16.2c-5.4,0-10.7,2.7-13.9,7c-0.1,0-0.2-0.1-0.2-0.1
		c-0.2-0.1-0.4-0.2-0.6-0.3c-0.1,0-0.2-0.1-0.3-0.1c-0.2-0.1-0.4-0.1-0.6-0.2c-0.1,0-0.2-0.1-0.3-0.1c-0.2-0.1-0.5-0.1-0.7-0.1
		c-0.1,0-0.2,0-0.3,0c-0.3,0-0.7-0.1-1-0.1c-5,0-9,4-9,9c0,0.1,0,0.3,0,0.4v0c-0.4,0.2-0.8,0.5-1.2,0.8c0.1,0,0.3,0,0.4,0.1
		c0.1,0,0.2,0.1,0.3,0.1c0.2,0.1,0.4,0.1,0.6,0.2c0.1,0,0.2,0.1,0.3,0.1c0.2,0.1,0.4,0.2,0.6,0.3c0.1,0,0.1,0.1,0.2,0.1
		c0,0,0.1,0,0.1-0.1c0.2-0.3,0.4-0.5,0.6-0.8v-0.1c0-0.1,0-0.3,0-0.4l0-0.2l0-0.2c0-0.1,0-0.2,0-0.2c0-3.9,3.1-7,7-7
		c0.3,0,0.6,0,0.9,0.1c0.1,0,0.2,0,0.2,0c0.3,0,0.5,0.1,0.8,0.2c0,0,0.1,0,0.1,0c0.3,0.1,0.6,0.2,0.8,0.3c0.1,0,0.1,0.1,0.2,0.1
		c0.2,0.1,0.5,0.2,0.7,0.4c0.4,0.3,0.8,0.6,1.1,0.9c0.4,0,0.9-0.1,1.3-0.1c0.4,0,0.8,0,1.3,0.1c-0.5-0.7-1-1.4-1.7-1.9
		c2.9-3.8,7.6-6.1,12.3-6.1c7.7,0,14.2,6.1,14.8,13.9c-1-0.1-2.6-0.1-4.1,0.1c-0.5,0.1-0.9,0.6-0.8,1.1c0.1,0.5,0.5,0.8,1,0.8
		c0,0,0.1,0,0.2,0c2.2-0.3,4.5,0,4.7,0c4.7,0.9,8.2,5.2,8.2,10c0,5.5-4.4,9.9-9.8,10c0,0.7-0.1,1.4-0.2,2c6.6,0,12-5.4,12-12
		C71.8,33.1,68,28.2,62.8,26.8z"/>
</g>
<g id="Слой_6" class="st0">
	<g class="st1">
		<path d="M12.5,61.8c-0.8-0.3-1.6,0.1-1.9,0.8L9,66.6c-0.4,1,0.3,2,1.4,2c0.6,0,1.1-0.4,1.4-0.9l1.6-3.9
			C13.6,63,13.2,62.1,12.5,61.8z"/>
		<path d="M25,61.8c-0.8-0.3-1.6,0.1-1.9,0.8l-1.6,3.9c-0.4,1,0.3,2,1.4,2c0.6,0,1.1-0.4,1.4-0.9l1.6-3.9C26.2,63,25.8,62.1,25,61.8
			z"/>
		<path d="M17.2,72.1c-0.8-0.3-1.6,0.1-1.9,0.8l-1.6,4c-0.4,1,0.3,2,1.4,2c0.6,0,1.1-0.4,1.4-0.9l1.6-4
			C18.3,73.2,17.9,72.4,17.2,72.1L17.2,72.1z"/>
		<path d="M31.3,72.1c-0.8-0.3-1.6,0.1-1.9,0.8l-1.6,4c-0.4,1,0.3,2,1.4,2c0.6,0,1.1-0.4,1.4-0.9l1.6-4
			C32.5,73.2,32.1,72.4,31.3,72.1L31.3,72.1z"/>
		<path d="M37.6,61.8c-0.8-0.3-1.6,0.1-1.9,0.8l-1.6,3.9c-0.4,1,0.3,2,1.4,2c0.6,0,1.1-0.4,1.4-0.9l1.6-3.9
			C38.8,63,38.4,62.1,37.6,61.8L37.6,61.8z"/>
	</g>
</g>
<g id="Слой_7" class="st0">
	<g class="st1">
		<path class="st0" d="M25,61.8c-0.8-0.3-1.6,0.1-1.9,0.8l-1.6,3.9c-0.4,1,0.3,2,1.4,2c0.6,0,1.1-0.4,1.4-0.9l1.6-3.9
			C26.2,63,25.8,62.1,25,61.8z"/>
		<path class="st0" d="M37.6,61.8c-0.8-0.3-1.6,0.1-1.9,0.8l-1.6,3.9c-0.4,1,0.3,2,1.4,2c0.6,0,1.1-0.4,1.4-0.9l1.6-3.9
			C38.8,63,38.4,62.1,37.6,61.8z"/>
		<path class="st0" d="M29.7,72.1c-0.8-0.3-1.6,0.1-1.9,0.8l-1.6,4c-0.4,1,0.3,2,1.4,2c0.6,0,1.1-0.4,1.4-0.9l1.6-4
			C30.9,73.2,30.5,72.4,29.7,72.1L29.7,72.1z"/>
		<path d="M43.9,72.1c-0.8-0.3-1.6,0.1-1.9,0.8l-1.6,4c-0.4,1,0.3,2,1.4,2c0.6,0,1.1-0.4,1.4-0.9l1.6-4C45,73.2,44.7,72.4,43.9,72.1
			L43.9,72.1z"/>
		<path d="M50.2,61.8c-0.8-0.3-1.6,0.1-1.9,0.8l-1.6,3.9c-0.4,1,0.3,2,1.4,2c0.6,0,1.1-0.4,1.4-0.9l1.6-3.9
			C51.3,63,51,62.1,50.2,61.8L50.2,61.8z"/>
	</g>
</g>
<g id="Слой_8" class="st0">
	<g class="st1">
		<g>
			<path d="M68.1,12.4c-0.2-0.4-0.8-0.6-1.2-0.3l-4.4,2.5c-0.4,0.2-0.6,0.8-0.3,1.2c0.2,0.4,0.8,0.6,1.2,0.3l4.4-2.5
				C68.2,13.4,68.4,12.9,68.1,12.4z"/>
		</g>
	</g>
	<g class="st1">
		<g>
			<path d="M67.8,35.9l-4.4-2.5c-0.4-0.2-1-0.1-1.2,0.3s-0.1,1,0.3,1.2l4.4,2.5c0.4,0.2,1,0.1,1.2-0.3
				C68.4,36.7,68.2,36.2,67.8,35.9z"/>
		</g>
	</g>
	<g>
		<g class="st1">
			<path d="M46.8,42.6c-0.5,0-0.9,0.3-1,0.8c0,0,0,0.1,0,0.1v5.1c0,0.5,0.3,0.9,0.8,1c0.5,0,0.9-0.3,1-0.8c0,0,0-0.1,0-0.1v-5.1
				C47.7,43,47.3,42.6,46.8,42.6z"/>
		</g>
	</g>
	<g class="st1">
		<g>
			<path d="M30.9,14.6l-4.4-2.5c-0.4-0.2-1-0.1-1.2,0.3c-0.2,0.4-0.1,1,0.3,1.2l4.4,2.5c0.4,0.2,1,0.1,1.2-0.3
				C31.5,15.4,31.4,14.9,30.9,14.6z"/>
		</g>
	</g>
	<g class="st1">
		<g>
			<path d="M46.8,0c-0.5,0-0.9,0.3-1,0.8c0,0,0,0.1,0,0.1V6c0,0.5,0.4,0.9,0.9,0.9c0.5,0,0.9-0.4,0.9-0.9V1C47.7,0.5,47.3,0,46.8,0z
				"/>
		</g>
	</g>
	<g class="st1">
		<g>
			<path d="M38.1,8.1l-2.5-4.4c-0.2-0.4-0.8-0.6-1.2-0.3c-0.4,0.2-0.6,0.8-0.3,1.2L36.6,9c0.2,0.4,0.8,0.6,1.2,0.3
				C38.2,9.1,38.4,8.5,38.1,8.1z"/>
		</g>
	</g>
	<g class="st1">
		<g>
			<path d="M46.9,16.8c0,0-0.1,0-0.1,0c-4.4,0-8,3.6-8,8c0,0.5,0.4,0.9,0.9,0.9c0.5,0,0.9-0.4,0.9-0.9c0-3.4,2.8-6.2,6.2-6.2
				c0,0,0,0,0,0c0.5,0,0.9-0.3,1-0.8C47.7,17.2,47.4,16.8,46.9,16.8z"/>
		</g>
	</g>
	<g class="st1">
		<g>
			<path d="M71.4,24.7c0-0.4-0.4-0.8-0.8-0.8h-5.1c-0.5,0-0.9,0.3-1,0.8c0,0.5,0.3,0.9,0.8,1c0,0,0.1,0,0.1,0h5.1
				C71,25.6,71.4,25.2,71.4,24.7z"/>
		</g>
	</g>
	<g>
		<g class="st1">
			<path d="M28.1,23.9c0,0-0.1,0-0.1,0h-5.1c-0.5,0-0.9,0.5-0.8,1c0,0.4,0.4,0.8,0.8,0.8H28c0.5,0,0.9-0.3,1-0.8
				C29,24.4,28.6,23.9,28.1,23.9z"/>
		</g>
	</g>
	<g class="st1">
		<path d="M54.8,16.7c-4.5-4.5-11.7-4.5-16.2,0v0c-2.2,2.1-3.4,5.1-3.4,8.1c0,3,1.2,6,3.4,8.1c4.5,4.5,11.7,4.5,16.2,0
			C59.3,28.4,59.3,21.2,54.8,16.7z"/>
		<path d="M46.7,11.5c-7.3,0-13.3,5.9-13.3,13.3c0,3.5,1.4,6.9,3.9,9.4c2.5,2.5,5.9,3.9,9.4,3.9C54,38.1,60,32.1,60,24.8
			C60,17.5,54.1,11.5,46.7,11.5z M54.8,32.9c-4.5,4.5-11.7,4.5-16.2,0c-2.2-2.2-3.4-5.1-3.4-8.1c0-3,1.2-6,3.4-8.1v0
			c4.5-4.5,11.7-4.5,16.2,0C59.3,21.2,59.3,28.4,54.8,32.9z"/>
	</g>
	<g class="st1">
		<g>
			<path d="M59.4,45C59.4,45,59.4,45,59.4,45l-2.5-4.4c-0.2-0.4-0.8-0.6-1.2-0.3c-0.4,0.2-0.6,0.8-0.3,1.2l2.5,4.4
				c0.2,0.4,0.8,0.6,1.2,0.3C59.5,45.9,59.7,45.4,59.4,45z"/>
		</g>
	</g>
	<g class="st1">
		<g>
			<path d="M59.1,3.4c-0.4-0.2-1-0.1-1.2,0.3l-2.5,4.4c-0.3,0.4-0.1,1,0.3,1.2c0,0,0,0,0,0l0,0c0.4,0.3,1,0.1,1.2-0.3c0,0,0,0,0,0
				l2.5-4.4C59.7,4.2,59.5,3.6,59.1,3.4z"/>
		</g>
	</g>
	<g>
		<g class="st1">
			<path d="M37.8,40.2c-0.4-0.2-1-0.1-1.2,0.3L34,45c-0.2,0.4-0.1,1,0.3,1.2c0.4,0.2,1,0.1,1.2-0.3l2.5-4.4
				C38.4,41,38.2,40.5,37.8,40.2z"/>
		</g>
	</g>
	<g>
		<g class="st1">
			<path d="M31.3,33.7c-0.2-0.4-0.8-0.6-1.2-0.3l-4.4,2.5c-0.4,0.2-0.6,0.8-0.3,1.2c0.2,0.4,0.8,0.6,1.2,0.3l4.4-2.5
				C31.4,34.7,31.5,34.1,31.3,33.7z"/>
		</g>
	</g>
</g>
<g id="Capa_1">
	<path d="M51,36.8c-0.5-9-7.9-16.2-16.9-16.2c-5.4,0-10.7,2.7-13.9,7c-0.1,0-0.2-0.1-0.2-0.1c-0.2-0.1-0.4-0.2-0.6-0.3
		c-0.1,0-0.2-0.1-0.3-0.1c-0.2-0.1-0.4-0.1-0.6-0.2c-0.1,0-0.2-0.1-0.3-0.1c-0.2-0.1-0.5-0.1-0.7-0.1c-0.1,0-0.2,0-0.3,0
		c-0.3,0-0.7-0.1-1-0.1c-5,0-9,4-9,9c0,0.1,0,0.3,0,0.4v0c-4.2,2.3-7,7-7,11.8c0,7.1,5.8,12.8,12.8,12.8h24.5c0.1,0,0.2,0,0.3,0
		l0.1,0l0.1,0c0.1,0,0.2,0,0.3,0H48c6.6,0,12-5.4,12-12C60,43.1,56.2,38.2,51,36.8z M48,58.6h-9.8c-0.1,0-0.1,0-0.2,0l-0.3,0l-0.2,0
		c-0.1,0-0.1,0-0.2,0H12.8C6.9,58.6,2,53.8,2,47.8c0-4.2,2.7-8.5,6.4-10.3L9,37.2v-0.6c0-0.1,0-0.3,0-0.4l0-0.2l0-0.2
		c0-0.1,0-0.2,0-0.2c0-3.9,3.1-7,7-7c0.3,0,0.6,0,0.9,0.1c0.1,0,0.2,0,0.2,0c0.3,0,0.5,0.1,0.8,0.2c0,0,0.1,0,0.1,0
		c0.3,0.1,0.6,0.2,0.8,0.3c0.1,0,0.1,0.1,0.2,0.1c0.2,0.1,0.5,0.2,0.7,0.4c1.9,1.2,3.2,3.4,3.2,5.9c0,0.6,0.4,1,1,1s1-0.4,1-1
		c0-2.8-1.2-5.2-3.2-6.9c2.9-3.8,7.6-6.1,12.3-6.1c7.7,0,14.2,6.1,14.8,13.9c-1-0.1-2.6-0.1-4.1,0.1c-0.5,0.1-0.9,0.6-0.8,1.1
		c0.1,0.5,0.5,0.9,1,0.9c0,0,0.1,0,0.2,0c2.2-0.3,4.5,0,4.7,0c4.7,0.9,8.2,5.2,8.2,10C58,54.1,53.5,58.6,48,58.6z"/>
</g>
<g id="Слой_5" class="st0">
	<g class="st1">
		<path d="M49.8,38.6c-0.1,0-2.5-0.3-4.7,0c-0.1,0-0.1,0-0.2,0c-0.5,0-0.9-0.4-1-0.8c-0.1-0.5,0.3-1.1,0.8-1.1
			c1.5-0.2,3.1-0.2,4.1-0.1c-0.7-7.8-7.1-13.9-14.8-13.9c-4.7,0-9.4,2.4-12.3,6.1c2,1.7,3.2,4.1,3.2,6.9c0,0.6-0.4,1-1,1s-1-0.4-1-1
			c0-2.5-1.3-4.6-3.2-5.9c-0.2-0.1-0.5-0.3-0.7-0.4c-0.1,0-0.1-0.1-0.2-0.1c-0.3-0.1-0.5-0.2-0.8-0.3c0,0-0.1,0-0.1,0
			c-0.3-0.1-0.5-0.1-0.8-0.2c-0.1,0-0.2,0-0.2,0c-0.3,0-0.6-0.1-0.9-0.1c-3.9,0-7,3.1-7,7c0,0.1,0,0.2,0,0.2l0,0.2l0,0.2
			c0,0.1,0,0.3,0,0.4v0.6l-0.6,0.3C4.7,39.3,2,43.6,2,47.8c0,6,4.9,10.8,10.8,10.8h24.5c0.1,0,0.1,0,0.2,0l0.2,0l0.3,0
			c0.1,0,0.1,0,0.2,0H48c5.5,0,10-4.5,10-10C58,43.8,54.5,39.5,49.8,38.6z"/>
		<path d="M51,36.8c-0.5-9-7.9-16.2-16.9-16.2c-5.4,0-10.7,2.7-13.9,7c-0.1,0-0.2-0.1-0.2-0.1c-0.2-0.1-0.4-0.2-0.6-0.3
			c-0.1,0-0.2-0.1-0.3-0.1c-0.2-0.1-0.4-0.1-0.6-0.2c-0.1,0-0.2-0.1-0.3-0.1c-0.2-0.1-0.5-0.1-0.7-0.1c-0.1,0-0.2,0-0.3,0
			c-0.3,0-0.7-0.1-1-0.1c-5,0-9,4-9,9c0,0.1,0,0.3,0,0.4v0c-4.2,2.3-7,7-7,11.8c0,7.1,5.8,12.8,12.8,12.8h24.5c0.1,0,0.2,0,0.3,0
			l0.1,0l0.1,0c0.1,0,0.2,0,0.3,0H48c6.6,0,12-5.4,12-12C60,43.1,56.2,38.2,51,36.8z M48,58.6h-9.8c-0.1,0-0.1,0-0.2,0l-0.3,0
			l-0.2,0c-0.1,0-0.1,0-0.2,0H12.8C6.9,58.6,2,53.8,2,47.8c0-4.2,2.7-8.5,6.4-10.3L9,37.2v-0.6c0-0.1,0-0.3,0-0.4l0-0.2l0-0.2
			c0-0.1,0-0.2,0-0.2c0-3.9,3.1-7,7-7c0.3,0,0.6,0,0.9,0.1c0.1,0,0.2,0,0.2,0c0.3,0,0.5,0.1,0.8,0.2c0,0,0.1,0,0.1,0
			c0.3,0.1,0.6,0.2,0.8,0.3c0.1,0,0.1,0.1,0.2,0.1c0.2,0.1,0.5,0.2,0.7,0.4c1.9,1.2,3.2,3.4,3.2,5.9c0,0.6,0.4,1,1,1s1-0.4,1-1
			c0-2.8-1.2-5.2-3.2-6.9c2.9-3.8,7.6-6.1,12.3-6.1c7.7,0,14.2,6.1,14.8,13.9c-1-0.1-2.6-0.1-4.1,0.1c-0.5,0.1-0.9,0.6-0.8,1.1
			c0.1,0.5,0.5,0.8,1,0.8c0,0,0.1,0,0.2,0c2.2-0.3,4.5,0,4.7,0c4.7,0.9,8.2,5.2,8.2,10C58,54.1,53.5,58.6,48,58.6z"/>
	</g>
</g>
<g id="Слой_10">
	<g>
		<g>
			<g>
				<path d="M68.1,12.4c-0.2-0.4-0.8-0.6-1.2-0.3l-4.4,2.5c-0.4,0.2-0.6,0.8-0.3,1.2c0.2,0.4,0.8,0.6,1.2,0.3l4.4-2.5
					C68.2,13.4,68.4,12.9,68.1,12.4z"/>
			</g>
		</g>
		<g>
			<g>
				<path d="M67.8,35.9l-4.4-2.5c-0.4-0.2-1-0.1-1.2,0.3s-0.1,1,0.3,1.2l4.4,2.5c0.4,0.2,1,0.1,1.2-0.3
					C68.4,36.7,68.2,36.2,67.8,35.9z"/>
			</g>
		</g>
		<g>
			<g>
				<path d="M30.9,14.6l-4.4-2.5c-0.4-0.2-1-0.1-1.2,0.3c-0.2,0.4-0.1,1,0.3,1.2l4.4,2.5c0.4,0.2,1,0.1,1.2-0.3
					C31.5,15.4,31.4,14.9,30.9,14.6z"/>
			</g>
		</g>
		<g>
			<g>
				<path d="M46.8,0c-0.5,0-0.9,0.3-1,0.8c0,0,0,0.1,0,0.1V6c0,0.5,0.4,0.9,0.9,0.9c0.5,0,0.9-0.4,0.9-0.9V1C47.7,0.5,47.3,0,46.8,0
					z"/>
			</g>
		</g>
		<g>
			<g>
				<path d="M38.1,8.1l-2.5-4.4c-0.2-0.4-0.8-0.6-1.2-0.3c-0.4,0.2-0.6,0.8-0.3,1.2L36.6,9c0.2,0.4,0.8,0.6,1.2,0.3
					C38.2,9.1,38.4,8.5,38.1,8.1z"/>
			</g>
		</g>
		<g class="st0">
			<g class="st1">
				<path d="M46.9,16.8c0,0-0.1,0-0.1,0c-4.4,0-8,3.6-8,8c0,0.5,0.4,0.9,0.9,0.9c0.5,0,0.9-0.4,0.9-0.9c0-3.4,2.8-6.2,6.2-6.2
					c0,0,0,0,0,0c0.5,0,0.9-0.3,1-0.8C47.7,17.2,47.4,16.8,46.9,16.8z"/>
			</g>
		</g>
		<g>
			<g>
				<path d="M71.4,24.7c0-0.4-0.4-0.8-0.8-0.8h-5.1c-0.5,0-0.9,0.3-1,0.8c0,0.5,0.3,0.9,0.8,1c0,0,0.1,0,0.1,0h5.1
					C71,25.6,71.4,25.2,71.4,24.7z"/>
			</g>
		</g>
		<g>
			<g>
				<path d="M59.4,45C59.4,45,59.4,45,59.4,45l-2.5-4.4c-0.2-0.4-0.8-0.6-1.2-0.3c-0.4,0.2-0.6,0.8-0.3,1.2l2.5,4.4
					c0.2,0.4,0.8,0.6,1.2,0.3C59.5,45.9,59.7,45.4,59.4,45z"/>
			</g>
		</g>
		<g>
			<g>
				<path d="M59.1,3.4c-0.4-0.2-1-0.1-1.2,0.3l-2.5,4.4c-0.3,0.4-0.1,1,0.3,1.2c0,0,0,0,0,0l0,0c0.4,0.3,1,0.1,1.2-0.3c0,0,0,0,0,0
					l2.5-4.4C59.7,4.2,59.5,3.6,59.1,3.4z"/>
			</g>
		</g>
	</g>
	<path d="M36,20.7c0.6-1.5,1.4-2.9,2.6-4.1v0c4.5-4.5,11.7-4.5,16.2,0c4.5,4.5,4.5,11.7,0,16.2c-1.2,1.2-2.5,2-4,2.6
		c0.1,0.4,0.1,0.9,0.1,1.3c0.3,0.1,0.5,0.2,0.8,0.2c4.8-2,8.2-6.7,8.2-12.3c0-7.3-5.9-13.3-13.3-13.3c-5.9,0-10.8,3.8-12.6,9.1
		C34.8,20.6,35.4,20.7,36,20.7z"/>
</g>
<g id="Слой_9" class="st0">
	<g class="st1">
		<g>
			<path d="M68.1,12.4c-0.2-0.4-0.8-0.6-1.2-0.3l-4.4,2.5c-0.4,0.2-0.6,0.8-0.3,1.2c0.2,0.4,0.8,0.6,1.2,0.3l4.4-2.5
				C68.2,13.4,68.4,12.9,68.1,12.4z"/>
		</g>
	</g>
	<g class="st1">
		<g>
			<path d="M67.8,35.9l-4.4-2.5c-0.4-0.2-1-0.1-1.2,0.3s-0.1,1,0.3,1.2l4.4,2.5c0.4,0.2,1,0.1,1.2-0.3
				C68.4,36.7,68.2,36.2,67.8,35.9z"/>
		</g>
	</g>
	<g class="st1">
		<g>
			<path d="M30.9,14.6l-4.4-2.5c-0.4-0.2-1-0.1-1.2,0.3c-0.2,0.4-0.1,1,0.3,1.2l4.4,2.5c0.4,0.2,1,0.1,1.2-0.3
				C31.5,15.4,31.4,14.9,30.9,14.6z"/>
		</g>
	</g>
	<g class="st1">
		<g>
			<path d="M46.8,0c-0.5,0-0.9,0.3-1,0.8c0,0,0,0.1,0,0.1V6c0,0.5,0.4,0.9,0.9,0.9c0.5,0,0.9-0.4,0.9-0.9V1C47.7,0.5,47.3,0,46.8,0z
				"/>
		</g>
	</g>
	<g class="st1">
		<g>
			<path d="M38.1,8.1l-2.5-4.4c-0.2-0.4-0.8-0.6-1.2-0.3c-0.4,0.2-0.6,0.8-0.3,1.2L36.6,9c0.2,0.4,0.8,0.6,1.2,0.3
				C38.2,9.1,38.4,8.5,38.1,8.1z"/>
		</g>
	</g>
	<g class="st1">
		<g>
			<path d="M46.9,16.8c0,0-0.1,0-0.1,0c-4.4,0-8,3.6-8,8c0,0.5,0.4,0.9,0.9,0.9c0.5,0,0.9-0.4,0.9-0.9c0-3.4,2.8-6.2,6.2-6.2
				c0,0,0,0,0,0c0.5,0,0.9-0.3,1-0.8C47.7,17.2,47.4,16.8,46.9,16.8z"/>
		</g>
	</g>
	<g class="st1">
		<g>
			<path d="M71.4,24.7c0-0.4-0.4-0.8-0.8-0.8h-5.1c-0.5,0-0.9,0.3-1,0.8c0,0.5,0.3,0.9,0.8,1c0,0,0.1,0,0.1,0h5.1
				C71,25.6,71.4,25.2,71.4,24.7z"/>
		</g>
	</g>
	<g class="st1">
		<path d="M54.8,16.7c-4.5-4.5-11.7-4.5-16.2,0v0c-2.2,2.1-3.4,5.1-3.4,8.1c0,3,1.2,6,3.4,8.1c4.5,4.5,11.7,4.5,16.2,0
			C59.3,28.4,59.3,21.2,54.8,16.7z"/>
		<path d="M46.7,11.5c-7.3,0-13.3,5.9-13.3,13.3c0,3.5,1.4,6.9,3.9,9.4c2.5,2.5,5.9,3.9,9.4,3.9C54,38.1,60,32.1,60,24.8
			C60,17.5,54.1,11.5,46.7,11.5z M54.8,32.9c-4.5,4.5-11.7,4.5-16.2,0c-2.2-2.2-3.4-5.1-3.4-8.1c0-3,1.2-6,3.4-8.1v0
			c4.5-4.5,11.7-4.5,16.2,0C59.3,21.2,59.3,28.4,54.8,32.9z"/>
	</g>
	<g class="st1">
		<g>
			<path d="M59.4,45C59.4,45,59.4,45,59.4,45l-2.5-4.4c-0.2-0.4-0.8-0.6-1.2-0.3c-0.4,0.2-0.6,0.8-0.3,1.2l2.5,4.4
				c0.2,0.4,0.8,0.6,1.2,0.3C59.5,45.9,59.7,45.4,59.4,45z"/>
		</g>
	</g>
	<g class="st1">
		<g>
			<path d="M59.1,3.4c-0.4-0.2-1-0.1-1.2,0.3l-2.5,4.4c-0.3,0.4-0.1,1,0.3,1.2c0,0,0,0,0,0l0,0c0.4,0.3,1,0.1,1.2-0.3c0,0,0,0,0,0
				l2.5-4.4C59.7,4.2,59.5,3.6,59.1,3.4z"/>
		</g>
	</g>
</g>
<g id="Слой_4" class="st0">
	<path class="st1" d="M51,102.1c-0.5-9-7.9-16.2-16.9-16.2c-5.4,0-10.7,2.7-13.9,7c-0.1,0-0.2-0.1-0.2-0.1c-0.2-0.1-0.4-0.2-0.6-0.3
		c-0.1,0-0.2-0.1-0.3-0.1c-0.2-0.1-0.4-0.1-0.6-0.2c-0.1,0-0.2-0.1-0.3-0.1c-0.2-0.1-0.5-0.1-0.7-0.1c-0.1,0-0.2,0-0.3,0
		c-0.3,0-0.7-0.1-1-0.1c-5,0-9,4-9,9c0,0.1,0,0.3,0,0.4v0c-4.2,2.3-7,7-7,11.8c0,7.1,5.8,12.8,12.8,12.8h24.5c0.1,0,0.2,0,0.3,0
		l0.1,0l0.1,0c0.1,0,0.2,0,0.3,0H48c6.6,0,12-5.4,12-12C60,108.4,56.2,103.4,51,102.1z M48,123.9h-9.8c-0.1,0-0.1,0-0.2,0l-0.3,0
		l-0.2,0c-0.1,0-0.1,0-0.2,0H12.8C6.9,123.9,2,119,2,113c0-4.2,2.7-8.5,6.4-10.3l0.6-0.3v-0.6c0-0.1,0-0.3,0-0.4l0-0.2l0-0.2
		c0-0.1,0-0.2,0-0.2c0-3.9,3.1-7,7-7c0.3,0,0.6,0,0.9,0.1c0.1,0,0.2,0,0.2,0c0.3,0,0.5,0.1,0.8,0.2c0,0,0.1,0,0.1,0
		c0.3,0.1,0.6,0.2,0.8,0.3c0.1,0,0.1,0.1,0.2,0.1c0.2,0.1,0.5,0.2,0.7,0.4c1.9,1.2,3.2,3.4,3.2,5.9c0,0.6,0.4,1,1,1s1-0.4,1-1
		c0-2.8-1.2-5.2-3.2-6.9c2.9-3.8,7.6-6.1,12.3-6.1c7.7,0,14.2,6.1,14.8,13.9c-1-0.1-2.6-0.1-4.1,0.1c-0.5,0.1-0.9,0.6-0.8,1.1
		c0.1,0.5,0.5,0.8,1,0.8c0,0,0.1,0,0.2,0c2.2-0.3,4.5,0,4.7,0c4.7,0.9,8.2,5.2,8.2,10C58,119.4,53.5,123.9,48,123.9z"/>
</g>
<g id="Слой_2" class="st0">
	<path class="st1" d="M338,174.8c-0.5-9-7.9-16.2-16.9-16.2c-5.4,0-10.7,2.7-13.9,7c-0.1,0-0.2-0.1-0.2-0.1
		c-0.2-0.1-0.4-0.2-0.6-0.3c-0.1,0-0.2-0.1-0.3-0.1c-0.2-0.1-0.4-0.1-0.6-0.2c-0.1,0-0.2-0.1-0.3-0.1c-0.2-0.1-0.5-0.1-0.7-0.1
		c-0.1,0-0.2,0-0.3,0c-0.3,0-0.7-0.1-1-0.1c-5,0-9,4-9,9c0,0.1,0,0.3,0,0.4v0c-4.2,2.3-7,7-7,11.8c0,7.1,5.8,12.8,12.8,12.8h24.5
		c0.1,0,0.2,0,0.3,0l0.1,0l0.1,0c0.1,0,0.2,0,0.3,0h9.8c6.6,0,12-5.4,12-12C347,181.1,343.2,176.2,338,174.8z M335,196.6h-9.8
		c-0.1,0-0.1,0-0.2,0l-0.3,0l-0.2,0c-0.1,0-0.1,0-0.2,0h-24.5c-6,0-10.8-4.9-10.8-10.8c0-4.2,2.7-8.5,6.4-10.3l0.6-0.3v-0.6
		c0-0.1,0-0.3,0-0.4l0-0.2l0-0.2c0-0.1,0-0.2,0-0.2c0-3.9,3.1-7,7-7c0.3,0,0.6,0,0.9,0.1c0.1,0,0.2,0,0.2,0c0.3,0,0.5,0.1,0.8,0.2
		c0,0,0.1,0,0.1,0c0.3,0.1,0.6,0.2,0.8,0.3c0.1,0,0.1,0.1,0.2,0.1c0.2,0.1,0.5,0.2,0.7,0.4c1.9,1.2,3.2,3.4,3.2,5.9c0,0.6,0.4,1,1,1
		s1-0.4,1-1c0-2.8-1.2-5.2-3.2-6.9c2.9-3.8,7.6-6.1,12.3-6.1c7.7,0,14.2,6.1,14.8,13.9c-1-0.1-2.6-0.1-4.1,0.1
		c-0.5,0.1-0.9,0.6-0.8,1.1c0.1,0.5,0.5,0.8,1,0.8c0.1,0,0.1,0,0.2,0c2.2-0.3,4.5,0,4.7,0c4.7,0.9,8.2,5.2,8.2,10
		C345,192.1,340.5,196.6,335,196.6z"/>
</g>
</svg>
