<?xml version="1.0" encoding="utf-8"?>
<!-- Generator: Adobe Illustrator 21.0.0, SVG Export Plug-In . SVG Version: 6.00 Build 0)  -->
<svg version="1.1" xmlns="http://www.w3.org/2000/svg" xmlns:xlink="http://www.w3.org/1999/xlink" x="0px" y="0px"
	 viewBox="0 0 69.1 72.6" style="enable-background:new 0 0 69.1 72.6;" xml:space="preserve">
<style type="text/css">
	.st0{display:none;}
	.st1{display:inline;}
</style>
<g id="Слой_3" class="st0">
	<path class="st1" d="M62.8,20.5c-0.5-9-7.9-16.2-16.9-16.2c-5.4,0-10.7,2.7-13.9,7c-0.1,0-0.2-0.1-0.2-0.1
		c-0.2-0.1-0.4-0.2-0.6-0.3c-0.1,0-0.2-0.1-0.3-0.1c-0.2-0.1-0.4-0.1-0.6-0.2c-0.1,0-0.2-0.1-0.3-0.1c-0.2-0.1-0.5-0.1-0.7-0.1
		c-0.1,0-0.2,0-0.3,0c-0.3,0-0.7-0.1-1-0.1c-5,0-9,4-9,9c0,0.1,0,0.3,0,0.4v0c-0.4,0.2-0.8,0.5-1.2,0.8c0.1,0,0.3,0,0.4,0.1
		c0.1,0,0.2,0.1,0.3,0.1c0.2,0.1,0.4,0.1,0.6,0.2c0.1,0,0.2,0.1,0.3,0.1c0.2,0.1,0.4,0.2,0.6,0.3c0.1,0,0.1,0.1,0.2,0.1
		c0,0,0.1,0,0.1-0.1c0.2-0.3,0.4-0.5,0.6-0.8v-0.1c0-0.1,0-0.3,0-0.4l0-0.2l0-0.2c0-0.1,0-0.2,0-0.2c0-3.9,3.1-7,7-7
		c0.3,0,0.6,0,0.9,0.1c0.1,0,0.2,0,0.2,0c0.3,0,0.5,0.1,0.8,0.2c0,0,0.1,0,0.1,0c0.3,0.1,0.6,0.2,0.8,0.3c0.1,0,0.1,0.1,0.2,0.1
		c0.2,0.1,0.5,0.2,0.7,0.4c0.4,0.3,0.8,0.6,1.1,0.9c0.4,0,0.9-0.1,1.3-0.1c0.4,0,0.8,0,1.3,0.1c-0.5-0.7-1-1.4-1.7-1.9
		c2.9-3.8,7.6-6.1,12.3-6.1c7.7,0,14.2,6.1,14.8,13.9c-1-0.1-2.6-0.1-4.1,0.1c-0.5,0.1-0.9,0.6-0.8,1.1c0.1,0.5,0.5,0.8,1,0.8
		c0,0,0.1,0,0.2,0c2.2-0.3,4.5,0,4.7,0c4.7,0.9,8.2,5.2,8.2,10c0,5.5-4.4,9.9-9.8,10c0,0.7-0.1,1.4-0.2,2c6.6,0,12-5.4,12-12
		C71.8,26.8,68,21.8,62.8,20.5z"/>
</g>
<g id="Слой_6">
	<g>
		<path d="M18.7,55.5c-0.8-0.3-1.6,0.1-1.9,0.8l-1.6,3.9c-0.4,1,0.3,2,1.4,2c0.6,0,1.1-0.4,1.4-0.9l1.6-3.9
			C19.9,56.6,19.5,55.8,18.7,55.5z"/>
		<path d="M31.3,55.5c-0.8-0.3-1.6,0.1-1.9,0.8l-1.6,3.9c-0.4,1,0.3,2,1.4,2c0.6,0,1.1-0.4,1.4-0.9l1.6-3.9
			C32.5,56.6,32.1,55.8,31.3,55.5z"/>
		<path d="M23.5,65.7c-0.8-0.3-1.6,0.1-1.9,0.8l-1.6,4c-0.4,1,0.3,2,1.4,2c0.6,0,1.1-0.4,1.4-0.9l1.6-4C24.6,66.9,24.2,66,23.5,65.7
			L23.5,65.7z"/>
		<path d="M37.6,65.7c-0.8-0.3-1.6,0.1-1.9,0.8l-1.6,4c-0.4,1,0.3,2,1.4,2c0.6,0,1.1-0.4,1.4-0.9l1.6-4C38.7,66.9,38.4,66,37.6,65.7
			L37.6,65.7z"/>
		<path d="M43.9,55.5c-0.8-0.3-1.6,0.1-1.9,0.8l-1.6,3.9c-0.4,1,0.3,2,1.4,2c0.6,0,1.1-0.4,1.4-0.9l1.6-3.9
			C45,56.6,44.7,55.8,43.9,55.5L43.9,55.5z"/>
	</g>
</g>
<g id="Слой_11" class="st0">
	<g>
		<path class="st1" d="M22.8,52.6c-0.3-0.1-0.5-0.5-0.4-0.8l3.1-8.2l-10,13.2l4.8-1.4c0.1,0,0.3,0,0.4,0c0.3,0.1,0.5,0.5,0.3,0.8
			l-4,9l10.7-13.9l-4.5,1.4C23.1,52.7,22.9,52.7,22.8,52.6z"/>
		<path class="st1" d="M29.8,49.7c-0.2-0.1-0.4-0.2-0.6-0.1L24,51.1l4.1-11c0.1-0.3,0-0.6-0.3-0.8c-0.3-0.1-0.6-0.1-0.8,0.2
			l-13.7,18c-0.2,0.3-0.2,0.7,0.1,0.9c0.2,0.1,0.4,0.2,0.5,0.1l5.3-1.6l-5.5,12.5c-0.1,0.3,0,0.7,0.3,0.8c0.3,0.1,0.6,0,0.7-0.2
			l15-19.5C30.1,50.3,30,49.9,29.8,49.7z M17,65.2l4-9c0.1-0.3,0-0.7-0.3-0.8c-0.1-0.1-0.3-0.1-0.4,0l-4.8,1.4l10-13.2l-3.1,8.2
			c-0.1,0.3,0,0.7,0.4,0.8c0.1,0,0.3,0.1,0.4,0l4.5-1.4L17,65.2z"/>
	</g>
</g>
<g id="Слой_5">
	<path d="M68.9,25.4c-0.2-0.2-0.5-0.3-0.7-0.2c-6.4,1.9-13.1-1-16.1-6.9c-3-5.9-1.3-13.1,4-17.1c0.2-0.2,0.3-0.5,0.2-0.7
		S56,0,55.7,0c-3-0.2-6,0.4-8.7,1.8c-4.1,2-7.1,5.6-8.5,9.9c-0.3,1-0.6,2-0.7,3c0.4,0.1,0.9,0.2,1.3,0.4c0.6-5,3.7-9.6,8.5-12.1
		c2-1,4.1-1.5,6.3-1.7c-2.1,2-3.5,4.5-4.2,7.3c-0.8,3.5-0.4,7.1,1.2,10.3s4.3,5.7,7.6,7.1c2.7,1.1,5.6,1.4,8.4,1
		c-1.4,1.7-3.1,3.1-5,4c-2.1,1-4.3,1.6-6.4,1.7c0.5,0.4,0.9,0.8,1.4,1.3c2-0.2,3.9-0.8,5.7-1.7c2.7-1.4,5-3.4,6.6-6
		C69.1,26,69.1,25.7,68.9,25.4z"/>
	<g id="Слой_14" class="st0">
		<g>
			<g class="st1">
				<path d="M43.4,23.6c-0.1-0.2-0.3-0.5-0.4-0.7c-0.2-0.3-0.6-0.5-0.9-0.3c-0.3,0.2-0.5,0.6-0.3,0.9c0.1,0.3,0.3,0.5,0.4,0.8
					c0.2,0.3,0.6,0.4,0.9,0.3c0,0,0,0,0,0C43.5,24.4,43.6,24,43.4,23.6z"/>
			</g>
		</g>
		<g>
			<g class="st1">
				<path d="M53,30c-2.6-0.3-5-1.4-6.9-3.1c-0.3-0.2-0.7-0.2-1,0.1c-0.2,0.3-0.2,0.7,0.1,1c2.2,1.9,4.8,3.1,7.6,3.4
					c0.1,0,0.3,0,0.4-0.1c0.2-0.1,0.3-0.3,0.4-0.5C53.6,30.4,53.3,30,53,30z"/>
			</g>
		</g>
		<g>
			<g class="st1">
				<path d="M74.1,17.2h-1.9v-1.9c0-0.7-0.5-1.2-1.2-1.2s-1.2,0.5-1.2,1.2v1.9H68c-0.7,0-1.2,0.5-1.2,1.2c0,0.7,0.5,1.2,1.2,1.2h1.9
					v1.9c0,0.7,0.5,1.2,1.2,1.2s1.2-0.5,1.2-1.2v-1.9h1.9c0.7,0,1.2-0.5,1.2-1.2C75.3,17.8,74.8,17.2,74.1,17.2z"/>
			</g>
		</g>
		<g>
			<g class="st1">
				<path d="M62.9,28h-1.2v-1.2c0-0.7-0.5-1.2-1.2-1.2c-0.7,0-1.2,0.5-1.2,1.2V28h-1.2c-0.7,0-1.2,0.5-1.2,1.2
					c0,0.7,0.5,1.2,1.2,1.2h1.2v1.2c0,0.7,0.5,1.2,1.2,1.2c0.7,0,1.2-0.5,1.2-1.2v-1.2h1.2c0.7,0,1.2-0.5,1.2-1.2
					C64.1,28.6,63.6,28,62.9,28z"/>
			</g>
		</g>
		<g>
			<g class="st1">
				<path d="M75.8,33.5h-0.6v-0.6c0-0.7-0.5-1.2-1.2-1.2c-0.7,0-1.2,0.5-1.2,1.2v0.6h-0.6c-0.7,0-1.2,0.5-1.2,1.2s0.5,1.2,1.2,1.2
					h0.6v0.6c0,0.7,0.5,1.2,1.2,1.2s1.2-0.5,1.2-1.2v-0.6h0.6c0.7,0,1.2-0.5,1.2-1.2C77,34,76.4,33.5,75.8,33.5z"/>
			</g>
		</g>
	</g>
</g>
<g id="Слой_15" class="st0">
	<g class="st1">
		<g>
			<path d="M63,25.2c-6.4,1.9-13.1-1-16.1-6.9c-3-5.9-1.3-13.1,4-17.1c0.2-0.2,0.3-0.5,0.2-0.7C51.1,0.2,50.8,0,50.6,0
				c-3-0.2-6,0.4-8.7,1.8c-4.1,2-7.1,5.6-8.5,9.9c-1.4,4.3-1.1,8.9,1,13c2,4.1,5.6,7.1,9.9,8.5c4.3,1.4,8.9,1.1,13-1
				c2.7-1.4,5-3.4,6.6-6c0.2-0.2,0.1-0.5,0-0.8S63.3,25.1,63,25.2z M56.5,31c-7.7,3.9-17.2,0.8-21-6.9S34.7,6.9,42.4,3
				c2-1,4.1-1.6,6.3-1.7c-2.1,2-3.5,4.5-4.2,7.3c-0.8,3.5-0.4,7.1,1.2,10.3s4.3,5.7,7.6,7.1c2.7,1.1,5.6,1.4,8.4,1
				C60.2,28.6,58.5,30,56.5,31z"/>
		</g>
	</g>
	<g class="st1">
		<g>
			<path d="M38.2,23.6c-0.1-0.2-0.3-0.5-0.4-0.7c-0.2-0.3-0.6-0.5-0.9-0.3c-0.3,0.2-0.5,0.6-0.3,0.9c0.1,0.3,0.3,0.5,0.4,0.8
				c0.2,0.3,0.6,0.4,0.9,0.3c0,0,0,0,0,0C38.3,24.4,38.4,24,38.2,23.6z"/>
		</g>
	</g>
	<g class="st1">
		<g>
			<path d="M47.8,30c-2.6-0.3-5-1.4-6.9-3.1c-0.3-0.2-0.7-0.2-1,0.1c-0.2,0.3-0.2,0.7,0.1,1c2.2,1.9,4.8,3.1,7.6,3.4
				c0.1,0,0.3,0,0.4-0.1c0.2-0.1,0.3-0.3,0.4-0.5C48.4,30.4,48.2,30,47.8,30z"/>
		</g>
	</g>
</g>
<g id="Слой_13" class="st0">
	<g class="st1">
		<path d="M39.4,67c-0.3-0.1-0.5-0.5-0.4-0.8l2.9-8.4l-9.8,13.5l4.8-1.5c0.1,0,0.3,0,0.4,0c0.3,0.1,0.5,0.5,0.3,0.8l-3.8,9.2
			l10.5-14.3L39.8,67C39.6,67.1,39.5,67.1,39.4,67z"/>
		<path d="M24.6,65.3c-0.3-0.1-0.4-0.5-0.3-0.8l6.8-14.2l-7,2.3c-0.1,0-0.2,0-0.4,0c-0.3-0.1-0.5-0.4-0.4-0.8l2.5-9.6L13.3,58.7
			l8-2.6c0.2-0.1,0.3,0,0.5,0c0.3,0.2,0.4,0.5,0.3,0.8l-7.1,14l6.9-2.2c0.1,0,0.3,0,0.4,0c0.3,0.1,0.5,0.5,0.4,0.8l-4.7,14.8
			L30,63.7l-5,1.6C24.9,65.4,24.7,65.4,24.6,65.3z"/>
		<path d="M31.9,62.2c-0.2-0.2-0.4-0.3-0.7-0.2L26,63.7l6.8-14.2c0.1-0.3,0-0.7-0.3-0.8c-0.1-0.1-0.3-0.1-0.5,0L24.8,51l3.1-11.6
			c0.1-0.3-0.1-0.7-0.4-0.8c-0.2-0.1-0.5,0-0.7,0.2L11.1,59.6c-0.2,0.3-0.2,0.7,0.1,0.9c0.2,0.1,0.4,0.2,0.6,0.1l8.5-2.7l-7.1,14
			c-0.2,0.3,0,0.7,0.3,0.8c0.1,0.1,0.3,0.1,0.5,0l7.2-2.3l-6,18.9c-0.1,0.3,0.1,0.7,0.4,0.8c0.3,0.1,0.6,0,0.7-0.3l15.8-26.8
			C32.1,62.7,32,62.4,31.9,62.2z M17.9,84.4l4.7-14.8c0.1-0.3-0.1-0.7-0.4-0.8c-0.1,0-0.3,0-0.4,0L14.9,71L22,57
			c0.2-0.3,0-0.7-0.3-0.8c-0.1-0.1-0.3-0.1-0.5,0l-8,2.6l12.6-16.6l-2.5,9.6c-0.1,0.3,0.1,0.7,0.4,0.8c0.1,0,0.2,0,0.4,0l7-2.3
			l-6.8,14.2c-0.1,0.3,0,0.7,0.3,0.8c0.1,0.1,0.3,0.1,0.5,0l5-1.6L17.9,84.4z"/>
		<path d="M46.3,63.9c-0.2-0.1-0.4-0.2-0.6-0.1l-5.2,1.7l3.9-11.2c0.1-0.3,0-0.6-0.3-0.8c-0.3-0.1-0.6-0.1-0.8,0.2L30,72.2
			c-0.2,0.3-0.1,0.7,0.1,0.9c0.2,0.1,0.4,0.1,0.6,0.1l5.3-1.7l-5.2,12.7c-0.1,0.3,0,0.7,0.3,0.8c0.3,0.1,0.6,0,0.7-0.2l14.6-20
			C46.7,64.5,46.6,64.1,46.3,63.9z M33.8,79.9l3.8-9.2c0.1-0.3,0-0.7-0.3-0.8c-0.1-0.1-0.3-0.1-0.4,0l-4.8,1.5l9.8-13.5L39,66.2
			c-0.1,0.3,0.1,0.7,0.4,0.8c0.1,0,0.3,0,0.4,0l4.5-1.5L33.8,79.9z"/>
	</g>
</g>
<g id="Слой_12">
	<g>
		<path class="st0" d="M49.8,32.3c-0.1,0-2.5-0.3-4.7,0c-0.1,0-0.1,0-0.2,0c-0.5,0-0.9-0.4-1-0.8c-0.1-0.5,0.3-1.1,0.8-1.1
			c1.5-0.2,3.1-0.2,4.1-0.1c-0.7-7.8-7.1-13.9-14.8-13.9c-4.7,0-9.4,2.4-12.3,6.1c2,1.7,3.2,4.1,3.2,6.9c0,0.6-0.4,1-1,1s-1-0.4-1-1
			c0-2.5-1.3-4.6-3.2-5.9c-0.2-0.1-0.5-0.3-0.7-0.4c-0.1,0-0.1-0.1-0.2-0.1c-0.3-0.1-0.5-0.2-0.8-0.3c0,0-0.1,0-0.1,0
			c-0.3-0.1-0.5-0.1-0.8-0.2c-0.1,0-0.2,0-0.2,0c-0.3,0-0.6-0.1-0.9-0.1c-3.9,0-7,3.1-7,7c0,0.1,0,0.2,0,0.2l0,0.2l0,0.2
			c0,0.1,0,0.3,0,0.4v0.6l-0.6,0.3C4.7,33,2,37.3,2,41.4c0,6,4.9,10.8,10.8,10.8h24.5c0.1,0,0.1,0,0.2,0l0.2,0l0.3,0
			c0.1,0,0.1,0,0.2,0H48c5.5,0,10-4.5,10-10C58,37.4,54.5,33.1,49.8,32.3z"/>
		<path d="M51,30.5c-0.5-9-7.9-16.2-16.9-16.2c-5.4,0-10.7,2.7-13.9,7c-0.1,0-0.2-0.1-0.2-0.1c-0.2-0.1-0.4-0.2-0.6-0.3
			c-0.1,0-0.2-0.1-0.3-0.1c-0.2-0.1-0.4-0.1-0.6-0.2c-0.1,0-0.2-0.1-0.3-0.1c-0.2-0.1-0.5-0.1-0.7-0.1c-0.1,0-0.2,0-0.3,0
			c-0.3,0-0.7-0.1-1-0.1c-5,0-9,4-9,9c0,0.1,0,0.3,0,0.4v0c-4.2,2.3-7,7-7,11.8c0,7.1,5.8,12.8,12.8,12.8h24.5c0.1,0,0.2,0,0.3,0
			l0.1,0l0.1,0c0.1,0,0.2,0,0.3,0H48c6.6,0,12-5.4,12-12C60,36.8,56.2,31.8,51,30.5z M48,52.3h-9.8c-0.1,0-0.1,0-0.2,0l-0.3,0
			l-0.2,0c-0.1,0-0.1,0-0.2,0H12.8C6.9,52.3,2,47.4,2,41.4c0-4.2,2.7-8.5,6.4-10.3L9,30.9v-0.6c0-0.1,0-0.3,0-0.4l0-0.2l0-0.2
			c0-0.1,0-0.2,0-0.2c0-3.9,3.1-7,7-7c0.3,0,0.6,0,0.9,0.1c0.1,0,0.2,0,0.2,0c0.3,0,0.5,0.1,0.8,0.2c0,0,0.1,0,0.1,0
			c0.3,0.1,0.6,0.2,0.8,0.3c0.1,0,0.1,0.1,0.2,0.1c0.2,0.1,0.5,0.2,0.7,0.4c1.9,1.2,3.2,3.4,3.2,5.9c0,0.6,0.4,1,1,1s1-0.4,1-1
			c0-2.8-1.2-5.2-3.2-6.9c2.9-3.8,7.6-6.1,12.3-6.1c7.7,0,14.2,6.1,14.8,13.9c-1-0.1-2.6-0.1-4.1,0.1c-0.5,0.1-0.9,0.6-0.8,1.1
			c0.1,0.5,0.5,0.8,1,0.8c0,0,0.1,0,0.2,0c2.2-0.3,4.5,0,4.7,0c4.7,0.9,8.2,5.2,8.2,10C58,47.8,53.5,52.3,48,52.3z"/>
	</g>
</g>
<g id="Слой_7" class="st0">
	<g class="st1">
		<path class="st0" d="M25,55.5c-0.8-0.3-1.6,0.1-1.9,0.8l-1.6,3.9c-0.4,1,0.3,2,1.4,2c0.6,0,1.1-0.4,1.4-0.9l1.6-3.9
			C26.2,56.6,25.8,55.8,25,55.5z"/>
		<path class="st0" d="M37.6,55.5c-0.8-0.3-1.6,0.1-1.9,0.8l-1.6,3.9c-0.4,1,0.3,2,1.4,2c0.6,0,1.1-0.4,1.4-0.9l1.6-3.9
			C38.8,56.6,38.4,55.8,37.6,55.5z"/>
		<path class="st0" d="M29.7,65.7c-0.8-0.3-1.6,0.1-1.9,0.8l-1.6,4c-0.4,1,0.3,2,1.4,2c0.6,0,1.1-0.4,1.4-0.9l1.6-4
			C30.9,66.9,30.5,66,29.7,65.7L29.7,65.7z"/>
		<path d="M43.9,65.7c-0.8-0.3-1.6,0.1-1.9,0.8l-1.6,4c-0.4,1,0.3,2,1.4,2c0.6,0,1.1-0.4,1.4-0.9l1.6-4C45,66.9,44.7,66,43.9,65.7
			L43.9,65.7z"/>
		<path d="M50.2,55.5c-0.8-0.3-1.6,0.1-1.9,0.8l-1.6,3.9c-0.4,1,0.3,2,1.4,2c0.6,0,1.1-0.4,1.4-0.9l1.6-3.9
			C51.3,56.6,51,55.8,50.2,55.5L50.2,55.5z"/>
	</g>
</g>
<g id="Слой_8" class="st0">
	<g class="st1">
		<g>
			<path d="M68.1,6.1c-0.2-0.4-0.8-0.6-1.2-0.3l-4.4,2.5c-0.4,0.2-0.6,0.8-0.3,1.2c0.2,0.4,0.8,0.6,1.2,0.3l4.4-2.5
				C68.2,7.1,68.4,6.5,68.1,6.1z"/>
		</g>
	</g>
	<g class="st1">
		<g>
			<path d="M67.8,29.6L63.4,27c-0.4-0.2-1-0.1-1.2,0.3s-0.1,1,0.3,1.2l4.4,2.5c0.4,0.2,1,0.1,1.2-0.3C68.4,30.4,68.2,29.8,67.8,29.6
				z"/>
		</g>
	</g>
	<g>
		<g class="st1">
			<path d="M46.8,36.2c-0.5,0-0.9,0.3-1,0.8c0,0,0,0.1,0,0.1v5.1c0,0.5,0.3,0.9,0.8,1c0.5,0,0.9-0.3,1-0.8c0,0,0-0.1,0-0.1v-5.1
				C47.7,36.7,47.3,36.2,46.8,36.2z"/>
		</g>
	</g>
	<g class="st1">
		<g>
			<path d="M30.9,8.3l-4.4-2.5c-0.4-0.2-1-0.1-1.2,0.3s-0.1,1,0.3,1.2L30,9.8c0.4,0.2,1,0.1,1.2-0.3C31.5,9.1,31.4,8.5,30.9,8.3z"/>
		</g>
	</g>
	<g class="st1">
		<g>
			<path d="M46.8-6.3c-0.5,0-0.9,0.3-1,0.8c0,0,0,0.1,0,0.1v5.1c0,0.5,0.4,0.9,0.9,0.9c0.5,0,0.9-0.4,0.9-0.9v-5.1
				C47.7-5.9,47.3-6.3,46.8-6.3z"/>
		</g>
	</g>
	<g class="st1">
		<g>
			<path d="M38.1,1.8l-2.5-4.4c-0.2-0.4-0.8-0.6-1.2-0.3c-0.4,0.2-0.6,0.8-0.3,1.2l2.5,4.4c0.2,0.4,0.8,0.6,1.2,0.3
				C38.2,2.7,38.4,2.2,38.1,1.8z"/>
		</g>
	</g>
	<g class="st1">
		<g>
			<path d="M46.9,10.4c0,0-0.1,0-0.1,0c-4.4,0-8,3.6-8,8c0,0.5,0.4,0.9,0.9,0.9c0.5,0,0.9-0.4,0.9-0.9c0-3.4,2.8-6.2,6.2-6.2
				c0,0,0,0,0,0c0.5,0,0.9-0.3,1-0.8C47.7,10.9,47.4,10.5,46.9,10.4z"/>
		</g>
	</g>
	<g class="st1">
		<g>
			<path d="M71.4,18.4c0-0.4-0.4-0.8-0.8-0.8h-5.1c-0.5,0-0.9,0.3-1,0.8c0,0.5,0.3,0.9,0.8,1c0,0,0.1,0,0.1,0h5.1
				C71,19.3,71.4,18.9,71.4,18.4z"/>
		</g>
	</g>
	<g>
		<g class="st1">
			<path d="M28.1,17.5c0,0-0.1,0-0.1,0h-5.1c-0.5,0-0.9,0.5-0.8,1c0,0.4,0.4,0.8,0.8,0.8H28c0.5,0,0.9-0.3,1-0.8
				C29,18,28.6,17.6,28.1,17.5z"/>
		</g>
	</g>
	<g class="st1">
		<path d="M54.8,10.3c-4.5-4.5-11.7-4.5-16.2,0v0c-2.2,2.1-3.4,5.1-3.4,8.1c0,3,1.2,6,3.4,8.1c4.5,4.5,11.7,4.5,16.2,0
			C59.3,22.1,59.3,14.8,54.8,10.3z"/>
		<path d="M46.7,5.2c-7.3,0-13.3,5.9-13.3,13.3c0,3.5,1.4,6.9,3.9,9.4c2.5,2.5,5.9,3.9,9.4,3.9C54,31.7,60,25.8,60,18.4
			C60,11.1,54.1,5.2,46.7,5.2z M54.8,26.6c-4.5,4.5-11.7,4.5-16.2,0c-2.2-2.2-3.4-5.1-3.4-8.1c0-3,1.2-6,3.4-8.1v0
			c4.5-4.5,11.7-4.5,16.2,0C59.3,14.8,59.3,22.1,54.8,26.6z"/>
	</g>
	<g class="st1">
		<g>
			<path d="M59.4,38.6C59.4,38.6,59.4,38.6,59.4,38.6l-2.5-4.4c-0.2-0.4-0.8-0.6-1.2-0.3c-0.4,0.2-0.6,0.8-0.3,1.2l2.5,4.4
				c0.2,0.4,0.8,0.6,1.2,0.3C59.5,39.6,59.7,39,59.4,38.6z"/>
		</g>
	</g>
	<g class="st1">
		<g>
			<path d="M59.1-3c-0.4-0.2-1-0.1-1.2,0.3l-2.5,4.4c-0.3,0.4-0.1,1,0.3,1.2c0,0,0,0,0,0l0,0c0.4,0.3,1,0.1,1.2-0.3c0,0,0,0,0,0
				l2.5-4.4C59.7-2.2,59.5-2.7,59.1-3z"/>
		</g>
	</g>
	<g>
		<g class="st1">
			<path d="M37.8,33.9c-0.4-0.2-1-0.1-1.2,0.3L34,38.6c-0.2,0.4-0.1,1,0.3,1.2c0.4,0.2,1,0.1,1.2-0.3l2.5-4.4
				C38.4,34.7,38.2,34.1,37.8,33.9z"/>
		</g>
	</g>
	<g>
		<g class="st1">
			<path d="M31.3,27.4C31,26.9,30.5,26.8,30,27l-4.4,2.5c-0.4,0.2-0.6,0.8-0.3,1.2c0.2,0.4,0.8,0.6,1.2,0.3l4.4-2.5
				C31.4,28.3,31.5,27.8,31.3,27.4z"/>
		</g>
	</g>
</g>
<g id="Capa_1" class="st0">
	<path class="st1" d="M51,30.5c-0.5-9-7.9-16.2-16.9-16.2c-5.4,0-10.7,2.7-13.9,7c-0.1,0-0.2-0.1-0.2-0.1c-0.2-0.1-0.4-0.2-0.6-0.3
		c-0.1,0-0.2-0.1-0.3-0.1c-0.2-0.1-0.4-0.1-0.6-0.2c-0.1,0-0.2-0.1-0.3-0.1c-0.2-0.1-0.5-0.1-0.7-0.1c-0.1,0-0.2,0-0.3,0
		c-0.3,0-0.7-0.1-1-0.1c-5,0-9,4-9,9c0,0.1,0,0.3,0,0.4v0c-4.2,2.3-7,7-7,11.8c0,7.1,5.8,12.8,12.8,12.8h24.5c0.1,0,0.2,0,0.3,0
		l0.1,0l0.1,0c0.1,0,0.2,0,0.3,0H48c6.6,0,12-5.4,12-12C60,36.8,56.2,31.8,51,30.5z M48,52.3h-9.8c-0.1,0-0.1,0-0.2,0l-0.3,0l-0.2,0
		c-0.1,0-0.1,0-0.2,0H12.8C6.9,52.3,2,47.4,2,41.4c0-4.2,2.7-8.5,6.4-10.3L9,30.9v-0.6c0-0.1,0-0.3,0-0.4l0-0.2l0-0.2
		c0-0.1,0-0.2,0-0.2c0-3.9,3.1-7,7-7c0.3,0,0.6,0,0.9,0.1c0.1,0,0.2,0,0.2,0c0.3,0,0.5,0.1,0.8,0.2c0,0,0.1,0,0.1,0
		c0.3,0.1,0.6,0.2,0.8,0.3c0.1,0,0.1,0.1,0.2,0.1c0.2,0.1,0.5,0.2,0.7,0.4c1.9,1.2,3.2,3.4,3.2,5.9c0,0.6,0.4,1,1,1s1-0.4,1-1
		c0-2.8-1.2-5.2-3.2-6.9c2.9-3.8,7.6-6.1,12.3-6.1c7.7,0,14.2,6.1,14.8,13.9c-1-0.1-2.6-0.1-4.1,0.1c-0.5,0.1-0.9,0.6-0.8,1.1
		c0.1,0.5,0.5,0.9,1,0.9c0,0,0.1,0,0.2,0c2.2-0.3,4.5,0,4.7,0c4.7,0.9,8.2,5.2,8.2,10C58,47.8,53.5,52.3,48,52.3z"/>
</g>
<g id="Слой_10" class="st0">
	<g class="st1">
		<g>
			<g>
				<path d="M68.1,6.1c-0.2-0.4-0.8-0.6-1.2-0.3l-4.4,2.5c-0.4,0.2-0.6,0.8-0.3,1.2c0.2,0.4,0.8,0.6,1.2,0.3l4.4-2.5
					C68.2,7.1,68.4,6.5,68.1,6.1z"/>
			</g>
		</g>
		<g>
			<g>
				<path d="M67.8,29.6L63.4,27c-0.4-0.2-1-0.1-1.2,0.3s-0.1,1,0.3,1.2l4.4,2.5c0.4,0.2,1,0.1,1.2-0.3
					C68.4,30.4,68.2,29.8,67.8,29.6z"/>
			</g>
		</g>
		<g>
			<g>
				<path d="M30.9,8.3l-4.4-2.5c-0.4-0.2-1-0.1-1.2,0.3s-0.1,1,0.3,1.2L30,9.8c0.4,0.2,1,0.1,1.2-0.3C31.5,9.1,31.4,8.5,30.9,8.3z"
					/>
			</g>
		</g>
		<g>
			<g>
				<path d="M46.8-6.3c-0.5,0-0.9,0.3-1,0.8c0,0,0,0.1,0,0.1v5.1c0,0.5,0.4,0.9,0.9,0.9c0.5,0,0.9-0.4,0.9-0.9v-5.1
					C47.7-5.9,47.3-6.3,46.8-6.3z"/>
			</g>
		</g>
		<g>
			<g>
				<path d="M38.1,1.8l-2.5-4.4c-0.2-0.4-0.8-0.6-1.2-0.3c-0.4,0.2-0.6,0.8-0.3,1.2l2.5,4.4c0.2,0.4,0.8,0.6,1.2,0.3
					C38.2,2.7,38.4,2.2,38.1,1.8z"/>
			</g>
		</g>
		<g class="st0">
			<g class="st1">
				<path d="M46.9,10.4c0,0-0.1,0-0.1,0c-4.4,0-8,3.6-8,8c0,0.5,0.4,0.9,0.9,0.9c0.5,0,0.9-0.4,0.9-0.9c0-3.4,2.8-6.2,6.2-6.2
					c0,0,0,0,0,0c0.5,0,0.9-0.3,1-0.8C47.7,10.9,47.4,10.5,46.9,10.4z"/>
			</g>
		</g>
		<g>
			<g>
				<path d="M71.4,18.4c0-0.4-0.4-0.8-0.8-0.8h-5.1c-0.5,0-0.9,0.3-1,0.8c0,0.5,0.3,0.9,0.8,1c0,0,0.1,0,0.1,0h5.1
					C71,19.3,71.4,18.9,71.4,18.4z"/>
			</g>
		</g>
		<g>
			<g>
				<path d="M59.4,38.6C59.4,38.6,59.4,38.6,59.4,38.6l-2.5-4.4c-0.2-0.4-0.8-0.6-1.2-0.3c-0.4,0.2-0.6,0.8-0.3,1.2l2.5,4.4
					c0.2,0.4,0.8,0.6,1.2,0.3C59.5,39.6,59.7,39,59.4,38.6z"/>
			</g>
		</g>
		<g>
			<g>
				<path d="M59.1-3c-0.4-0.2-1-0.1-1.2,0.3l-2.5,4.4c-0.3,0.4-0.1,1,0.3,1.2c0,0,0,0,0,0l0,0c0.4,0.3,1,0.1,1.2-0.3c0,0,0,0,0,0
					l2.5-4.4C59.7-2.2,59.5-2.7,59.1-3z"/>
			</g>
		</g>
	</g>
	<path class="st1" d="M36,14.4c0.6-1.5,1.4-2.9,2.6-4.1v0c4.5-4.5,11.7-4.5,16.2,0c4.5,4.5,4.5,11.7,0,16.2c-1.2,1.2-2.5,2-4,2.6
		c0.1,0.4,0.1,0.9,0.1,1.3c0.3,0.1,0.5,0.2,0.8,0.2c4.8-2,8.2-6.7,8.2-12.3c0-7.3-5.9-13.3-13.3-13.3c-5.9,0-10.8,3.8-12.6,9.1
		C34.8,14.3,35.4,14.3,36,14.4z"/>
</g>
<g id="Слой_9" class="st0">
	<g class="st1">
		<g>
			<path d="M68.1,6.1c-0.2-0.4-0.8-0.6-1.2-0.3l-4.4,2.5c-0.4,0.2-0.6,0.8-0.3,1.2c0.2,0.4,0.8,0.6,1.2,0.3l4.4-2.5
				C68.2,7.1,68.4,6.5,68.1,6.1z"/>
		</g>
	</g>
	<g class="st1">
		<g>
			<path d="M67.8,29.6L63.4,27c-0.4-0.2-1-0.1-1.2,0.3s-0.1,1,0.3,1.2l4.4,2.5c0.4,0.2,1,0.1,1.2-0.3C68.4,30.4,68.2,29.8,67.8,29.6
				z"/>
		</g>
	</g>
	<g class="st1">
		<g>
			<path d="M30.9,8.3l-4.4-2.5c-0.4-0.2-1-0.1-1.2,0.3s-0.1,1,0.3,1.2L30,9.8c0.4,0.2,1,0.1,1.2-0.3C31.5,9.1,31.4,8.5,30.9,8.3z"/>
		</g>
	</g>
	<g class="st1">
		<g>
			<path d="M46.8-6.3c-0.5,0-0.9,0.3-1,0.8c0,0,0,0.1,0,0.1v5.1c0,0.5,0.4,0.9,0.9,0.9c0.5,0,0.9-0.4,0.9-0.9v-5.1
				C47.7-5.9,47.3-6.3,46.8-6.3z"/>
		</g>
	</g>
	<g class="st1">
		<g>
			<path d="M38.1,1.8l-2.5-4.4c-0.2-0.4-0.8-0.6-1.2-0.3c-0.4,0.2-0.6,0.8-0.3,1.2l2.5,4.4c0.2,0.4,0.8,0.6,1.2,0.3
				C38.2,2.7,38.4,2.2,38.1,1.8z"/>
		</g>
	</g>
	<g class="st1">
		<g>
			<path d="M46.9,10.4c0,0-0.1,0-0.1,0c-4.4,0-8,3.6-8,8c0,0.5,0.4,0.9,0.9,0.9c0.5,0,0.9-0.4,0.9-0.9c0-3.4,2.8-6.2,6.2-6.2
				c0,0,0,0,0,0c0.5,0,0.9-0.3,1-0.8C47.7,10.9,47.4,10.5,46.9,10.4z"/>
		</g>
	</g>
	<g class="st1">
		<g>
			<path d="M71.4,18.4c0-0.4-0.4-0.8-0.8-0.8h-5.1c-0.5,0-0.9,0.3-1,0.8c0,0.5,0.3,0.9,0.8,1c0,0,0.1,0,0.1,0h5.1
				C71,19.3,71.4,18.9,71.4,18.4z"/>
		</g>
	</g>
	<g class="st1">
		<path d="M54.8,10.3c-4.5-4.5-11.7-4.5-16.2,0v0c-2.2,2.1-3.4,5.1-3.4,8.1c0,3,1.2,6,3.4,8.1c4.5,4.5,11.7,4.5,16.2,0
			C59.3,22.1,59.3,14.8,54.8,10.3z"/>
		<path d="M46.7,5.2c-7.3,0-13.3,5.9-13.3,13.3c0,3.5,1.4,6.9,3.9,9.4c2.5,2.5,5.9,3.9,9.4,3.9C54,31.7,60,25.8,60,18.4
			C60,11.1,54.1,5.2,46.7,5.2z M54.8,26.6c-4.5,4.5-11.7,4.5-16.2,0c-2.2-2.2-3.4-5.1-3.4-8.1c0-3,1.2-6,3.4-8.1v0
			c4.5-4.5,11.7-4.5,16.2,0C59.3,14.8,59.3,22.1,54.8,26.6z"/>
	</g>
	<g class="st1">
		<g>
			<path d="M59.4,38.6C59.4,38.6,59.4,38.6,59.4,38.6l-2.5-4.4c-0.2-0.4-0.8-0.6-1.2-0.3c-0.4,0.2-0.6,0.8-0.3,1.2l2.5,4.4
				c0.2,0.4,0.8,0.6,1.2,0.3C59.5,39.6,59.7,39,59.4,38.6z"/>
		</g>
	</g>
	<g class="st1">
		<g>
			<path d="M59.1-3c-0.4-0.2-1-0.1-1.2,0.3l-2.5,4.4c-0.3,0.4-0.1,1,0.3,1.2c0,0,0,0,0,0l0,0c0.4,0.3,1,0.1,1.2-0.3c0,0,0,0,0,0
				l2.5-4.4C59.7-2.2,59.5-2.7,59.1-3z"/>
		</g>
	</g>
</g>
<g id="Слой_4" class="st0">
	<path class="st1" d="M51,95.7c-0.5-9-7.9-16.2-16.9-16.2c-5.4,0-10.7,2.7-13.9,7c-0.1,0-0.2-0.1-0.2-0.1c-0.2-0.1-0.4-0.2-0.6-0.3
		c-0.1,0-0.2-0.1-0.3-0.1c-0.2-0.1-0.4-0.1-0.6-0.2c-0.1,0-0.2-0.1-0.3-0.1c-0.2-0.1-0.5-0.1-0.7-0.1c-0.1,0-0.2,0-0.3,0
		c-0.3,0-0.7-0.1-1-0.1c-5,0-9,4-9,9c0,0.1,0,0.3,0,0.4v0c-4.2,2.3-7,7-7,11.8c0,7.1,5.8,12.8,12.8,12.8h24.5c0.1,0,0.2,0,0.3,0
		l0.1,0l0.1,0c0.1,0,0.2,0,0.3,0H48c6.6,0,12-5.4,12-12C60,102,56.2,97.1,51,95.7z M48,117.5h-9.8c-0.1,0-0.1,0-0.2,0l-0.3,0l-0.2,0
		c-0.1,0-0.1,0-0.2,0H12.8c-6,0-10.8-4.9-10.8-10.8c0-4.2,2.7-8.5,6.4-10.3L9,96.2v-0.6c0-0.1,0-0.3,0-0.4L9,95l0-0.2
		c0-0.1,0-0.2,0-0.2c0-3.9,3.1-7,7-7c0.3,0,0.6,0,0.9,0.1c0.1,0,0.2,0,0.2,0c0.3,0,0.5,0.1,0.8,0.2c0,0,0.1,0,0.1,0
		c0.3,0.1,0.6,0.2,0.8,0.3c0.1,0,0.1,0.1,0.2,0.1c0.2,0.1,0.5,0.2,0.7,0.4c1.9,1.2,3.2,3.4,3.2,5.9c0,0.6,0.4,1,1,1s1-0.4,1-1
		c0-2.8-1.2-5.2-3.2-6.9c2.9-3.8,7.6-6.1,12.3-6.1c7.7,0,14.2,6.1,14.8,13.9c-1-0.1-2.6-0.1-4.1,0.1c-0.5,0.1-0.9,0.6-0.8,1.1
		c0.1,0.5,0.5,0.8,1,0.8c0,0,0.1,0,0.2,0c2.2-0.3,4.5,0,4.7,0c4.7,0.9,8.2,5.2,8.2,10C58,113,53.5,117.5,48,117.5z"/>
</g>
<g id="Слой_2" class="st0">
	<path class="st1" d="M338,168.5c-0.5-9-7.9-16.2-16.9-16.2c-5.4,0-10.7,2.7-13.9,7c-0.1,0-0.2-0.1-0.2-0.1
		c-0.2-0.1-0.4-0.2-0.6-0.3c-0.1,0-0.2-0.1-0.3-0.1c-0.2-0.1-0.4-0.1-0.6-0.2c-0.1,0-0.2-0.1-0.3-0.1c-0.2-0.1-0.5-0.1-0.7-0.1
		c-0.1,0-0.2,0-0.3,0c-0.3,0-0.7-0.1-1-0.1c-5,0-9,4-9,9c0,0.1,0,0.3,0,0.4v0c-4.2,2.3-7,7-7,11.8c0,7.1,5.8,12.8,12.8,12.8h24.5
		c0.1,0,0.2,0,0.3,0l0.1,0l0.1,0c0.1,0,0.2,0,0.3,0h9.8c6.6,0,12-5.4,12-12C347,174.8,343.2,169.8,338,168.5z M335,190.3h-9.8
		c-0.1,0-0.1,0-0.2,0l-0.3,0l-0.2,0c-0.1,0-0.1,0-0.2,0h-24.5c-6,0-10.8-4.9-10.8-10.8c0-4.2,2.7-8.5,6.4-10.3l0.6-0.3v-0.6
		c0-0.1,0-0.3,0-0.4l0-0.2l0-0.2c0-0.1,0-0.2,0-0.2c0-3.9,3.1-7,7-7c0.3,0,0.6,0,0.9,0.1c0.1,0,0.2,0,0.2,0c0.3,0,0.5,0.1,0.8,0.2
		c0,0,0.1,0,0.1,0c0.3,0.1,0.6,0.2,0.8,0.3c0.1,0,0.1,0.1,0.2,0.1c0.2,0.1,0.5,0.2,0.7,0.4c1.9,1.2,3.2,3.4,3.2,5.9c0,0.6,0.4,1,1,1
		s1-0.4,1-1c0-2.8-1.2-5.2-3.2-6.9c2.9-3.8,7.6-6.1,12.3-6.1c7.7,0,14.2,6.1,14.8,13.9c-1-0.1-2.6-0.1-4.1,0.1
		c-0.5,0.1-0.9,0.6-0.8,1.1c0.1,0.5,0.5,0.8,1,0.8c0.1,0,0.1,0,0.2,0c2.2-0.3,4.5,0,4.7,0c4.7,0.9,8.2,5.2,8.2,10
		C345,185.8,340.5,190.3,335,190.3z"/>
</g>
</svg>
