<?xml version="1.0" encoding="utf-8"?>
<!-- Generator: Adobe Illustrator 21.0.0, SVG Export Plug-In . SVG Version: 6.00 Build 0)  -->
<svg version="1.1" xmlns="http://www.w3.org/2000/svg" xmlns:xlink="http://www.w3.org/1999/xlink" x="0px" y="0px"
	 viewBox="0 0 60 40" style="enable-background:new 0 0 60 40;" xml:space="preserve">
<style type="text/css">
	.st0{display:none;}
	.st1{display:inline;}
</style>
<g id="Слой_3" class="st0">
	<path class="st1" d="M62.8,6.2C62.3-2.8,54.9-10,45.9-10C40.5-10,35.2-7.3,32-3c-0.1,0-0.2-0.1-0.2-0.1c-0.2-0.1-0.4-0.2-0.6-0.3
		c-0.1,0-0.2-0.1-0.3-0.1c-0.2-0.1-0.4-0.1-0.6-0.2c-0.1,0-0.2-0.1-0.3-0.1c-0.2-0.1-0.5-0.1-0.7-0.1c-0.1,0-0.2,0-0.3,0
		c-0.3,0-0.7-0.1-1-0.1c-5,0-9,4-9,9c0,0.1,0,0.3,0,0.4v0c-0.4,0.2-0.8,0.5-1.2,0.8c0.1,0,0.3,0,0.4,0.1c0.1,0,0.2,0.1,0.3,0.1
		c0.2,0.1,0.4,0.1,0.6,0.2c0.1,0,0.2,0.1,0.3,0.1c0.2,0.1,0.4,0.2,0.6,0.3C20,6.9,20,7,20.1,7c0,0,0.1,0,0.1-0.1
		c0.2-0.3,0.4-0.5,0.6-0.8V6c0-0.1,0-0.3,0-0.4l0-0.2l0-0.2c0-0.1,0-0.2,0-0.2c0-3.9,3.1-7,7-7c0.3,0,0.6,0,0.9,0.1
		c0.1,0,0.2,0,0.2,0c0.3,0,0.5,0.1,0.8,0.2c0,0,0.1,0,0.1,0c0.3,0.1,0.6,0.2,0.8,0.3c0.1,0,0.1,0.1,0.2,0.1c0.2,0.1,0.5,0.2,0.7,0.4
		c0.4,0.3,0.8,0.6,1.1,0.9C33.2,0,33.6,0,34.1,0c0.4,0,0.8,0,1.3,0.1c-0.5-0.7-1-1.4-1.7-1.9C36.5-5.6,41.2-8,45.9-8
		c7.7,0,14.2,6.1,14.8,13.9c-1-0.1-2.6-0.1-4.1,0.1c-0.5,0.1-0.9,0.6-0.8,1.1c0.1,0.5,0.5,0.8,1,0.8c0,0,0.1,0,0.2,0
		c2.2-0.3,4.5,0,4.7,0c4.7,0.9,8.2,5.2,8.2,10c0,5.5-4.4,9.9-9.8,10c0,0.7-0.1,1.4-0.2,2c6.6,0,12-5.4,12-12
		C71.8,12.5,68,7.6,62.8,6.2z"/>
</g>
<g id="Слой_6" class="st0">
	<g class="st1">
		<path d="M18.7,41.2c-0.8-0.3-1.6,0.1-1.9,0.8L15.3,46c-0.4,1,0.3,2,1.4,2c0.6,0,1.1-0.4,1.4-0.9l1.6-3.9
			C19.9,42.4,19.5,41.5,18.7,41.2z"/>
		<path d="M31.3,41.2c-0.8-0.3-1.6,0.1-1.9,0.8L27.8,46c-0.4,1,0.3,2,1.4,2c0.6,0,1.1-0.4,1.4-0.9l1.6-3.9
			C32.5,42.4,32.1,41.5,31.3,41.2z"/>
		<path d="M23.5,51.4c-0.8-0.3-1.6,0.1-1.9,0.8l-1.6,4c-0.4,1,0.3,2,1.4,2c0.6,0,1.1-0.4,1.4-0.9l1.6-4
			C24.6,52.6,24.2,51.7,23.5,51.4L23.5,51.4z"/>
		<path d="M37.6,51.4c-0.8-0.3-1.6,0.1-1.9,0.8l-1.6,4c-0.4,1,0.3,2,1.4,2c0.6,0,1.1-0.4,1.4-0.9l1.6-4
			C38.7,52.6,38.4,51.7,37.6,51.4L37.6,51.4z"/>
		<path d="M43.9,41.2c-0.8-0.3-1.6,0.1-1.9,0.8L40.4,46c-0.4,1,0.3,2,1.4,2c0.6,0,1.1-0.4,1.4-0.9l1.6-3.9
			C45,42.4,44.7,41.5,43.9,41.2L43.9,41.2z"/>
	</g>
</g>
<g id="Слой_11" class="st0">
	<g>
		<path class="st1" d="M22.8,38.4c-0.3-0.1-0.5-0.5-0.4-0.8l3.1-8.2l-10,13.2l4.8-1.4c0.1,0,0.3,0,0.4,0c0.3,0.1,0.5,0.5,0.3,0.8
			l-4,9L27.7,37l-4.5,1.4C23.1,38.4,22.9,38.4,22.8,38.4z"/>
		<path class="st1" d="M29.8,35.4c-0.2-0.1-0.4-0.2-0.6-0.1L24,36.8l4.1-11c0.1-0.3,0-0.6-0.3-0.8c-0.3-0.1-0.6-0.1-0.8,0.2
			l-13.7,18c-0.2,0.3-0.2,0.7,0.1,0.9c0.2,0.1,0.4,0.2,0.5,0.1l5.3-1.6l-5.5,12.5c-0.1,0.3,0,0.7,0.3,0.8c0.3,0.1,0.6,0,0.7-0.2
			l15-19.5C30.1,36,30,35.6,29.8,35.4z M17,51l4-9c0.1-0.3,0-0.7-0.3-0.8c-0.1-0.1-0.3-0.1-0.4,0l-4.8,1.4l10-13.2l-3.1,8.2
			c-0.1,0.3,0,0.7,0.4,0.8c0.1,0,0.3,0.1,0.4,0l4.5-1.4L17,51z"/>
	</g>
</g>
<g id="Слой_13" class="st0">
	<g class="st1">
		<path d="M39.4,52.8c-0.3-0.1-0.5-0.5-0.4-0.8l2.9-8.4l-9.8,13.5l4.8-1.5c0.1,0,0.3,0,0.4,0c0.3,0.1,0.5,0.5,0.3,0.8l-3.8,9.2
			l10.5-14.3l-4.5,1.5C39.6,52.8,39.5,52.8,39.4,52.8z"/>
		<path d="M24.6,51c-0.3-0.1-0.4-0.5-0.3-0.8L31.1,36l-7,2.3c-0.1,0-0.2,0-0.4,0c-0.3-0.1-0.5-0.4-0.4-0.8l2.5-9.6L13.3,44.5l8-2.6
			c0.2-0.1,0.3,0,0.5,0c0.3,0.2,0.4,0.5,0.3,0.8l-7.1,14l6.9-2.2c0.1,0,0.3,0,0.4,0c0.3,0.1,0.5,0.5,0.4,0.8l-4.7,14.8L30,49.4
			l-5,1.6C24.9,51.1,24.7,51.1,24.6,51z"/>
		<path d="M31.9,48c-0.2-0.2-0.4-0.3-0.7-0.2L26,49.4l6.8-14.2c0.1-0.3,0-0.7-0.3-0.8c-0.1-0.1-0.3-0.1-0.5,0l-7.3,2.4l3.1-11.6
			c0.1-0.3-0.1-0.7-0.4-0.8c-0.2-0.1-0.5,0-0.7,0.2L11.1,45.3c-0.2,0.3-0.2,0.7,0.1,0.9c0.2,0.1,0.4,0.2,0.6,0.1l8.5-2.7l-7.1,14
			c-0.2,0.3,0,0.7,0.3,0.8c0.1,0.1,0.3,0.1,0.5,0L21,56L15,75c-0.1,0.3,0.1,0.7,0.4,0.8c0.3,0.1,0.6,0,0.7-0.3l15.8-26.8
			C32.1,48.4,32,48.2,31.9,48z M17.9,70.1l4.7-14.8c0.1-0.3-0.1-0.7-0.4-0.8c-0.1,0-0.3,0-0.4,0l-6.9,2.2l7.1-14
			c0.2-0.3,0-0.7-0.3-0.8c-0.1-0.1-0.3-0.1-0.5,0l-8,2.6l12.6-16.6l-2.5,9.6c-0.1,0.3,0.1,0.7,0.4,0.8c0.1,0,0.2,0,0.4,0l7-2.3
			l-6.8,14.2c-0.1,0.3,0,0.7,0.3,0.8c0.1,0.1,0.3,0.1,0.5,0l5-1.6L17.9,70.1z"/>
		<path d="M46.3,49.6c-0.2-0.1-0.4-0.2-0.6-0.1l-5.2,1.7L44.5,40c0.1-0.3,0-0.6-0.3-0.8c-0.3-0.1-0.6-0.1-0.8,0.2L30,57.9
			c-0.2,0.3-0.1,0.7,0.1,0.9c0.2,0.1,0.4,0.1,0.6,0.1l5.3-1.7l-5.2,12.7c-0.1,0.3,0,0.7,0.3,0.8c0.3,0.1,0.6,0,0.7-0.2l14.6-20
			C46.7,50.2,46.6,49.8,46.3,49.6z M33.8,65.6l3.8-9.2c0.1-0.3,0-0.7-0.3-0.8c-0.1-0.1-0.3-0.1-0.4,0l-4.8,1.5l9.8-13.5L39,52
			c-0.1,0.3,0.1,0.7,0.4,0.8c0.1,0,0.3,0,0.4,0l4.5-1.5L33.8,65.6z"/>
	</g>
</g>
<g id="Слой_12">
	<g>
		<path class="st0" d="M49.8,18c-0.1,0-2.5-0.3-4.7,0c-0.1,0-0.1,0-0.2,0c-0.5,0-0.9-0.4-1-0.8c-0.1-0.5,0.3-1.1,0.8-1.1
			c1.5-0.2,3.1-0.2,4.1-0.1C48.3,8.1,41.8,2,34.1,2c-4.7,0-9.4,2.4-12.3,6.1c2,1.7,3.2,4.1,3.2,6.9c0,0.6-0.4,1-1,1s-1-0.4-1-1
			c0-2.5-1.3-4.6-3.2-5.9c-0.2-0.1-0.5-0.3-0.7-0.4c-0.1,0-0.1-0.1-0.2-0.1c-0.3-0.1-0.5-0.2-0.8-0.3c0,0-0.1,0-0.1,0
			c-0.3-0.1-0.5-0.1-0.8-0.2c-0.1,0-0.2,0-0.2,0C16.6,8,16.3,8,16,8c-3.9,0-7,3.1-7,7c0,0.1,0,0.2,0,0.2l0,0.2l0,0.2
			c0,0.1,0,0.3,0,0.4v0.6l-0.6,0.3C4.7,18.7,2,23,2,27.2C2,33.1,6.9,38,12.8,38h24.5c0.1,0,0.1,0,0.2,0l0.2,0l0.3,0
			c0.1,0,0.1,0,0.2,0H48c5.5,0,10-4.5,10-10C58,23.2,54.5,18.9,49.8,18z"/>
		<path d="M51,16.2C50.4,7.2,43,0,34.1,0c-5.4,0-10.7,2.7-13.9,7c-0.1,0-0.2-0.1-0.2-0.1c-0.2-0.1-0.4-0.2-0.6-0.3
			c-0.1,0-0.2-0.1-0.3-0.1c-0.2-0.1-0.4-0.1-0.6-0.2c-0.1,0-0.2-0.1-0.3-0.1c-0.2-0.1-0.5-0.1-0.7-0.1c-0.1,0-0.2,0-0.3,0
			C16.7,6,16.3,6,16,6c-5,0-9,4-9,9c0,0.1,0,0.3,0,0.4v0c-4.2,2.3-7,7-7,11.8C0,34.2,5.8,40,12.8,40h24.5c0.1,0,0.2,0,0.3,0l0.1,0
			l0.1,0c0.1,0,0.2,0,0.3,0H48c6.6,0,12-5.4,12-12C60,22.5,56.2,17.6,51,16.2z M48,38h-9.8c-0.1,0-0.1,0-0.2,0l-0.3,0l-0.2,0
			c-0.1,0-0.1,0-0.2,0H12.8C6.9,38,2,33.1,2,27.2c0-4.2,2.7-8.5,6.4-10.3L9,16.6V16c0-0.1,0-0.3,0-0.4l0-0.2l0-0.2
			c0-0.1,0-0.2,0-0.2c0-3.9,3.1-7,7-7c0.3,0,0.6,0,0.9,0.1c0.1,0,0.2,0,0.2,0c0.3,0,0.5,0.1,0.8,0.2c0,0,0.1,0,0.1,0
			c0.3,0.1,0.6,0.2,0.8,0.3c0.1,0,0.1,0.1,0.2,0.1c0.2,0.1,0.5,0.2,0.7,0.4c1.9,1.2,3.2,3.4,3.2,5.9c0,0.6,0.4,1,1,1s1-0.4,1-1
			c0-2.8-1.2-5.2-3.2-6.9C24.7,4.4,29.4,2,34.1,2c7.7,0,14.2,6.1,14.8,13.9c-1-0.1-2.6-0.1-4.1,0.1c-0.5,0.1-0.9,0.6-0.8,1.1
			c0.1,0.5,0.5,0.8,1,0.8c0,0,0.1,0,0.2,0c2.2-0.3,4.5,0,4.7,0c4.7,0.9,8.2,5.2,8.2,10C58,33.5,53.5,38,48,38z"/>
	</g>
</g>
<g id="Слой_7" class="st0">
	<g class="st1">
		<path class="st0" d="M25,41.2c-0.8-0.3-1.6,0.1-1.9,0.8L21.6,46c-0.4,1,0.3,2,1.4,2c0.6,0,1.1-0.4,1.4-0.9l1.6-3.9
			C26.2,42.4,25.8,41.5,25,41.2z"/>
		<path class="st0" d="M37.6,41.2c-0.8-0.3-1.6,0.1-1.9,0.8L34.1,46c-0.4,1,0.3,2,1.4,2c0.6,0,1.1-0.4,1.4-0.9l1.6-3.9
			C38.8,42.4,38.4,41.5,37.6,41.2z"/>
		<path class="st0" d="M29.7,51.4c-0.8-0.3-1.6,0.1-1.9,0.8l-1.6,4c-0.4,1,0.3,2,1.4,2c0.6,0,1.1-0.4,1.4-0.9l1.6-4
			C30.9,52.6,30.5,51.7,29.7,51.4L29.7,51.4z"/>
		<path d="M43.9,51.4c-0.8-0.3-1.6,0.1-1.9,0.8l-1.6,4c-0.4,1,0.3,2,1.4,2c0.6,0,1.1-0.4,1.4-0.9l1.6-4C45,52.6,44.7,51.7,43.9,51.4
			L43.9,51.4z"/>
		<path d="M50.2,41.2c-0.8-0.3-1.6,0.1-1.9,0.8L46.7,46c-0.4,1,0.3,2,1.4,2c0.6,0,1.1-0.4,1.4-0.9l1.6-3.9
			C51.3,42.4,51,41.5,50.2,41.2L50.2,41.2z"/>
	</g>
</g>
<g id="Слой_8" class="st0">
	<g class="st1">
		<g>
			<path d="M68.1-8.2c-0.2-0.4-0.8-0.6-1.2-0.3L62.5-6c-0.4,0.2-0.6,0.8-0.3,1.2c0.2,0.4,0.8,0.6,1.2,0.3L67.8-7
				C68.2-7.2,68.4-7.8,68.1-8.2z"/>
		</g>
	</g>
	<g class="st1">
		<g>
			<path d="M67.8,15.3l-4.4-2.5c-0.4-0.2-1-0.1-1.2,0.3c-0.2,0.4-0.1,1,0.3,1.2l4.4,2.5c0.4,0.2,1,0.1,1.2-0.3
				C68.4,16.1,68.2,15.6,67.8,15.3z"/>
		</g>
	</g>
	<g>
		<g class="st1">
			<path d="M46.8,21.9c-0.5,0-0.9,0.3-1,0.8c0,0,0,0.1,0,0.1V28c0,0.5,0.3,0.9,0.8,1c0.5,0,0.9-0.3,1-0.8c0,0,0-0.1,0-0.1v-5.1
				C47.7,22.4,47.3,22,46.8,21.9z"/>
		</g>
	</g>
	<g class="st1">
		<g>
			<path d="M30.9-6l-4.4-2.5c-0.4-0.2-1-0.1-1.2,0.3c-0.2,0.4-0.1,1,0.3,1.2L30-4.4c0.4,0.2,1,0.1,1.2-0.3C31.5-5.2,31.4-5.7,30.9-6
				z"/>
		</g>
	</g>
	<g class="st1">
		<g>
			<path d="M46.8-20.6c-0.5,0-0.9,0.3-1,0.8c0,0,0,0.1,0,0.1v5.1c0,0.5,0.4,0.9,0.9,0.9c0.5,0,0.9-0.4,0.9-0.9v-5.1
				C47.7-20.1,47.3-20.6,46.8-20.6z"/>
		</g>
	</g>
	<g class="st1">
		<g>
			<path d="M38.1-12.5l-2.5-4.4c-0.2-0.4-0.8-0.6-1.2-0.3C33.9-17,33.8-16.4,34-16l2.5,4.4c0.2,0.4,0.8,0.6,1.2,0.3
				C38.2-11.5,38.4-12.1,38.1-12.5z"/>
		</g>
	</g>
	<g class="st1">
		<g>
			<path d="M46.9-3.9c0,0-0.1,0-0.1,0c-4.4,0-8,3.6-8,8c0,0.5,0.4,0.9,0.9,0.9c0.5,0,0.9-0.4,0.9-0.9c0-3.4,2.8-6.2,6.2-6.2
				c0,0,0,0,0,0c0.5,0,0.9-0.3,1-0.8C47.7-3.4,47.4-3.8,46.9-3.9z"/>
		</g>
	</g>
	<g class="st1">
		<g>
			<path d="M71.4,4.1c0-0.4-0.4-0.8-0.8-0.8h-5.1c-0.5,0-0.9,0.3-1,0.8c0,0.5,0.3,0.9,0.8,1c0,0,0.1,0,0.1,0h5.1
				C71,5,71.4,4.6,71.4,4.1z"/>
		</g>
	</g>
	<g>
		<g class="st1">
			<path d="M28.1,3.3c0,0-0.1,0-0.1,0h-5.1c-0.5,0-0.9,0.5-0.8,1c0,0.4,0.4,0.8,0.8,0.8H28c0.5,0,0.9-0.3,1-0.8S28.6,3.3,28.1,3.3z"
				/>
		</g>
	</g>
	<g class="st1">
		<path d="M54.8-3.9c-4.5-4.5-11.7-4.5-16.2,0v0c-2.2,2.1-3.4,5.1-3.4,8.1c0,3,1.2,6,3.4,8.1c4.5,4.5,11.7,4.5,16.2,0
			C59.3,7.8,59.3,0.6,54.8-3.9z"/>
		<path d="M46.7-9.1c-7.3,0-13.3,5.9-13.3,13.3c0,3.5,1.4,6.9,3.9,9.4c2.5,2.5,5.9,3.9,9.4,3.9C54,17.4,60,11.5,60,4.2
			C60-3.2,54.1-9.1,46.7-9.1z M54.8,12.3c-4.5,4.5-11.7,4.5-16.2,0c-2.2-2.2-3.4-5.1-3.4-8.1c0-3,1.2-6,3.4-8.1v0
			c4.5-4.5,11.7-4.5,16.2,0C59.3,0.6,59.3,7.8,54.8,12.3z"/>
	</g>
	<g class="st1">
		<g>
			<path d="M59.4,24.3C59.4,24.3,59.4,24.3,59.4,24.3l-2.5-4.4c-0.2-0.4-0.8-0.6-1.2-0.3c-0.4,0.2-0.6,0.8-0.3,1.2l2.5,4.4
				c0.2,0.4,0.8,0.6,1.2,0.3C59.5,25.3,59.7,24.8,59.4,24.3z"/>
		</g>
	</g>
	<g class="st1">
		<g>
			<path d="M59.1-17.2c-0.4-0.2-1-0.1-1.2,0.3l-2.5,4.4c-0.3,0.4-0.1,1,0.3,1.2c0,0,0,0,0,0l0,0c0.4,0.3,1,0.1,1.2-0.3c0,0,0,0,0,0
				l2.5-4.4C59.7-16.4,59.5-17,59.1-17.2z"/>
		</g>
	</g>
	<g>
		<g class="st1">
			<path d="M37.8,19.6c-0.4-0.2-1-0.1-1.2,0.3L34,24.3c-0.2,0.4-0.1,1,0.3,1.2c0.4,0.2,1,0.1,1.2-0.3l2.5-4.4
				C38.4,20.4,38.2,19.9,37.8,19.6z"/>
		</g>
	</g>
	<g>
		<g class="st1">
			<path d="M31.3,13.1c-0.2-0.4-0.8-0.6-1.2-0.3l-4.4,2.5c-0.4,0.2-0.6,0.8-0.3,1.2c0.2,0.4,0.8,0.6,1.2,0.3l4.4-2.5
				C31.4,14.1,31.5,13.5,31.3,13.1z"/>
		</g>
	</g>
</g>
<g id="Capa_1" class="st0">
	<path class="st1" d="M51,16.2C50.4,7.2,43,0,34.1,0c-5.4,0-10.7,2.7-13.9,7c-0.1,0-0.2-0.1-0.2-0.1c-0.2-0.1-0.4-0.2-0.6-0.3
		c-0.1,0-0.2-0.1-0.3-0.1c-0.2-0.1-0.4-0.1-0.6-0.2c-0.1,0-0.2-0.1-0.3-0.1c-0.2-0.1-0.5-0.1-0.7-0.1c-0.1,0-0.2,0-0.3,0
		C16.7,6,16.3,6,16,6c-5,0-9,4-9,9c0,0.1,0,0.3,0,0.4v0c-4.2,2.3-7,7-7,11.8C0,34.2,5.8,40,12.8,40h24.5c0.1,0,0.2,0,0.3,0l0.1,0
		l0.1,0c0.1,0,0.2,0,0.3,0H48c6.6,0,12-5.4,12-12C60,22.5,56.2,17.6,51,16.2z M48,38h-9.8c-0.1,0-0.1,0-0.2,0l-0.3,0l-0.2,0
		c-0.1,0-0.1,0-0.2,0H12.8C6.9,38,2,33.1,2,27.2c0-4.2,2.7-8.5,6.4-10.3L9,16.6V16c0-0.1,0-0.3,0-0.4l0-0.2l0-0.2c0-0.1,0-0.2,0-0.2
		c0-3.9,3.1-7,7-7c0.3,0,0.6,0,0.9,0.1c0.1,0,0.2,0,0.2,0c0.3,0,0.5,0.1,0.8,0.2c0,0,0.1,0,0.1,0c0.3,0.1,0.6,0.2,0.8,0.3
		c0.1,0,0.1,0.1,0.2,0.1c0.2,0.1,0.5,0.2,0.7,0.4c1.9,1.2,3.2,3.4,3.2,5.9c0,0.6,0.4,1,1,1s1-0.4,1-1c0-2.8-1.2-5.2-3.2-6.9
		C24.7,4.4,29.4,2,34.1,2c7.7,0,14.2,6.1,14.8,13.9c-1-0.1-2.6-0.1-4.1,0.1c-0.5,0.1-0.9,0.6-0.8,1.1c0.1,0.5,0.5,0.9,1,0.9
		c0,0,0.1,0,0.2,0c2.2-0.3,4.5,0,4.7,0c4.7,0.9,8.2,5.2,8.2,10C58,33.5,53.5,38,48,38z"/>
</g>
<g id="Слой_5" class="st0">
	<g class="st1">
		<path d="M49.8,18c-0.1,0-2.5-0.3-4.7,0c-0.1,0-0.1,0-0.2,0c-0.5,0-0.9-0.4-1-0.8c-0.1-0.5,0.3-1.1,0.8-1.1
			c1.5-0.2,3.1-0.2,4.1-0.1C48.3,8.1,41.8,2,34.1,2c-4.7,0-9.4,2.4-12.3,6.1c2,1.7,3.2,4.1,3.2,6.9c0,0.6-0.4,1-1,1s-1-0.4-1-1
			c0-2.5-1.3-4.6-3.2-5.9c-0.2-0.1-0.5-0.3-0.7-0.4c-0.1,0-0.1-0.1-0.2-0.1c-0.3-0.1-0.5-0.2-0.8-0.3c0,0-0.1,0-0.1,0
			c-0.3-0.1-0.5-0.1-0.8-0.2c-0.1,0-0.2,0-0.2,0C16.6,8,16.3,8,16,8c-3.9,0-7,3.1-7,7c0,0.1,0,0.2,0,0.2l0,0.2l0,0.2
			c0,0.1,0,0.3,0,0.4v0.6l-0.6,0.3C4.7,18.7,2,23,2,27.2C2,33.1,6.9,38,12.8,38h24.5c0.1,0,0.1,0,0.2,0l0.2,0l0.3,0
			c0.1,0,0.1,0,0.2,0H48c5.5,0,10-4.5,10-10C58,23.2,54.5,18.9,49.8,18z"/>
		<path d="M51,16.2C50.4,7.2,43,0,34.1,0c-5.4,0-10.7,2.7-13.9,7c-0.1,0-0.2-0.1-0.2-0.1c-0.2-0.1-0.4-0.2-0.6-0.3
			c-0.1,0-0.2-0.1-0.3-0.1c-0.2-0.1-0.4-0.1-0.6-0.2c-0.1,0-0.2-0.1-0.3-0.1c-0.2-0.1-0.5-0.1-0.7-0.1c-0.1,0-0.2,0-0.3,0
			C16.7,6,16.3,6,16,6c-5,0-9,4-9,9c0,0.1,0,0.3,0,0.4v0c-4.2,2.3-7,7-7,11.8C0,34.2,5.8,40,12.8,40h24.5c0.1,0,0.2,0,0.3,0l0.1,0
			l0.1,0c0.1,0,0.2,0,0.3,0H48c6.6,0,12-5.4,12-12C60,22.5,56.2,17.6,51,16.2z M48,38h-9.8c-0.1,0-0.1,0-0.2,0l-0.3,0l-0.2,0
			c-0.1,0-0.1,0-0.2,0H12.8C6.9,38,2,33.1,2,27.2c0-4.2,2.7-8.5,6.4-10.3L9,16.6V16c0-0.1,0-0.3,0-0.4l0-0.2l0-0.2
			c0-0.1,0-0.2,0-0.2c0-3.9,3.1-7,7-7c0.3,0,0.6,0,0.9,0.1c0.1,0,0.2,0,0.2,0c0.3,0,0.5,0.1,0.8,0.2c0,0,0.1,0,0.1,0
			c0.3,0.1,0.6,0.2,0.8,0.3c0.1,0,0.1,0.1,0.2,0.1c0.2,0.1,0.5,0.2,0.7,0.4c1.9,1.2,3.2,3.4,3.2,5.9c0,0.6,0.4,1,1,1s1-0.4,1-1
			c0-2.8-1.2-5.2-3.2-6.9C24.7,4.4,29.4,2,34.1,2c7.7,0,14.2,6.1,14.8,13.9c-1-0.1-2.6-0.1-4.1,0.1c-0.5,0.1-0.9,0.6-0.8,1.1
			c0.1,0.5,0.5,0.8,1,0.8c0,0,0.1,0,0.2,0c2.2-0.3,4.5,0,4.7,0c4.7,0.9,8.2,5.2,8.2,10C58,33.5,53.5,38,48,38z"/>
	</g>
</g>
<g id="Слой_10" class="st0">
	<g class="st1">
		<g>
			<g>
				<path d="M68.1-8.2c-0.2-0.4-0.8-0.6-1.2-0.3L62.5-6c-0.4,0.2-0.6,0.8-0.3,1.2c0.2,0.4,0.8,0.6,1.2,0.3L67.8-7
					C68.2-7.2,68.4-7.8,68.1-8.2z"/>
			</g>
		</g>
		<g>
			<g>
				<path d="M67.8,15.3l-4.4-2.5c-0.4-0.2-1-0.1-1.2,0.3c-0.2,0.4-0.1,1,0.3,1.2l4.4,2.5c0.4,0.2,1,0.1,1.2-0.3
					C68.4,16.1,68.2,15.6,67.8,15.3z"/>
			</g>
		</g>
		<g>
			<g>
				<path d="M30.9-6l-4.4-2.5c-0.4-0.2-1-0.1-1.2,0.3c-0.2,0.4-0.1,1,0.3,1.2L30-4.4c0.4,0.2,1,0.1,1.2-0.3
					C31.5-5.2,31.4-5.7,30.9-6z"/>
			</g>
		</g>
		<g>
			<g>
				<path d="M46.8-20.6c-0.5,0-0.9,0.3-1,0.8c0,0,0,0.1,0,0.1v5.1c0,0.5,0.4,0.9,0.9,0.9c0.5,0,0.9-0.4,0.9-0.9v-5.1
					C47.7-20.1,47.3-20.6,46.8-20.6z"/>
			</g>
		</g>
		<g>
			<g>
				<path d="M38.1-12.5l-2.5-4.4c-0.2-0.4-0.8-0.6-1.2-0.3C33.9-17,33.8-16.4,34-16l2.5,4.4c0.2,0.4,0.8,0.6,1.2,0.3
					C38.2-11.5,38.4-12.1,38.1-12.5z"/>
			</g>
		</g>
		<g class="st0">
			<g class="st1">
				<path d="M46.9-3.9c0,0-0.1,0-0.1,0c-4.4,0-8,3.6-8,8c0,0.5,0.4,0.9,0.9,0.9c0.5,0,0.9-0.4,0.9-0.9c0-3.4,2.8-6.2,6.2-6.2
					c0,0,0,0,0,0c0.5,0,0.9-0.3,1-0.8C47.7-3.4,47.4-3.8,46.9-3.9z"/>
			</g>
		</g>
		<g>
			<g>
				<path d="M71.4,4.1c0-0.4-0.4-0.8-0.8-0.8h-5.1c-0.5,0-0.9,0.3-1,0.8c0,0.5,0.3,0.9,0.8,1c0,0,0.1,0,0.1,0h5.1
					C71,5,71.4,4.6,71.4,4.1z"/>
			</g>
		</g>
		<g>
			<g>
				<path d="M59.4,24.3C59.4,24.3,59.4,24.3,59.4,24.3l-2.5-4.4c-0.2-0.4-0.8-0.6-1.2-0.3c-0.4,0.2-0.6,0.8-0.3,1.2l2.5,4.4
					c0.2,0.4,0.8,0.6,1.2,0.3C59.5,25.3,59.7,24.8,59.4,24.3z"/>
			</g>
		</g>
		<g>
			<g>
				<path d="M59.1-17.2c-0.4-0.2-1-0.1-1.2,0.3l-2.5,4.4c-0.3,0.4-0.1,1,0.3,1.2c0,0,0,0,0,0l0,0c0.4,0.3,1,0.1,1.2-0.3c0,0,0,0,0,0
					l2.5-4.4C59.7-16.4,59.5-17,59.1-17.2z"/>
			</g>
		</g>
	</g>
	<path class="st1" d="M36,0.1c0.6-1.5,1.4-2.9,2.6-4.1v0c4.5-4.5,11.7-4.5,16.2,0c4.5,4.5,4.5,11.7,0,16.2c-1.2,1.2-2.5,2-4,2.6
		c0.1,0.4,0.1,0.9,0.1,1.3c0.3,0.1,0.5,0.2,0.8,0.2c4.8-2,8.2-6.7,8.2-12.3c0-7.3-5.9-13.3-13.3-13.3c-5.9,0-10.8,3.8-12.6,9.1
		C34.8,0,35.4,0,36,0.1z"/>
</g>
<g id="Слой_9" class="st0">
	<g class="st1">
		<g>
			<path d="M68.1-8.2c-0.2-0.4-0.8-0.6-1.2-0.3L62.5-6c-0.4,0.2-0.6,0.8-0.3,1.2c0.2,0.4,0.8,0.6,1.2,0.3L67.8-7
				C68.2-7.2,68.4-7.8,68.1-8.2z"/>
		</g>
	</g>
	<g class="st1">
		<g>
			<path d="M67.8,15.3l-4.4-2.5c-0.4-0.2-1-0.1-1.2,0.3c-0.2,0.4-0.1,1,0.3,1.2l4.4,2.5c0.4,0.2,1,0.1,1.2-0.3
				C68.4,16.1,68.2,15.6,67.8,15.3z"/>
		</g>
	</g>
	<g class="st1">
		<g>
			<path d="M30.9-6l-4.4-2.5c-0.4-0.2-1-0.1-1.2,0.3c-0.2,0.4-0.1,1,0.3,1.2L30-4.4c0.4,0.2,1,0.1,1.2-0.3C31.5-5.2,31.4-5.7,30.9-6
				z"/>
		</g>
	</g>
	<g class="st1">
		<g>
			<path d="M46.8-20.6c-0.5,0-0.9,0.3-1,0.8c0,0,0,0.1,0,0.1v5.1c0,0.5,0.4,0.9,0.9,0.9c0.5,0,0.9-0.4,0.9-0.9v-5.1
				C47.7-20.1,47.3-20.6,46.8-20.6z"/>
		</g>
	</g>
	<g class="st1">
		<g>
			<path d="M38.1-12.5l-2.5-4.4c-0.2-0.4-0.8-0.6-1.2-0.3C33.9-17,33.8-16.4,34-16l2.5,4.4c0.2,0.4,0.8,0.6,1.2,0.3
				C38.2-11.5,38.4-12.1,38.1-12.5z"/>
		</g>
	</g>
	<g class="st1">
		<g>
			<path d="M46.9-3.9c0,0-0.1,0-0.1,0c-4.4,0-8,3.6-8,8c0,0.5,0.4,0.9,0.9,0.9c0.5,0,0.9-0.4,0.9-0.9c0-3.4,2.8-6.2,6.2-6.2
				c0,0,0,0,0,0c0.5,0,0.9-0.3,1-0.8C47.7-3.4,47.4-3.8,46.9-3.9z"/>
		</g>
	</g>
	<g class="st1">
		<g>
			<path d="M71.4,4.1c0-0.4-0.4-0.8-0.8-0.8h-5.1c-0.5,0-0.9,0.3-1,0.8c0,0.5,0.3,0.9,0.8,1c0,0,0.1,0,0.1,0h5.1
				C71,5,71.4,4.6,71.4,4.1z"/>
		</g>
	</g>
	<g class="st1">
		<path d="M54.8-3.9c-4.5-4.5-11.7-4.5-16.2,0v0c-2.2,2.1-3.4,5.1-3.4,8.1c0,3,1.2,6,3.4,8.1c4.5,4.5,11.7,4.5,16.2,0
			C59.3,7.8,59.3,0.6,54.8-3.9z"/>
		<path d="M46.7-9.1c-7.3,0-13.3,5.9-13.3,13.3c0,3.5,1.4,6.9,3.9,9.4c2.5,2.5,5.9,3.9,9.4,3.9C54,17.4,60,11.5,60,4.2
			C60-3.2,54.1-9.1,46.7-9.1z M54.8,12.3c-4.5,4.5-11.7,4.5-16.2,0c-2.2-2.2-3.4-5.1-3.4-8.1c0-3,1.2-6,3.4-8.1v0
			c4.5-4.5,11.7-4.5,16.2,0C59.3,0.6,59.3,7.8,54.8,12.3z"/>
	</g>
	<g class="st1">
		<g>
			<path d="M59.4,24.3C59.4,24.3,59.4,24.3,59.4,24.3l-2.5-4.4c-0.2-0.4-0.8-0.6-1.2-0.3c-0.4,0.2-0.6,0.8-0.3,1.2l2.5,4.4
				c0.2,0.4,0.8,0.6,1.2,0.3C59.5,25.3,59.7,24.8,59.4,24.3z"/>
		</g>
	</g>
	<g class="st1">
		<g>
			<path d="M59.1-17.2c-0.4-0.2-1-0.1-1.2,0.3l-2.5,4.4c-0.3,0.4-0.1,1,0.3,1.2c0,0,0,0,0,0l0,0c0.4,0.3,1,0.1,1.2-0.3c0,0,0,0,0,0
				l2.5-4.4C59.7-16.4,59.5-17,59.1-17.2z"/>
		</g>
	</g>
</g>
<g id="Слой_4" class="st0">
	<path class="st1" d="M51,81.5c-0.5-9-7.9-16.2-16.9-16.2c-5.4,0-10.7,2.7-13.9,7c-0.1,0-0.2-0.1-0.2-0.1c-0.2-0.1-0.4-0.2-0.6-0.3
		c-0.1,0-0.2-0.1-0.3-0.1c-0.2-0.1-0.4-0.1-0.6-0.2c-0.1,0-0.2-0.1-0.3-0.1c-0.2-0.1-0.5-0.1-0.7-0.1c-0.1,0-0.2,0-0.3,0
		c-0.3,0-0.7-0.1-1-0.1c-5,0-9,4-9,9c0,0.1,0,0.3,0,0.4v0c-4.2,2.3-7,7-7,11.8c0,7.1,5.8,12.8,12.8,12.8h24.5c0.1,0,0.2,0,0.3,0
		l0.1,0l0.1,0c0.1,0,0.2,0,0.3,0H48c6.6,0,12-5.4,12-12C60,87.7,56.2,82.8,51,81.5z M48,103.3h-9.8c-0.1,0-0.1,0-0.2,0l-0.3,0
		l-0.2,0c-0.1,0-0.1,0-0.2,0H12.8c-6,0-10.8-4.9-10.8-10.8c0-4.2,2.7-8.5,6.4-10.3L9,81.9v-0.6c0-0.1,0-0.3,0-0.4l0-0.2l0-0.2
		c0-0.1,0-0.2,0-0.2c0-3.9,3.1-7,7-7c0.3,0,0.6,0,0.9,0.1c0.1,0,0.2,0,0.2,0c0.3,0,0.5,0.1,0.8,0.2c0,0,0.1,0,0.1,0
		c0.3,0.1,0.6,0.2,0.8,0.3c0.1,0,0.1,0.1,0.2,0.1c0.2,0.1,0.5,0.2,0.7,0.4c1.9,1.2,3.2,3.4,3.2,5.9c0,0.6,0.4,1,1,1s1-0.4,1-1
		c0-2.8-1.2-5.2-3.2-6.9c2.9-3.8,7.6-6.1,12.3-6.1c7.7,0,14.2,6.1,14.8,13.9c-1-0.1-2.6-0.1-4.1,0.1c-0.5,0.1-0.9,0.6-0.8,1.1
		c0.1,0.5,0.5,0.8,1,0.8c0,0,0.1,0,0.2,0c2.2-0.3,4.5,0,4.7,0c4.7,0.9,8.2,5.2,8.2,10C58,98.8,53.5,103.3,48,103.3z"/>
</g>
<g id="Слой_2" class="st0">
	<path class="st1" d="M338,154.2c-0.5-9-7.9-16.2-16.9-16.2c-5.4,0-10.7,2.7-13.9,7c-0.1,0-0.2-0.1-0.2-0.1
		c-0.2-0.1-0.4-0.2-0.6-0.3c-0.1,0-0.2-0.1-0.3-0.1c-0.2-0.1-0.4-0.1-0.6-0.2c-0.1,0-0.2-0.1-0.3-0.1c-0.2-0.1-0.5-0.1-0.7-0.1
		c-0.1,0-0.2,0-0.3,0c-0.3,0-0.7-0.1-1-0.1c-5,0-9,4-9,9c0,0.1,0,0.3,0,0.4v0c-4.2,2.3-7,7-7,11.8c0,7.1,5.8,12.8,12.8,12.8h24.5
		c0.1,0,0.2,0,0.3,0l0.1,0l0.1,0c0.1,0,0.2,0,0.3,0h9.8c6.6,0,12-5.4,12-12C347,160.5,343.2,155.6,338,154.2z M335,176h-9.8
		c-0.1,0-0.1,0-0.2,0l-0.3,0l-0.2,0c-0.1,0-0.1,0-0.2,0h-24.5c-6,0-10.8-4.9-10.8-10.8c0-4.2,2.7-8.5,6.4-10.3l0.6-0.3V154
		c0-0.1,0-0.3,0-0.4l0-0.2l0-0.2c0-0.1,0-0.2,0-0.2c0-3.9,3.1-7,7-7c0.3,0,0.6,0,0.9,0.1c0.1,0,0.2,0,0.2,0c0.3,0,0.5,0.1,0.8,0.2
		c0,0,0.1,0,0.1,0c0.3,0.1,0.6,0.2,0.8,0.3c0.1,0,0.1,0.1,0.2,0.1c0.2,0.1,0.5,0.2,0.7,0.4c1.9,1.2,3.2,3.4,3.2,5.9c0,0.6,0.4,1,1,1
		s1-0.4,1-1c0-2.8-1.2-5.2-3.2-6.9c2.9-3.8,7.6-6.1,12.3-6.1c7.7,0,14.2,6.1,14.8,13.9c-1-0.1-2.6-0.1-4.1,0.1
		c-0.5,0.1-0.9,0.6-0.8,1.1c0.1,0.5,0.5,0.9,1,0.9c0.1,0,0.1,0,0.2,0c2.2-0.3,4.5,0,4.7,0c4.7,0.9,8.2,5.2,8.2,10
		C345,171.5,340.5,176,335,176z"/>
</g>
</svg>
